{
.appVersion = "895";
DisplayStrings = (
"/a-cy/be-cy/o-cy e/en-cy/ve-cy/en-cy e/o-cy/gje-cy/gheupturn-cy/en-cy/de-cy/en-cy/ie-cy/iegrave-cy/io-cy c/zhe-cy.ss02/ka-cy c/ze-cy/ii-cy/iishort-cy/iigrave-cy/ka-cy/kje-cy \012/el-cy/em-cy/en-cy/o-cy/pe-cy/er-cy/es-cy/te-cy y/u-cy/ushort-cy/ef-cy/ha-cy/che-cy/tse-cy/sha-cy/shcha-cy/dzhe-cy/softsign-cy/hardsign-cy/yeru-cy \012/lje-cy/nje-cy/dze-cy/e-cy/ereversed-cy/i-cy/yi-cy/je-cy/en-cy/tshe-cy/en-cy/iu-cy/en-cy/ia-cy/en-cy/en-cy/dje-cy/en-cy",

glyphs = (
{
glyphname = A;
lastChange = "2016-07-06 18:38:26 +0000";
layers = (
{
anchors = (
{
name = bottom;
position = "{553, 8}";
},
{
name = top;
position = "{415, 707}";
}
);
background = {
paths = (
{
closed = 1;
nodes = (
"-39 0 LINE",
"-17 0 LINE",
"142 254 LINE",
"493 254 LINE",
"544 0 LINE",
"566 0 LINE",
"424 710 LINE",
"406 710 LINE"
);
},
{
closed = 1;
nodes = (
"154 274 LINE",
"409 681 LINE",
"489 274 LINE"
);
}
);
};
layerId = UUID0;
paths = (
{
closed = 1;
nodes = (
"-39 0 LINE",
"-17 0 LINE",
"142 254 LINE",
"493 254 LINE",
"544 0 LINE",
"566 0 LINE",
"424 710 LINE",
"406 710 LINE"
);
},
{
closed = 1;
nodes = (
"154 274 LINE",
"409 681 LINE",
"489 274 LINE"
);
}
);
width = 647;
},
{
anchors = (
{
name = bottom;
position = "{503, 5}";
},
{
name = top;
position = "{407, 708}";
}
);
background = {
paths = (
{
closed = 1;
nodes = (
"-57 0 LINE",
"112 0 LINE",
"193 159 LINE",
"395 159 LINE",
"410 0 LINE",
"578 0 LINE",
"486 710 LINE",
"337 710 LINE"
);
},
{
closed = 1;
nodes = (
"242 272 LINE",
"372 523 LINE",
"392 272 LINE"
);
}
);
};
layerId = "1781503A-446A-42BE-9797-0213F9F6A36C";
paths = (
{
closed = 1;
nodes = (
"-57 0 LINE",
"112 0 LINE",
"193 159 LINE",
"395 159 LINE",
"410 0 LINE",
"578 0 LINE",
"486 710 LINE",
"337 710 LINE"
);
},
{
closed = 1;
nodes = (
"242 272 LINE",
"372 523 LINE",
"392 272 LINE"
);
}
);
width = 641;
}
);
leftKerningGroup = A;
rightKerningGroup = A;
unicode = 0041;
},
{
glyphname = AE;
lastChange = "2016-07-06 18:38:26 +0000";
layers = (
{
anchors = (
{
name = top;
position = "{410, 707}";
}
);
background = {
paths = (
{
closed = 1;
nodes = (
"-84 0 LINE",
"-59 0 LINE",
"153 254 LINE",
"419 254 LINE",
"365 0 LINE",
"808 0 LINE",
"812 20 LINE",
"390 20 LINE",
"460 353 LINE",
"823 353 LINE",
"828 373 LINE",
"465 373 LINE",
"532 690 LINE",
"946 690 LINE",
"951 710 LINE",
"511 710 LINE"
);
},
{
closed = 1;
nodes = (
"169 274 LINE",
"509 678 LINE",
"424 274 LINE"
);
}
);
};
layerId = UUID0;
paths = (
{
closed = 1;
nodes = (
"-84 0 LINE",
"-59 0 LINE",
"153 254 LINE",
"419 254 LINE",
"365 0 LINE",
"808 0 LINE",
"812 20 LINE",
"390 20 LINE",
"460 353 LINE",
"823 353 LINE",
"828 373 LINE",
"465 373 LINE",
"532 690 LINE",
"946 690 LINE",
"951 710 LINE",
"511 710 LINE"
);
},
{
closed = 1;
nodes = (
"169 274 LINE",
"509 678 LINE",
"424 274 LINE"
);
}
);
width = 921;
},
{
anchors = (
{
name = top;
position = "{490, 708}";
}
);
background = {
paths = (
{
closed = 1;
nodes = (
"-80 0 LINE",
"94 0 LINE",
"210 159 LINE",
"411 159 LINE",
"377 0 LINE",
"835 0 LINE",
"865 144 LINE",
"571 144 LINE",
"602 290 LINE",
"837 290 LINE",
"867 433 LINE",
"632 433 LINE",
"660 566 LINE",
"947 566 LINE",
"978 710 LINE",
"484 710 LINE"
);
},
{
closed = 1;
nodes = (
"310 303 LINE",
"476 527 LINE",
"429 303 LINE"
);
}
);
};
layerId = "1781503A-446A-42BE-9797-0213F9F6A36C";
paths = (
{
closed = 1;
nodes = (
"-80 0 LINE",
"94 0 LINE",
"210 159 LINE",
"411 159 LINE",
"377 0 LINE",
"835 0 LINE",
"865 144 LINE",
"571 144 LINE",
"602 290 LINE",
"837 290 LINE",
"867 433 LINE",
"632 433 LINE",
"660 566 LINE",
"947 566 LINE",
"978 710 LINE",
"484 710 LINE"
);
},
{
closed = 1;
nodes = (
"310 303 LINE",
"476 527 LINE",
"429 303 LINE"
);
}
);
width = 932;
}
);
leftKerningGroup = AE;
rightKerningGroup = E;
unicode = 00C6;
},
{
glyphname = B;
lastChange = "2016-07-06 18:38:26 +0000";
layers = (
{
background = {
paths = (
{
closed = 1;
nodes = (
"33 0 LINE",
"346 0 LINE SMOOTH",
"450 0 OFFCURVE",
"558 104 OFFCURVE",
"558 218 CURVE SMOOTH",
"558 284 OFFCURVE",
"525 344 OFFCURVE",
"466 364 CURVE",
"544 398 OFFCURVE",
"603 478 OFFCURVE",
"603 565 CURVE SMOOTH",
"603 639 OFFCURVE",
"562 710 OFFCURVE",
"483 710 CURVE SMOOTH",
"184 710 LINE"
);
},
{
closed = 1;
nodes = (
"57 20 LINE",
"127 348 LINE",
"426 348 LINE SMOOTH",
"495 348 OFFCURVE",
"537 286 OFFCURVE",
"537 215 CURVE SMOOTH",
"537 119 OFFCURVE",
"444 20 OFFCURVE",
"350 20 CURVE SMOOTH"
);
},
{
closed = 1;
nodes = (
"131 368 LINE",
"200 690 LINE",
"478 690 LINE SMOOTH",
"545 690 OFFCURVE",
"583 631 OFFCURVE",
"583 562 CURVE SMOOTH",
"583 468 OFFCURVE",
"497 368 OFFCURVE",
"404 368 CURVE SMOOTH"
);
}
);
};
layerId = UUID0;
paths = (
{
closed = 1;
nodes = (
"33 0 LINE",
"346 0 LINE SMOOTH",
"450 0 OFFCURVE",
"558 104 OFFCURVE",
"558 218 CURVE SMOOTH",
"558 284 OFFCURVE",
"525 344 OFFCURVE",
"466 364 CURVE",
"544 398 OFFCURVE",
"603 478 OFFCURVE",
"603 565 CURVE SMOOTH",
"603 639 OFFCURVE",
"562 710 OFFCURVE",
"483 710 CURVE SMOOTH",
"184 710 LINE"
);
},
{
closed = 1;
nodes = (
"57 20 LINE",
"127 348 LINE",
"426 348 LINE SMOOTH",
"495 348 OFFCURVE",
"537 286 OFFCURVE",
"537 215 CURVE SMOOTH",
"537 119 OFFCURVE",
"444 20 OFFCURVE",
"350 20 CURVE SMOOTH"
);
},
{
closed = 1;
nodes = (
"131 368 LINE",
"200 690 LINE",
"478 690 LINE SMOOTH",
"545 690 OFFCURVE",
"583 631 OFFCURVE",
"583 562 CURVE SMOOTH",
"583 468 OFFCURVE",
"497 368 OFFCURVE",
"404 368 CURVE SMOOTH"
);
}
);
width = 628;
},
{
background = {
paths = (
{
closed = 1;
nodes = (
"4 0 LINE",
"333 0 LINE SMOOTH",
"478 0 OFFCURVE",
"610 73 OFFCURVE",
"610 224 CURVE SMOOTH",
"610 295 OFFCURVE",
"576 345 OFFCURVE",
"517 364 CURVE",
"603 400 OFFCURVE",
"654 484 OFFCURVE",
"654 564 CURVE SMOOTH",
"654 639 OFFCURVE",
"613 710 OFFCURVE",
"534 710 CURVE SMOOTH",
"155 710 LINE"
);
},
{
closed = 1;
nodes = (
"198 139 LINE",
"230 294 LINE",
"402 294 LINE SMOOTH",
"430 294 OFFCURVE",
"448 268 OFFCURVE",
"448 234 CURVE SMOOTH",
"448 179 OFFCURVE",
"406 139 OFFCURVE",
"363 139 CURVE SMOOTH"
);
},
{
closed = 1;
nodes = (
"258 423 LINE",
"289 570 LINE",
"440 570 LINE SMOOTH",
"465 570 OFFCURVE",
"483 550 OFFCURVE",
"483 516 CURVE SMOOTH",
"483 454 OFFCURVE",
"441 423 OFFCURVE",
"403 423 CURVE SMOOTH"
);
}
);
};
layerId = "1781503A-446A-42BE-9797-0213F9F6A36C";
paths = (
{
closed = 1;
nodes = (
"4 0 LINE",
"333 0 LINE SMOOTH",
"478 0 OFFCURVE",
"610 73 OFFCURVE",
"610 224 CURVE SMOOTH",
"610 295 OFFCURVE",
"576 345 OFFCURVE",
"517 364 CURVE",
"603 400 OFFCURVE",
"654 484 OFFCURVE",
"654 564 CURVE SMOOTH",
"654 639 OFFCURVE",
"613 710 OFFCURVE",
"534 710 CURVE SMOOTH",
"155 710 LINE"
);
},
{
closed = 1;
nodes = (
"198 139 LINE",
"230 294 LINE",
"402 294 LINE SMOOTH",
"430 294 OFFCURVE",
"448 268 OFFCURVE",
"448 234 CURVE SMOOTH",
"448 179 OFFCURVE",
"406 139 OFFCURVE",
"363 139 CURVE SMOOTH"
);
},
{
closed = 1;
nodes = (
"258 423 LINE",
"289 570 LINE",
"440 570 LINE SMOOTH",
"465 570 OFFCURVE",
"483 550 OFFCURVE",
"483 516 CURVE SMOOTH",
"483 454 OFFCURVE",
"441 423 OFFCURVE",
"403 423 CURVE SMOOTH"
);
}
);
width = 661;
}
);
leftKerningGroup = I;
unicode = 0042;
},
{
glyphname = C;
lastChange = "2016-07-06 18:38:26 +0000";
layers = (
{
anchors = (
{
name = bottom;
position = "{319, 0}";
},
{
name = top;
position = "{453, 707}";
}
);
background = {
paths = (
{
closed = 1;
nodes = (
"399 -6 OFFCURVE",
"529 52 OFFCURVE",
"598 159 CURVE",
"580 164 LINE",
"506 60 OFFCURVE",
"393 14 OFFCURVE",
"304 14 CURVE SMOOTH",
"163 14 OFFCURVE",
"72 142 OFFCURVE",
"72 293 CURVE SMOOTH",
"72 478 OFFCURVE",
"230 694 OFFCURVE",
"446 694 CURVE SMOOTH",
"532 694 OFFCURVE",
"617 657 OFFCURVE",
"647 553 CURVE",
"667 559 LINE",
"646 649 OFFCURVE",
"574 714 OFFCURVE",
"454 714 CURVE SMOOTH",
"222 714 OFFCURVE",
"52 486 OFFCURVE",
"52 293 CURVE SMOOTH",
"52 140 OFFCURVE",
"141 -6 OFFCURVE",
"296 -6 CURVE SMOOTH"
);
}
);
};
layerId = UUID0;
paths = (
{
closed = 1;
nodes = (
"399 -6 OFFCURVE",
"529 52 OFFCURVE",
"598 159 CURVE",
"580 164 LINE",
"506 60 OFFCURVE",
"393 14 OFFCURVE",
"304 14 CURVE SMOOTH",
"163 14 OFFCURVE",
"72 142 OFFCURVE",
"72 293 CURVE SMOOTH",
"72 478 OFFCURVE",
"230 694 OFFCURVE",
"446 694 CURVE SMOOTH",
"532 694 OFFCURVE",
"617 657 OFFCURVE",
"647 553 CURVE",
"667 559 LINE",
"646 649 OFFCURVE",
"574 714 OFFCURVE",
"454 714 CURVE SMOOTH",
"222 714 OFFCURVE",
"52 486 OFFCURVE",
"52 293 CURVE SMOOTH",
"52 140 OFFCURVE",
"141 -6 OFFCURVE",
"296 -6 CURVE SMOOTH"
);
}
);
width = 663;
},
{
anchors = (
{
name = bottom;
position = "{306, 0}";
},
{
name = top;
position = "{452, 708}";
}
);
background = {
paths = (
{
closed = 1;
nodes = (
"410 -6 OFFCURVE",
"554 54 OFFCURVE",
"617 159 CURVE",
"499 238 LINE",
"458 167 OFFCURVE",
"387 140 OFFCURVE",
"332 140 CURVE SMOOTH",
"246 140 OFFCURVE",
"200 217 OFFCURVE",
"200 307 CURVE SMOOTH",
"200 422 OFFCURVE",
"283 568 OFFCURVE",
"421 568 CURVE SMOOTH",
"475 568 OFFCURVE",
"537 546 OFFCURVE",
"549 471 CURVE",
"694 559 LINE",
"668 651 OFFCURVE",
"583 714 OFFCURVE",
"456 714 CURVE SMOOTH",
"213 714 OFFCURVE",
"33 493 OFFCURVE",
"33 297 CURVE SMOOTH",
"33 142 OFFCURVE",
"129 -6 OFFCURVE",
"297 -6 CURVE SMOOTH"
);
}
);
};
layerId = "1781503A-446A-42BE-9797-0213F9F6A36C";
paths = (
{
closed = 1;
nodes = (
"410 -6 OFFCURVE",
"554 54 OFFCURVE",
"617 159 CURVE",
"499 238 LINE",
"458 167 OFFCURVE",
"387 140 OFFCURVE",
"332 140 CURVE SMOOTH",
"246 140 OFFCURVE",
"200 217 OFFCURVE",
"200 307 CURVE SMOOTH",
"200 422 OFFCURVE",
"283 568 OFFCURVE",
"421 568 CURVE SMOOTH",
"475 568 OFFCURVE",
"537 546 OFFCURVE",
"549 471 CURVE",
"694 559 LINE",
"668 651 OFFCURVE",
"583 714 OFFCURVE",
"456 714 CURVE SMOOTH",
"213 714 OFFCURVE",
"33 493 OFFCURVE",
"33 297 CURVE SMOOTH",
"33 142 OFFCURVE",
"129 -6 OFFCURVE",
"297 -6 CURVE SMOOTH"
);
}
);
width = 661;
}
);
leftKerningGroup = O;
rightKerningGroup = C;
unicode = 0043;
},
{
glyphname = D;
lastChange = "2016-07-06 18:38:26 +0000";
layers = (
{
anchors = (
{
name = top;
position = "{427, 707}";
}
);
background = {
paths = (
{
closed = 1;
nodes = (
"33 0 LINE",
"250 0 LINE SMOOTH",
"483 0 OFFCURVE",
"653 188 OFFCURVE",
"653 440 CURVE SMOOTH",
"653 591 OFFCURVE",
"574 710 OFFCURVE",
"401 710 CURVE SMOOTH",
"184 710 LINE"
);
},
{
closed = 1;
nodes = (
"57 20 LINE",
"200 690 LINE",
"397 690 LINE SMOOTH",
"553 690 OFFCURVE",
"633 584 OFFCURVE",
"633 435 CURVE SMOOTH",
"633 217 OFFCURVE",
"491 20 OFFCURVE",
"254 20 CURVE SMOOTH"
);
}
);
};
layerId = UUID0;
paths = (
{
closed = 1;
nodes = (
"33 0 LINE",
"250 0 LINE SMOOTH",
"483 0 OFFCURVE",
"653 188 OFFCURVE",
"653 440 CURVE SMOOTH",
"653 591 OFFCURVE",
"574 710 OFFCURVE",
"401 710 CURVE SMOOTH",
"184 710 LINE"
);
},
{
closed = 1;
nodes = (
"57 20 LINE",
"200 690 LINE",
"397 690 LINE SMOOTH",
"553 690 OFFCURVE",
"633 584 OFFCURVE",
"633 435 CURVE SMOOTH",
"633 217 OFFCURVE",
"491 20 OFFCURVE",
"254 20 CURVE SMOOTH"
);
}
);
width = 684;
},
{
anchors = (
{
name = top;
position = "{411, 708}";
}
);
background = {
paths = (
{
closed = 1;
nodes = (
"4 0 LINE",
"258 0 LINE SMOOTH",
"499 0 OFFCURVE",
"681 184 OFFCURVE",
"681 434 CURVE SMOOTH",
"681 589 OFFCURVE",
"594 710 OFFCURVE",
"409 710 CURVE SMOOTH",
"155 710 LINE"
);
},
{
closed = 1;
nodes = (
"198 144 LINE",
"288 566 LINE",
"378 566 LINE SMOOTH",
"465 566 OFFCURVE",
"511 503 OFFCURVE",
"511 410 CURVE SMOOTH",
"511 269 OFFCURVE",
"422 144 OFFCURVE",
"288 144 CURVE SMOOTH"
);
}
);
};
layerId = "1781503A-446A-42BE-9797-0213F9F6A36C";
paths = (
{
closed = 1;
nodes = (
"4 0 LINE",
"258 0 LINE SMOOTH",
"499 0 OFFCURVE",
"681 184 OFFCURVE",
"681 434 CURVE SMOOTH",
"681 589 OFFCURVE",
"594 710 OFFCURVE",
"409 710 CURVE SMOOTH",
"155 710 LINE"
);
},
{
closed = 1;
nodes = (
"198 144 LINE",
"288 566 LINE",
"378 566 LINE SMOOTH",
"465 566 OFFCURVE",
"511 503 OFFCURVE",
"511 410 CURVE SMOOTH",
"511 269 OFFCURVE",
"422 144 OFFCURVE",
"288 144 CURVE SMOOTH"
);
}
);
width = 693;
}
);
leftKerningGroup = I;
rightKerningGroup = D;
unicode = 0044;
},
{
glyphname = Eth;
lastChange = "2016-07-06 18:38:26 +0000";
layers = (
{
background = {
paths = (
{
closed = 1;
nodes = (
"47 347 LINE",
"316 347 LINE",
"320 367 LINE",
"51 367 LINE"
);
},
{
closed = 1;
nodes = (
"40 0 LINE",
"257 0 LINE SMOOTH",
"490 0 OFFCURVE",
"660 188 OFFCURVE",
"660 440 CURVE SMOOTH",
"660 591 OFFCURVE",
"581 710 OFFCURVE",
"408 710 CURVE SMOOTH",
"191 710 LINE"
);
},
{
closed = 1;
nodes = (
"64 20 LINE",
"207 690 LINE",
"404 690 LINE SMOOTH",
"560 690 OFFCURVE",
"640 584 OFFCURVE",
"640 435 CURVE SMOOTH",
"640 217 OFFCURVE",
"498 20 OFFCURVE",
"261 20 CURVE SMOOTH"
);
}
);
};
layerId = UUID0;
paths = (
{
closed = 1;
nodes = (
"47 347 LINE",
"316 347 LINE",
"320 367 LINE",
"51 367 LINE"
);
},
{
closed = 1;
nodes = (
"40 0 LINE",
"257 0 LINE SMOOTH",
"490 0 OFFCURVE",
"660 188 OFFCURVE",
"660 440 CURVE SMOOTH",
"660 591 OFFCURVE",
"581 710 OFFCURVE",
"408 710 CURVE SMOOTH",
"191 710 LINE"
);
},
{
closed = 1;
nodes = (
"64 20 LINE",
"207 690 LINE",
"404 690 LINE SMOOTH",
"560 690 OFFCURVE",
"640 584 OFFCURVE",
"640 435 CURVE SMOOTH",
"640 217 OFFCURVE",
"498 20 OFFCURVE",
"261 20 CURVE SMOOTH"
);
}
);
width = 691;
},
{
background = {
paths = (
{
closed = 1;
nodes = (
"32 298 LINE",
"353 298 LINE",
"379 416 LINE",
"57 416 LINE"
);
},
{
closed = 1;
nodes = (
"8 0 LINE",
"262 0 LINE SMOOTH",
"503 0 OFFCURVE",
"685 184 OFFCURVE",
"685 434 CURVE SMOOTH",
"685 589 OFFCURVE",
"598 710 OFFCURVE",
"413 710 CURVE SMOOTH",
"159 710 LINE"
);
},
{
closed = 1;
nodes = (
"202 144 LINE",
"293 566 LINE",
"383 566 LINE SMOOTH",
"470 566 OFFCURVE",
"516 503 OFFCURVE",
"516 410 CURVE SMOOTH",
"516 269 OFFCURVE",
"426 144 OFFCURVE",
"292 144 CURVE SMOOTH"
);
}
);
};
layerId = "1781503A-446A-42BE-9797-0213F9F6A36C";
paths = (
{
closed = 1;
nodes = (
"32 298 LINE",
"353 298 LINE",
"379 416 LINE",
"57 416 LINE"
);
},
{
closed = 1;
nodes = (
"8 0 LINE",
"262 0 LINE SMOOTH",
"503 0 OFFCURVE",
"685 184 OFFCURVE",
"685 434 CURVE SMOOTH",
"685 589 OFFCURVE",
"598 710 OFFCURVE",
"413 710 CURVE SMOOTH",
"159 710 LINE"
);
},
{
closed = 1;
nodes = (
"202 144 LINE",
"293 566 LINE",
"383 566 LINE SMOOTH",
"470 566 OFFCURVE",
"516 503 OFFCURVE",
"516 410 CURVE SMOOTH",
"516 269 OFFCURVE",
"426 144 OFFCURVE",
"292 144 CURVE SMOOTH"
);
}
);
width = 697;
}
);
leftKerningGroup = I;
rightKerningGroup = D;
unicode = 00D0;
},
{
glyphname = Dcroat;
lastChange = "2016-07-06 18:38:26 +0000";
layers = (
{
background = {
paths = (
{
closed = 1;
nodes = (
"47 347 LINE",
"316 347 LINE",
"320 367 LINE",
"51 367 LINE"
);
},
{
closed = 1;
nodes = (
"40 0 LINE",
"257 0 LINE SMOOTH",
"490 0 OFFCURVE",
"660 188 OFFCURVE",
"660 440 CURVE SMOOTH",
"660 591 OFFCURVE",
"581 710 OFFCURVE",
"408 710 CURVE SMOOTH",
"191 710 LINE"
);
},
{
closed = 1;
nodes = (
"64 20 LINE",
"207 690 LINE",
"404 690 LINE SMOOTH",
"560 690 OFFCURVE",
"640 584 OFFCURVE",
"640 435 CURVE SMOOTH",
"640 217 OFFCURVE",
"498 20 OFFCURVE",
"261 20 CURVE SMOOTH"
);
}
);
};
layerId = UUID0;
paths = (
{
closed = 1;
nodes = (
"47 347 LINE",
"316 347 LINE",
"320 367 LINE",
"51 367 LINE"
);
},
{
closed = 1;
nodes = (
"40 0 LINE",
"257 0 LINE SMOOTH",
"490 0 OFFCURVE",
"660 188 OFFCURVE",
"660 440 CURVE SMOOTH",
"660 591 OFFCURVE",
"581 710 OFFCURVE",
"408 710 CURVE SMOOTH",
"191 710 LINE"
);
},
{
closed = 1;
nodes = (
"64 20 LINE",
"207 690 LINE",
"404 690 LINE SMOOTH",
"560 690 OFFCURVE",
"640 584 OFFCURVE",
"640 435 CURVE SMOOTH",
"640 217 OFFCURVE",
"498 20 OFFCURVE",
"261 20 CURVE SMOOTH"
);
}
);
width = 691;
},
{
background = {
paths = (
{
closed = 1;
nodes = (
"32 298 LINE",
"353 298 LINE",
"379 416 LINE",
"57 416 LINE"
);
},
{
closed = 1;
nodes = (
"8 0 LINE",
"262 0 LINE SMOOTH",
"503 0 OFFCURVE",
"685 184 OFFCURVE",
"685 434 CURVE SMOOTH",
"685 589 OFFCURVE",
"598 710 OFFCURVE",
"413 710 CURVE SMOOTH",
"159 710 LINE"
);
},
{
closed = 1;
nodes = (
"202 144 LINE",
"293 566 LINE",
"383 566 LINE SMOOTH",
"470 566 OFFCURVE",
"516 503 OFFCURVE",
"516 410 CURVE SMOOTH",
"516 269 OFFCURVE",
"426 144 OFFCURVE",
"292 144 CURVE SMOOTH"
);
}
);
};
layerId = "1781503A-446A-42BE-9797-0213F9F6A36C";
paths = (
{
closed = 1;
nodes = (
"32 298 LINE",
"353 298 LINE",
"379 416 LINE",
"57 416 LINE"
);
},
{
closed = 1;
nodes = (
"8 0 LINE",
"262 0 LINE SMOOTH",
"503 0 OFFCURVE",
"685 184 OFFCURVE",
"685 434 CURVE SMOOTH",
"685 589 OFFCURVE",
"598 710 OFFCURVE",
"413 710 CURVE SMOOTH",
"159 710 LINE"
);
},
{
closed = 1;
nodes = (
"202 144 LINE",
"293 566 LINE",
"383 566 LINE SMOOTH",
"470 566 OFFCURVE",
"516 503 OFFCURVE",
"516 410 CURVE SMOOTH",
"516 269 OFFCURVE",
"426 144 OFFCURVE",
"292 144 CURVE SMOOTH"
);
}
);
width = 697;
}
);
leftKerningGroup = I;
rightKerningGroup = D;
unicode = 0110;
},
{
glyphname = E;
lastChange = "2016-07-06 18:38:26 +0000";
layers = (
{
anchors = (
{
name = bottom;
position = "{253, 0}";
},
{
name = top;
position = "{404, 707}";
}
);
background = {
paths = (
{
closed = 1;
nodes = (
"33 0 LINE",
"476 0 LINE",
"480 20 LINE",
"57 20 LINE",
"128 353 LINE",
"491 353 LINE",
"495 373 LINE",
"132 373 LINE",
"200 690 LINE",
"614 690 LINE",
"618 710 LINE",
"184 710 LINE"
);
}
);
};
layerId = UUID0;
paths = (
{
closed = 1;
nodes = (
"33 0 LINE",
"476 0 LINE",
"480 20 LINE",
"57 20 LINE",
"128 353 LINE",
"491 353 LINE",
"495 373 LINE",
"132 373 LINE",
"200 690 LINE",
"614 690 LINE",
"618 710 LINE",
"184 710 LINE"
);
}
);
width = 588;
},
{
anchors = (
{
name = bottom;
position = "{246, 0}";
},
{
name = top;
position = "{381, 708}";
}
);
background = {
paths = (
{
closed = 1;
nodes = (
"4 0 LINE",
"480 0 LINE",
"510 144 LINE",
"198 144 LINE",
"231 295 LINE",
"491 295 LINE",
"519 428 LINE",
"259 428 LINE",
"288 566 LINE",
"591 566 LINE",
"622 710 LINE",
"155 710 LINE"
);
}
);
};
layerId = "1781503A-446A-42BE-9797-0213F9F6A36C";
paths = (
{
closed = 1;
nodes = (
"4 0 LINE",
"480 0 LINE",
"510 144 LINE",
"198 144 LINE",
"231 295 LINE",
"491 295 LINE",
"519 428 LINE",
"259 428 LINE",
"288 566 LINE",
"591 566 LINE",
"622 710 LINE",
"155 710 LINE"
);
}
);
width = 576;
}
);
leftKerningGroup = I;
rightKerningGroup = E;
unicode = 0045;
},
{
glyphname = F;
lastChange = "2016-07-06 18:38:26 +0000";
layers = (
{
background = {
paths = (
{
closed = 1;
nodes = (
"33 0 LINE",
"53 0 LINE",
"128 354 LINE",
"482 354 LINE",
"486 374 LINE",
"133 374 LINE",
"200 690 LINE",
"614 690 LINE",
"618 710 LINE",
"184 710 LINE"
);
}
);
};
layerId = UUID0;
paths = (
{
closed = 1;
nodes = (
"33 0 LINE",
"53 0 LINE",
"128 354 LINE",
"482 354 LINE",
"486 374 LINE",
"133 374 LINE",
"200 690 LINE",
"614 690 LINE",
"618 710 LINE",
"184 710 LINE"
);
}
);
width = 588;
},
{
background = {
paths = (
{
closed = 1;
nodes = (
"4 0 LINE",
"168 0 LINE",
"227 280 LINE",
"470 280 LINE",
"498 413 LINE",
"256 413 LINE",
"288 566 LINE",
"583 566 LINE",
"613 710 LINE",
"155 710 LINE"
);
}
);
};
layerId = "1781503A-446A-42BE-9797-0213F9F6A36C";
paths = (
{
closed = 1;
nodes = (
"4 0 LINE",
"168 0 LINE",
"227 280 LINE",
"470 280 LINE",
"498 413 LINE",
"256 413 LINE",
"288 566 LINE",
"583 566 LINE",
"613 710 LINE",
"155 710 LINE"
);
}
);
width = 552;
}
);
leftKerningGroup = I;
unicode = 0046;
},
{
glyphname = G;
lastChange = "2016-07-06 18:38:26 +0000";
layers = (
{
anchors = (
{
name = bottom;
position = "{301, 0}";
},
{
name = top;
position = "{441, 707}";
}
);
background = {
paths = (
{
closed = 1;
nodes = (
"398 -5 OFFCURVE",
"494 42 OFFCURVE",
"586 136 CURVE",
"592 164 LINE",
"491 60 OFFCURVE",
"399 15 OFFCURVE",
"306 15 CURVE SMOOTH",
"164 15 OFFCURVE",
"72 144 OFFCURVE",
"72 293 CURVE SMOOTH",
"72 479 OFFCURVE",
"236 695 OFFCURVE",
"439 695 CURVE SMOOTH",
"544 695 OFFCURVE",
"618 654 OFFCURVE",
"648 554 CURVE",
"668 560 LINE",
"645 650 OFFCURVE",
"583 715 OFFCURVE",
"444 715 CURVE SMOOTH",
"238 715 OFFCURVE",
"52 498 OFFCURVE",
"52 292 CURVE SMOOTH",
"52 142 OFFCURVE",
"142 -5 OFFCURVE",
"302 -5 CURVE SMOOTH"
);
},
{
closed = 1;
nodes = (
"545 0 LINE",
"565 0 LINE",
"637 338 LINE",
"459 338 LINE",
"455 318 LINE",
"613 318 LINE"
);
}
);
};
layerId = UUID0;
paths = (
{
closed = 1;
nodes = (
"398 -5 OFFCURVE",
"494 42 OFFCURVE",
"586 136 CURVE",
"592 164 LINE",
"491 60 OFFCURVE",
"399 15 OFFCURVE",
"306 15 CURVE SMOOTH",
"164 15 OFFCURVE",
"72 144 OFFCURVE",
"72 293 CURVE SMOOTH",
"72 479 OFFCURVE",
"236 695 OFFCURVE",
"439 695 CURVE SMOOTH",
"544 695 OFFCURVE",
"618 654 OFFCURVE",
"648 554 CURVE",
"668 560 LINE",
"645 650 OFFCURVE",
"583 715 OFFCURVE",
"444 715 CURVE SMOOTH",
"238 715 OFFCURVE",
"52 498 OFFCURVE",
"52 292 CURVE SMOOTH",
"52 142 OFFCURVE",
"142 -5 OFFCURVE",
"302 -5 CURVE SMOOTH"
);
},
{
closed = 1;
nodes = (
"545 0 LINE",
"565 0 LINE",
"637 338 LINE",
"459 338 LINE",
"455 318 LINE",
"613 318 LINE"
);
}
);
width = 688;
},
{
anchors = (
{
name = bottom;
position = "{301, 0}";
},
{
name = top;
position = "{455, 708}";
}
);
background = {
paths = (
{
closed = 1;
nodes = (
"362 -5 OFFCURVE",
"426 22 OFFCURVE",
"493 80 CURVE",
"527 242 LINE",
"465 175 OFFCURVE",
"399 141 OFFCURVE",
"336 141 CURVE SMOOTH",
"252 141 OFFCURVE",
"202 210 OFFCURVE",
"202 304 CURVE SMOOTH",
"202 445 OFFCURVE",
"304 569 OFFCURVE",
"421 569 CURVE SMOOTH",
"485 569 OFFCURVE",
"538 531 OFFCURVE",
"555 468 CURVE",
"696 560 LINE",
"669 655 OFFCURVE",
"581 715 OFFCURVE",
"458 715 CURVE SMOOTH",
"239 715 OFFCURVE",
"33 520 OFFCURVE",
"33 285 CURVE SMOOTH",
"33 112 OFFCURVE",
"140 -5 OFFCURVE",
"291 -5 CURVE SMOOTH"
);
},
{
closed = 1;
nodes = (
"466 0 LINE",
"602 0 LINE",
"681 371 LINE",
"416 371 LINE",
"391 252 LINE",
"520 252 LINE"
);
}
);
};
layerId = "1781503A-446A-42BE-9797-0213F9F6A36C";
paths = (
{
closed = 1;
nodes = (
"362 -5 OFFCURVE",
"426 22 OFFCURVE",
"493 80 CURVE",
"527 242 LINE",
"465 175 OFFCURVE",
"399 141 OFFCURVE",
"336 141 CURVE SMOOTH",
"252 141 OFFCURVE",
"202 210 OFFCURVE",
"202 304 CURVE SMOOTH",
"202 445 OFFCURVE",
"304 569 OFFCURVE",
"421 569 CURVE SMOOTH",
"485 569 OFFCURVE",
"538 531 OFFCURVE",
"555 468 CURVE",
"696 560 LINE",
"669 655 OFFCURVE",
"581 715 OFFCURVE",
"458 715 CURVE SMOOTH",
"239 715 OFFCURVE",
"33 520 OFFCURVE",
"33 285 CURVE SMOOTH",
"33 112 OFFCURVE",
"140 -5 OFFCURVE",
"291 -5 CURVE SMOOTH"
);
},
{
closed = 1;
nodes = (
"466 0 LINE",
"602 0 LINE",
"681 371 LINE",
"416 371 LINE",
"391 252 LINE",
"520 252 LINE"
);
}
);
width = 704;
}
);
leftKerningGroup = O;
rightKerningGroup = G;
unicode = 0047;
},
{
glyphname = H;
lastChange = "2016-07-06 18:38:26 +0000";
layers = (
{
anchors = (
{
name = top;
position = "{438, 707}";
}
);
background = {
paths = (
{
closed = 1;
nodes = (
"33 0 LINE",
"53 0 LINE",
"128 353 LINE",
"595 353 LINE",
"520 0 LINE",
"540 0 LINE",
"691 710 LINE",
"671 710 LINE",
"599 373 LINE",
"132 373 LINE",
"204 710 LINE",
"184 710 LINE"
);
}
);
};
layerId = UUID0;
paths = (
{
closed = 1;
nodes = (
"33 0 LINE",
"53 0 LINE",
"128 353 LINE",
"595 353 LINE",
"520 0 LINE",
"540 0 LINE",
"691 710 LINE",
"671 710 LINE",
"599 373 LINE",
"132 373 LINE",
"204 710 LINE",
"184 710 LINE"
);
}
);
width = 701;
},
{
anchors = (
{
name = top;
position = "{447, 708}";
}
);
background = {
paths = (
{
closed = 1;
nodes = (
"4 0 LINE",
"168 0 LINE",
"230 291 LINE",
"487 291 LINE",
"425 0 LINE",
"589 0 LINE",
"740 710 LINE",
"576 710 LINE",
"517 435 LINE",
"260 435 LINE",
"319 710 LINE",
"155 710 LINE"
);
}
);
};
layerId = "1781503A-446A-42BE-9797-0213F9F6A36C";
paths = (
{
closed = 1;
nodes = (
"4 0 LINE",
"168 0 LINE",
"230 291 LINE",
"487 291 LINE",
"425 0 LINE",
"589 0 LINE",
"740 710 LINE",
"576 710 LINE",
"517 435 LINE",
"260 435 LINE",
"319 710 LINE",
"155 710 LINE"
);
}
);
width = 721;
}
);
leftKerningGroup = I;
rightKerningGroup = I;
unicode = 0048;
},
{
glyphname = Hbar;
lastChange = "2016-07-06 18:38:26 +0000";
layers = (
{
background = {
paths = (
{
closed = 1;
nodes = (
"107 554 LINE",
"709 554 LINE",
"713 574 LINE",
"112 574 LINE"
);
},
{
closed = 1;
nodes = (
"37 0 LINE",
"57 0 LINE",
"132 353 LINE",
"599 353 LINE",
"524 0 LINE",
"544 0 LINE",
"695 710 LINE",
"675 710 LINE",
"603 373 LINE",
"136 373 LINE",
"208 710 LINE",
"188 710 LINE"
);
}
);
};
layerId = UUID0;
paths = (
{
closed = 1;
nodes = (
"107 554 LINE",
"709 554 LINE",
"713 574 LINE",
"112 574 LINE"
);
},
{
closed = 1;
nodes = (
"37 0 LINE",
"57 0 LINE",
"132 353 LINE",
"599 353 LINE",
"524 0 LINE",
"544 0 LINE",
"695 710 LINE",
"675 710 LINE",
"603 373 LINE",
"136 373 LINE",
"208 710 LINE",
"188 710 LINE"
);
}
);
width = 709;
},
{
background = {
paths = (
{
closed = 1;
nodes = (
"75 541 LINE",
"755 541 LINE",
"771 617 LINE",
"92 617 LINE"
);
},
{
closed = 1;
nodes = (
"8 0 LINE",
"172 0 LINE",
"234 291 LINE",
"491 291 LINE",
"429 0 LINE",
"593 0 LINE",
"744 710 LINE",
"580 710 LINE",
"521 435 LINE",
"264 435 LINE",
"323 710 LINE",
"159 710 LINE"
);
}
);
};
layerId = "1781503A-446A-42BE-9797-0213F9F6A36C";
paths = (
{
closed = 1;
nodes = (
"75 541 LINE",
"755 541 LINE",
"771 617 LINE",
"92 617 LINE"
);
},
{
closed = 1;
nodes = (
"8 0 LINE",
"172 0 LINE",
"234 291 LINE",
"491 291 LINE",
"429 0 LINE",
"593 0 LINE",
"744 710 LINE",
"580 710 LINE",
"521 435 LINE",
"264 435 LINE",
"323 710 LINE",
"159 710 LINE"
);
}
);
width = 727;
}
);
leftKerningGroup = I;
rightKerningGroup = I;
unicode = 0126;
},
{
glyphname = I;
lastChange = "2016-07-18 16:10:59 +0000";
layers = (
{
anchors = (
{
name = bottom;
position = "{43, 0}";
},
{
name = ogonek;
position = "{138, 10}";
},
{
name = top;
position = "{194, 707}";
},
{
name = topleft;
position = "{116, 710}";
}
);
background = {
paths = (
{
closed = 1;
nodes = (
"33 0 LINE",
"53 0 LINE",
"204 709 LINE",
"184 709 LINE"
);
}
);
};
layerId = UUID0;
paths = (
{
closed = 1;
nodes = (
"33 0 LINE",
"53 0 LINE",
"204 709 LINE",
"184 709 LINE"
);
}
);
width = 214;
},
{
anchors = (
{
name = bottom;
position = "{89, 0}";
},
{
name = top;
position = "{233, 708}";
}
);
background = {
paths = (
{
closed = 1;
nodes = (
"4 0 LINE",
"168 0 LINE",
"319 710 LINE",
"155 710 LINE"
);
}
);
};
layerId = "1781503A-446A-42BE-9797-0213F9F6A36C";
paths = (
{
closed = 1;
nodes = (
"4 0 LINE",
"168 0 LINE",
"319 710 LINE",
"155 710 LINE"
);
}
);
width = 300;
}
);
leftKerningGroup = I;
rightKerningGroup = I;
unicode = 0049;
},
{
glyphname = J;
lastChange = "2016-07-06 18:38:26 +0000";
layers = (
{
anchors = (
{
name = top;
position = "{448, 707}";
}
);
background = {
paths = (
{
closed = 1;
nodes = (
"283 -11 OFFCURVE",
"335 133 OFFCURVE",
"381 349 CURVE SMOOTH",
"458 709 LINE",
"438 709 LINE",
"361 349 LINE SMOOTH",
"316 137 OFFCURVE",
"270 9 OFFCURVE",
"109 9 CURVE SMOOTH",
"55 9 OFFCURVE",
"12 23 OFFCURVE",
"-18 49 CURVE",
"-32 33 LINE",
"2 4 OFFCURVE",
"47 -11 OFFCURVE",
"105 -11 CURVE SMOOTH"
);
}
);
};
layerId = UUID0;
paths = (
{
closed = 1;
nodes = (
"283 -11 OFFCURVE",
"335 133 OFFCURVE",
"381 349 CURVE SMOOTH",
"458 709 LINE",
"438 709 LINE",
"361 349 LINE SMOOTH",
"316 137 OFFCURVE",
"270 9 OFFCURVE",
"109 9 CURVE SMOOTH",
"55 9 OFFCURVE",
"12 23 OFFCURVE",
"-18 49 CURVE",
"-32 33 LINE",
"2 4 OFFCURVE",
"47 -11 OFFCURVE",
"105 -11 CURVE SMOOTH"
);
}
);
width = 458;
},
{
anchors = (
{
name = top;
position = "{428, 708}";
}
);
background = {
paths = (
{
closed = 1;
nodes = (
"328 -11 OFFCURVE",
"388 133 OFFCURVE",
"434 349 CURVE SMOOTH",
"511 710 LINE",
"346 710 LINE",
"269 349 LINE SMOOTH",
"237 200 OFFCURVE",
"212 135 OFFCURVE",
"123 135 CURVE SMOOTH",
"69 135 OFFCURVE",
"27 157 OFFCURVE",
"18 167 CURVE",
"-45 33 LINE",
"-11 4 OFFCURVE",
"34 -11 OFFCURVE",
"92 -11 CURVE SMOOTH"
);
}
);
};
layerId = "1781503A-446A-42BE-9797-0213F9F6A36C";
paths = (
{
closed = 1;
nodes = (
"328 -11 OFFCURVE",
"388 133 OFFCURVE",
"434 349 CURVE SMOOTH",
"511 710 LINE",
"346 710 LINE",
"269 349 LINE SMOOTH",
"237 200 OFFCURVE",
"212 135 OFFCURVE",
"123 135 CURVE SMOOTH",
"69 135 OFFCURVE",
"27 157 OFFCURVE",
"18 167 CURVE",
"-45 33 LINE",
"-11 4 OFFCURVE",
"34 -11 OFFCURVE",
"92 -11 CURVE SMOOTH"
);
}
);
width = 483;
}
);
leftKerningGroup = J;
rightKerningGroup = J;
unicode = 004A;
},
{
glyphname = K;
lastChange = "2016-07-06 18:38:26 +0000";
layers = (
{
anchors = (
{
name = bottom;
position = "{253, 0}";
}
);
background = {
paths = (
{
closed = 1;
nodes = (
"33 0 LINE",
"53 0 LINE",
"100 221 LINE",
"289 386 LINE",
"497 0 LINE",
"523 0 LINE",
"307 400 LINE",
"661 710 LINE",
"632 710 LINE",
"106 249 LINE",
"204 709 LINE",
"184 709 LINE"
);
}
);
};
layerId = UUID0;
paths = (
{
closed = 1;
nodes = (
"33 0 LINE",
"53 0 LINE",
"100 221 LINE",
"289 386 LINE",
"497 0 LINE",
"523 0 LINE",
"307 400 LINE",
"661 710 LINE",
"632 710 LINE",
"106 249 LINE",
"204 709 LINE",
"184 709 LINE"
);
}
);
width = 591;
},
{
anchors = (
{
name = bottom;
position = "{279, 0}";
}
);
background = {
paths = (
{
closed = 1;
nodes = (
"4 0 LINE",
"168 0 LINE",
"212 209 LINE",
"293 286 LINE",
"416 0 LINE",
"604 0 LINE",
"420 393 LINE",
"739 710 LINE",
"554 710 LINE",
"254 404 LINE",
"319 710 LINE",
"155 710 LINE"
);
}
);
};
layerId = "1781503A-446A-42BE-9797-0213F9F6A36C";
paths = (
{
closed = 1;
nodes = (
"4 0 LINE",
"168 0 LINE",
"212 209 LINE",
"293 286 LINE",
"416 0 LINE",
"604 0 LINE",
"420 393 LINE",
"739 710 LINE",
"554 710 LINE",
"254 404 LINE",
"319 710 LINE",
"155 710 LINE"
);
}
);
width = 653;
}
);
leftKerningGroup = I;
rightKerningGroup = K;
unicode = 004B;
},
{
glyphname = L;
lastChange = "2016-07-06 18:38:26 +0000";
layers = (
{
anchors = (
{
name = bottom;
position = "{270, 0}";
},
{
name = top;
position = "{294, 707}";
}
);
background = {
paths = (
{
closed = 1;
nodes = (
"33 0 LINE",
"476 0 LINE",
"480 20 LINE",
"57 20 LINE",
"204 710 LINE",
"184 710 LINE"
);
}
);
};
layerId = UUID0;
paths = (
{
closed = 1;
nodes = (
"33 0 LINE",
"476 0 LINE",
"480 20 LINE",
"57 20 LINE",
"204 710 LINE",
"184 710 LINE"
);
}
);
width = 552;
},
{
anchors = (
{
name = bottom;
position = "{250, 0}";
},
{
name = top;
position = "{233, 708}";
}
);
background = {
paths = (
{
closed = 1;
nodes = (
"4 0 LINE",
"489 0 LINE",
"519 144 LINE",
"198 144 LINE",
"319 710 LINE",
"155 710 LINE"
);
}
);
};
layerId = "1781503A-446A-42BE-9797-0213F9F6A36C";
paths = (
{
closed = 1;
nodes = (
"4 0 LINE",
"489 0 LINE",
"519 144 LINE",
"198 144 LINE",
"319 710 LINE",
"155 710 LINE"
);
}
);
width = 563;
}
);
leftKerningGroup = I;
rightKerningGroup = L;
unicode = 004C;
},
{
glyphname = Lslash;
lastChange = "2016-07-06 18:38:26 +0000";
layers = (
{
background = {
paths = (
{
closed = 1;
nodes = (
"28 221 LINE",
"360 506 LINE",
"350 521 LINE",
"18 236 LINE"
);
},
{
closed = 1;
nodes = (
"41 0 LINE",
"484 0 LINE",
"488 20 LINE",
"65 20 LINE",
"212 710 LINE",
"192 710 LINE"
);
}
);
};
layerId = UUID0;
paths = (
{
closed = 1;
nodes = (
"28 221 LINE",
"360 506 LINE",
"350 521 LINE",
"18 236 LINE"
);
},
{
closed = 1;
nodes = (
"41 0 LINE",
"484 0 LINE",
"488 20 LINE",
"65 20 LINE",
"212 710 LINE",
"192 710 LINE"
);
}
);
width = 560;
},
{
background = {
paths = (
{
closed = 1;
nodes = (
"19 246 LINE",
"390 440 LINE",
"371 526 LINE",
"0 332 LINE"
);
},
{
closed = 1;
nodes = (
"13 0 LINE",
"498 0 LINE",
"528 144 LINE",
"207 144 LINE",
"328 710 LINE",
"164 710 LINE"
);
}
);
};
layerId = "1781503A-446A-42BE-9797-0213F9F6A36C";
paths = (
{
closed = 1;
nodes = (
"19 246 LINE",
"390 440 LINE",
"371 526 LINE",
"0 332 LINE"
);
},
{
closed = 1;
nodes = (
"13 0 LINE",
"498 0 LINE",
"528 144 LINE",
"207 144 LINE",
"328 710 LINE",
"164 710 LINE"
);
}
);
width = 571;
}
);
leftKerningGroup = I;
rightKerningGroup = L;
unicode = 0141;
},
{
glyphname = M;
lastChange = "2016-07-06 18:38:26 +0000";
layers = (
{
background = {
paths = (
{
closed = 1;
nodes = (
"33 0 LINE",
"53 0 LINE",
"195 666 LINE",
"381 140 LINE",
"397 140 LINE",
"806 666 LINE",
"665 0 LINE",
"685 0 LINE",
"836 710 LINE",
"820 710 LINE",
"394 164 LINE",
"200 710 LINE",
"184 710 LINE"
);
}
);
};
layerId = UUID0;
paths = (
{
closed = 1;
nodes = (
"33 0 LINE",
"53 0 LINE",
"195 666 LINE",
"381 140 LINE",
"397 140 LINE",
"806 666 LINE",
"665 0 LINE",
"685 0 LINE",
"836 710 LINE",
"820 710 LINE",
"394 164 LINE",
"200 710 LINE",
"184 710 LINE"
);
}
);
width = 846;
},
{
background = {
paths = (
{
closed = 1;
nodes = (
"4 0 LINE",
"168 0 LINE",
"259 425 LINE",
"329 116 LINE",
"417 116 LINE",
"620 425 LINE",
"529 0 LINE",
"694 0 LINE",
"845 710 LINE",
"667 710 LINE",
"421 339 LINE",
"333 710 LINE",
"155 710 LINE"
);
}
);
};
layerId = "1781503A-446A-42BE-9797-0213F9F6A36C";
paths = (
{
closed = 1;
nodes = (
"4 0 LINE",
"168 0 LINE",
"259 425 LINE",
"329 116 LINE",
"417 116 LINE",
"620 425 LINE",
"529 0 LINE",
"694 0 LINE",
"845 710 LINE",
"667 710 LINE",
"421 339 LINE",
"333 710 LINE",
"155 710 LINE"
);
}
);
width = 825;
}
);
leftKerningGroup = I;
rightKerningGroup = I;
unicode = 004D;
},
{
glyphname = N;
lastChange = "2016-07-06 18:38:26 +0000";
layers = (
{
anchors = (
{
name = bottom;
position = "{319, 0}";
},
{
name = top;
position = "{470, 707}";
}
);
background = {
paths = (
{
closed = 1;
nodes = (
"33 0 LINE",
"53 0 LINE",
"196 671 LINE",
"560 0 LINE",
"582 0 LINE",
"733 709 LINE",
"713 709 LINE",
"569 29 LINE",
"199 710 LINE",
"184 710 LINE"
);
}
);
};
layerId = UUID0;
paths = (
{
closed = 1;
nodes = (
"33 0 LINE",
"53 0 LINE",
"196 671 LINE",
"560 0 LINE",
"582 0 LINE",
"733 709 LINE",
"713 709 LINE",
"569 29 LINE",
"199 710 LINE",
"184 710 LINE"
);
}
);
width = 743;
},
{
anchors = (
{
name = bottom;
position = "{305, 0}";
},
{
name = top;
position = "{448, 708}";
}
);
background = {
paths = (
{
closed = 1;
nodes = (
"4 0 LINE",
"168 0 LINE",
"254 406 LINE",
"467 0 LINE",
"597 0 LINE",
"748 710 LINE",
"584 710 LINE",
"496 293 LINE",
"283 710 LINE",
"155 710 LINE"
);
}
);
};
layerId = "1781503A-446A-42BE-9797-0213F9F6A36C";
paths = (
{
closed = 1;
nodes = (
"4 0 LINE",
"168 0 LINE",
"254 406 LINE",
"467 0 LINE",
"597 0 LINE",
"748 710 LINE",
"584 710 LINE",
"496 293 LINE",
"283 710 LINE",
"155 710 LINE"
);
}
);
width = 729;
}
);
leftKerningGroup = I;
rightKerningGroup = I;
unicode = 004E;
},
{
glyphname = Eng;
lastChange = "2016-07-06 18:38:26 +0000";
layers = (
{
background = {
paths = (
{
closed = 1;
nodes = (
"479 -170 OFFCURVE",
"558 -114 OFFCURVE",
"575 -36 CURVE SMOOTH",
"733 709 LINE",
"713 709 LINE",
"568 29 LINE",
"199 710 LINE",
"184 710 LINE",
"33 0 LINE",
"53 0 LINE",
"196 671 LINE",
"562 -4 LINE",
"555 -36 LINE SMOOTH",
"541 -100 OFFCURVE",
"475 -150 OFFCURVE",
"423 -150 CURVE SMOOTH",
"396 -150 OFFCURVE",
"368 -145 OFFCURVE",
"349 -124 CURVE",
"331 -136 LINE",
"351 -162 OFFCURVE",
"382 -170 OFFCURVE",
"419 -170 CURVE SMOOTH"
);
}
);
};
layerId = UUID0;
paths = (
{
closed = 1;
nodes = (
"479 -170 OFFCURVE",
"558 -114 OFFCURVE",
"575 -36 CURVE SMOOTH",
"733 709 LINE",
"713 709 LINE",
"568 29 LINE",
"199 710 LINE",
"184 710 LINE",
"33 0 LINE",
"53 0 LINE",
"196 671 LINE",
"562 -4 LINE",
"555 -36 LINE SMOOTH",
"541 -100 OFFCURVE",
"475 -150 OFFCURVE",
"423 -150 CURVE SMOOTH",
"396 -150 OFFCURVE",
"368 -145 OFFCURVE",
"349 -124 CURVE",
"331 -136 LINE",
"351 -162 OFFCURVE",
"382 -170 OFFCURVE",
"419 -170 CURVE SMOOTH"
);
}
);
width = 744;
},
{
background = {
paths = (
{
closed = 1;
nodes = (
"455 -202 OFFCURVE",
"554 -123 OFFCURVE",
"580 -2 CURVE SMOOTH",
"732 709 LINE",
"568 709 LINE",
"481 301 LINE",
"281 710 LINE",
"155 710 LINE",
"4 0 LINE",
"168 0 LINE",
"253 401 LINE",
"429 35 LINE",
"419 -9 LINE SMOOTH",
"412 -42 OFFCURVE",
"388 -64 OFFCURVE",
"361 -64 CURVE SMOOTH",
"342 -64 OFFCURVE",
"325 -57 OFFCURVE",
"316 -43 CURVE",
"226 -152 LINE",
"257 -185 OFFCURVE",
"301 -202 OFFCURVE",
"351 -202 CURVE SMOOTH"
);
}
);
};
layerId = "1781503A-446A-42BE-9797-0213F9F6A36C";
paths = (
{
closed = 1;
nodes = (
"455 -202 OFFCURVE",
"554 -123 OFFCURVE",
"580 -2 CURVE SMOOTH",
"732 709 LINE",
"568 709 LINE",
"481 301 LINE",
"281 710 LINE",
"155 710 LINE",
"4 0 LINE",
"168 0 LINE",
"253 401 LINE",
"429 35 LINE",
"419 -9 LINE SMOOTH",
"412 -42 OFFCURVE",
"388 -64 OFFCURVE",
"361 -64 CURVE SMOOTH",
"342 -64 OFFCURVE",
"325 -57 OFFCURVE",
"316 -43 CURVE",
"226 -152 LINE",
"257 -185 OFFCURVE",
"301 -202 OFFCURVE",
"351 -202 CURVE SMOOTH"
);
}
);
width = 713;
}
);
leftKerningGroup = I;
rightKerningGroup = I;
unicode = 014A;
},
{
glyphname = O;
lastChange = "2016-07-06 18:38:26 +0000";
layers = (
{
anchors = (
{
name = bottom;
position = "{300, 0}";
},
{
name = top;
position = "{450, 707}";
}
);
background = {
paths = (
{
closed = 1;
nodes = (
"500 -5 OFFCURVE",
"697 204 OFFCURVE",
"697 421 CURVE SMOOTH",
"697 571 OFFCURVE",
"609 715 OFFCURVE",
"451 715 CURVE SMOOTH",
"249 715 OFFCURVE",
"52 505 OFFCURVE",
"52 287 CURVE SMOOTH",
"52 135 OFFCURVE",
"140 -5 OFFCURVE",
"298 -5 CURVE SMOOTH"
);
},
{
closed = 1;
nodes = (
"158 15 OFFCURVE",
"72 143 OFFCURVE",
"72 290 CURVE SMOOTH",
"72 484 OFFCURVE",
"247 695 OFFCURVE",
"447 695 CURVE SMOOTH",
"589 695 OFFCURVE",
"677 566 OFFCURVE",
"677 419 CURVE SMOOTH",
"677 227 OFFCURVE",
"503 15 OFFCURVE",
"303 15 CURVE SMOOTH"
);
}
);
};
layerId = UUID0;
paths = (
{
closed = 1;
nodes = (
"500 -5 OFFCURVE",
"697 204 OFFCURVE",
"697 421 CURVE SMOOTH",
"697 571 OFFCURVE",
"609 715 OFFCURVE",
"451 715 CURVE SMOOTH",
"249 715 OFFCURVE",
"52 505 OFFCURVE",
"52 287 CURVE SMOOTH",
"52 135 OFFCURVE",
"140 -5 OFFCURVE",
"298 -5 CURVE SMOOTH"
);
},
{
closed = 1;
nodes = (
"158 15 OFFCURVE",
"72 143 OFFCURVE",
"72 290 CURVE SMOOTH",
"72 484 OFFCURVE",
"247 695 OFFCURVE",
"447 695 CURVE SMOOTH",
"589 695 OFFCURVE",
"677 566 OFFCURVE",
"677 419 CURVE SMOOTH",
"677 227 OFFCURVE",
"503 15 OFFCURVE",
"303 15 CURVE SMOOTH"
);
}
);
width = 726;
},
{
anchors = (
{
name = bottom;
position = "{315, 0}";
},
{
name = top;
position = "{456, 708}";
}
);
background = {
paths = (
{
closed = 1;
nodes = (
"524 -6 OFFCURVE",
"723 204 OFFCURVE",
"723 417 CURVE SMOOTH",
"723 570 OFFCURVE",
"629 714 OFFCURVE",
"457 714 CURVE SMOOTH",
"233 714 OFFCURVE",
"33 506 OFFCURVE",
"33 291 CURVE SMOOTH",
"33 136 OFFCURVE",
"128 -6 OFFCURVE",
"301 -6 CURVE SMOOTH"
);
},
{
closed = 1;
nodes = (
"242 140 OFFCURVE",
"201 217 OFFCURVE",
"201 304 CURVE SMOOTH",
"201 424 OFFCURVE",
"286 568 OFFCURVE",
"423 568 CURVE SMOOTH",
"514 568 OFFCURVE",
"555 493 OFFCURVE",
"555 406 CURVE SMOOTH",
"555 287 OFFCURVE",
"471 140 OFFCURVE",
"333 140 CURVE SMOOTH"
);
}
);
};
layerId = "1781503A-446A-42BE-9797-0213F9F6A36C";
paths = (
{
closed = 1;
nodes = (
"524 -6 OFFCURVE",
"723 204 OFFCURVE",
"723 417 CURVE SMOOTH",
"723 570 OFFCURVE",
"629 714 OFFCURVE",
"457 714 CURVE SMOOTH",
"233 714 OFFCURVE",
"33 506 OFFCURVE",
"33 291 CURVE SMOOTH",
"33 136 OFFCURVE",
"128 -6 OFFCURVE",
"301 -6 CURVE SMOOTH"
);
},
{
closed = 1;
nodes = (
"242 140 OFFCURVE",
"201 217 OFFCURVE",
"201 304 CURVE SMOOTH",
"201 424 OFFCURVE",
"286 568 OFFCURVE",
"423 568 CURVE SMOOTH",
"514 568 OFFCURVE",
"555 493 OFFCURVE",
"555 406 CURVE SMOOTH",
"555 287 OFFCURVE",
"471 140 OFFCURVE",
"333 140 CURVE SMOOTH"
);
}
);
width = 733;
}
);
leftKerningGroup = O;
rightKerningGroup = O;
unicode = 004F;
},
{
glyphname = OE;
lastChange = "2016-07-06 18:38:26 +0000";
layers = (
{
background = {
paths = (
{
closed = 1;
nodes = (
"437 -5 OFFCURVE",
"571 100 OFFCURVE",
"643 234 CURVE",
"593 0 LINE",
"1036 0 LINE",
"1040 20 LINE",
"618 20 LINE",
"688 353 LINE",
"1051 353 LINE",
"1056 373 LINE",
"693 373 LINE",
"760 690 LINE",
"1174 690 LINE",
"1179 710 LINE",
"744 710 LINE",
"694 475 LINE",
"680 606 OFFCURVE",
"595 715 OFFCURVE",
"452 715 CURVE SMOOTH",
"249 715 OFFCURVE",
"52 505 OFFCURVE",
"52 288 CURVE SMOOTH",
"52 135 OFFCURVE",
"142 -5 OFFCURVE",
"301 -5 CURVE SMOOTH"
);
},
{
closed = 1;
nodes = (
"158 15 OFFCURVE",
"72 143 OFFCURVE",
"72 290 CURVE SMOOTH",
"72 484 OFFCURVE",
"248 695 OFFCURVE",
"448 695 CURVE SMOOTH",
"589 695 OFFCURVE",
"677 566 OFFCURVE",
"677 419 CURVE SMOOTH",
"677 227 OFFCURVE",
"503 15 OFFCURVE",
"303 15 CURVE SMOOTH"
);
}
);
};
layerId = UUID0;
paths = (
{
closed = 1;
nodes = (
"437 -5 OFFCURVE",
"571 100 OFFCURVE",
"643 234 CURVE",
"593 0 LINE",
"1036 0 LINE",
"1040 20 LINE",
"618 20 LINE",
"688 353 LINE",
"1051 353 LINE",
"1056 373 LINE",
"693 373 LINE",
"760 690 LINE",
"1174 690 LINE",
"1179 710 LINE",
"744 710 LINE",
"694 475 LINE",
"680 606 OFFCURVE",
"595 715 OFFCURVE",
"452 715 CURVE SMOOTH",
"249 715 OFFCURVE",
"52 505 OFFCURVE",
"52 288 CURVE SMOOTH",
"52 135 OFFCURVE",
"142 -5 OFFCURVE",
"301 -5 CURVE SMOOTH"
);
},
{
closed = 1;
nodes = (
"158 15 OFFCURVE",
"72 143 OFFCURVE",
"72 290 CURVE SMOOTH",
"72 484 OFFCURVE",
"248 695 OFFCURVE",
"448 695 CURVE SMOOTH",
"589 695 OFFCURVE",
"677 566 OFFCURVE",
"677 419 CURVE SMOOTH",
"677 227 OFFCURVE",
"503 15 OFFCURVE",
"303 15 CURVE SMOOTH"
);
}
);
width = 1149;
},
{
background = {
paths = (
{
closed = 1;
nodes = (
"350 -5 OFFCURVE",
"414 28 OFFCURVE",
"467 75 CURVE",
"451 0 LINE",
"910 0 LINE",
"941 144 LINE",
"645 144 LINE",
"677 290 LINE",
"912 290 LINE",
"943 433 LINE",
"707 433 LINE",
"736 566 LINE",
"1022 566 LINE",
"1053 710 LINE",
"602 710 LINE",
"587 636 LINE",
"554 682 OFFCURVE",
"506 715 OFFCURVE",
"443 715 CURVE SMOOTH",
"228 715 OFFCURVE",
"33 505 OFFCURVE",
"33 288 CURVE SMOOTH",
"33 135 OFFCURVE",
"123 -5 OFFCURVE",
"286 -5 CURVE SMOOTH"
);
},
{
closed = 1;
nodes = (
"238 141 OFFCURVE",
"200 215 OFFCURVE",
"200 300 CURVE SMOOTH",
"200 420 OFFCURVE",
"283 569 OFFCURVE",
"409 569 CURVE SMOOTH",
"489 569 OFFCURVE",
"527 495 OFFCURVE",
"527 410 CURVE SMOOTH",
"527 291 OFFCURVE",
"446 141 OFFCURVE",
"318 141 CURVE SMOOTH"
);
}
);
};
layerId = "1781503A-446A-42BE-9797-0213F9F6A36C";
paths = (
{
closed = 1;
nodes = (
"350 -5 OFFCURVE",
"414 28 OFFCURVE",
"467 75 CURVE",
"451 0 LINE",
"910 0 LINE",
"941 144 LINE",
"645 144 LINE",
"677 290 LINE",
"912 290 LINE",
"943 433 LINE",
"707 433 LINE",
"736 566 LINE",
"1022 566 LINE",
"1053 710 LINE",
"602 710 LINE",
"587 636 LINE",
"554 682 OFFCURVE",
"506 715 OFFCURVE",
"443 715 CURVE SMOOTH",
"228 715 OFFCURVE",
"33 505 OFFCURVE",
"33 288 CURVE SMOOTH",
"33 135 OFFCURVE",
"123 -5 OFFCURVE",
"286 -5 CURVE SMOOTH"
);
},
{
closed = 1;
nodes = (
"238 141 OFFCURVE",
"200 215 OFFCURVE",
"200 300 CURVE SMOOTH",
"200 420 OFFCURVE",
"283 569 OFFCURVE",
"409 569 CURVE SMOOTH",
"489 569 OFFCURVE",
"527 495 OFFCURVE",
"527 410 CURVE SMOOTH",
"527 291 OFFCURVE",
"446 141 OFFCURVE",
"318 141 CURVE SMOOTH"
);
}
);
width = 1006;
}
);
leftKerningGroup = O;
rightKerningGroup = E;
unicode = 0152;
},
{
glyphname = P;
lastChange = "2016-07-06 18:38:26 +0000";
layers = (
{
background = {
paths = (
{
closed = 1;
nodes = (
"33 0 LINE",
"53 0 LINE",
"112 279 LINE",
"374 279 LINE SMOOTH",
"500 279 OFFCURVE",
"608 410 OFFCURVE",
"608 533 CURVE SMOOTH",
"608 623 OFFCURVE",
"553 710 OFFCURVE",
"459 710 CURVE SMOOTH",
"184 710 LINE"
);
},
{
closed = 1;
nodes = (
"117 299 LINE",
"200 690 LINE",
"454 690 LINE SMOOTH",
"535 690 OFFCURVE",
"588 615 OFFCURVE",
"588 530 CURVE SMOOTH",
"588 424 OFFCURVE",
"496 299 OFFCURVE",
"378 299 CURVE SMOOTH"
);
}
);
};
layerId = UUID0;
paths = (
{
closed = 1;
nodes = (
"33 0 LINE",
"53 0 LINE",
"112 279 LINE",
"374 279 LINE SMOOTH",
"500 279 OFFCURVE",
"608 410 OFFCURVE",
"608 533 CURVE SMOOTH",
"608 623 OFFCURVE",
"553 710 OFFCURVE",
"459 710 CURVE SMOOTH",
"184 710 LINE"
);
},
{
closed = 1;
nodes = (
"117 299 LINE",
"200 690 LINE",
"454 690 LINE SMOOTH",
"535 690 OFFCURVE",
"588 615 OFFCURVE",
"588 530 CURVE SMOOTH",
"588 424 OFFCURVE",
"496 299 OFFCURVE",
"378 299 CURVE SMOOTH"
);
}
);
width = 595;
},
{
background = {
paths = (
{
closed = 1;
nodes = (
"4 0 LINE",
"168 0 LINE",
"216 229 LINE",
"346 229 LINE SMOOTH",
"495 229 OFFCURVE",
"620 374 OFFCURVE",
"620 510 CURVE SMOOTH",
"620 612 OFFCURVE",
"554 710 OFFCURVE",
"444 710 CURVE SMOOTH",
"155 710 LINE"
);
},
{
closed = 1;
nodes = (
"247 372 LINE",
"288 566 LINE",
"402 566 LINE SMOOTH",
"428 566 OFFCURVE",
"452 544 OFFCURVE",
"452 496 CURVE SMOOTH",
"452 420 OFFCURVE",
"407 372 OFFCURVE",
"366 372 CURVE SMOOTH"
);
}
);
};
layerId = "1781503A-446A-42BE-9797-0213F9F6A36C";
paths = (
{
closed = 1;
nodes = (
"4 0 LINE",
"168 0 LINE",
"216 229 LINE",
"346 229 LINE SMOOTH",
"495 229 OFFCURVE",
"620 374 OFFCURVE",
"620 510 CURVE SMOOTH",
"620 612 OFFCURVE",
"554 710 OFFCURVE",
"444 710 CURVE SMOOTH",
"155 710 LINE"
);
},
{
closed = 1;
nodes = (
"247 372 LINE",
"288 566 LINE",
"402 566 LINE SMOOTH",
"428 566 OFFCURVE",
"452 544 OFFCURVE",
"452 496 CURVE SMOOTH",
"452 420 OFFCURVE",
"407 372 OFFCURVE",
"366 372 CURVE SMOOTH"
);
}
);
width = 602;
}
);
leftKerningGroup = I;
unicode = 0050;
},
{
glyphname = Thorn;
lastChange = "2016-07-06 18:38:26 +0000";
layers = (
{
background = {
paths = (
{
closed = 1;
nodes = (
"33 0 LINE",
"53 0 LINE",
"80 129 LINE",
"323 129 LINE SMOOTH",
"449 129 OFFCURVE",
"557 260 OFFCURVE",
"557 383 CURVE SMOOTH",
"557 473 OFFCURVE",
"502 560 OFFCURVE",
"408 560 CURVE",
"172 560 LINE",
"204 710 LINE",
"184 710 LINE"
);
},
{
closed = 1;
nodes = (
"85 149 LINE",
"168 540 LINE",
"403 540 LINE SMOOTH",
"484 540 OFFCURVE",
"537 465 OFFCURVE",
"537 380 CURVE SMOOTH",
"537 274 OFFCURVE",
"445 149 OFFCURVE",
"327 149 CURVE"
);
}
);
};
layerId = UUID0;
paths = (
{
closed = 1;
nodes = (
"33 0 LINE",
"53 0 LINE",
"80 129 LINE",
"323 129 LINE SMOOTH",
"449 129 OFFCURVE",
"557 260 OFFCURVE",
"557 383 CURVE SMOOTH",
"557 473 OFFCURVE",
"502 560 OFFCURVE",
"408 560 CURVE",
"172 560 LINE",
"204 710 LINE",
"184 710 LINE"
);
},
{
closed = 1;
nodes = (
"85 149 LINE",
"168 540 LINE",
"403 540 LINE SMOOTH",
"484 540 OFFCURVE",
"537 465 OFFCURVE",
"537 380 CURVE SMOOTH",
"537 274 OFFCURVE",
"445 149 OFFCURVE",
"327 149 CURVE"
);
}
);
width = 574;
},
{
background = {
paths = (
{
closed = 1;
nodes = (
"4 0 LINE",
"168 0 LINE",
"190 106 LINE",
"305 106 LINE SMOOTH",
"454 106 OFFCURVE",
"579 250 OFFCURVE",
"579 387 CURVE SMOOTH",
"579 489 OFFCURVE",
"513 586 OFFCURVE",
"402 586 CURVE",
"293 586 LINE",
"319 710 LINE",
"155 710 LINE"
);
},
{
closed = 1;
nodes = (
"221 250 LINE",
"262 443 LINE",
"363 443 LINE SMOOTH",
"391 443 OFFCURVE",
"413 414 OFFCURVE",
"413 370 CURVE SMOOTH",
"413 306 OFFCURVE",
"368 250 OFFCURVE",
"327 250 CURVE"
);
}
);
};
layerId = "1781503A-446A-42BE-9797-0213F9F6A36C";
paths = (
{
closed = 1;
nodes = (
"4 0 LINE",
"168 0 LINE",
"190 106 LINE",
"305 106 LINE SMOOTH",
"454 106 OFFCURVE",
"579 250 OFFCURVE",
"579 387 CURVE SMOOTH",
"579 489 OFFCURVE",
"513 586 OFFCURVE",
"402 586 CURVE",
"293 586 LINE",
"319 710 LINE",
"155 710 LINE"
);
},
{
closed = 1;
nodes = (
"221 250 LINE",
"262 443 LINE",
"363 443 LINE SMOOTH",
"391 443 OFFCURVE",
"413 414 OFFCURVE",
"413 370 CURVE SMOOTH",
"413 306 OFFCURVE",
"368 250 OFFCURVE",
"327 250 CURVE"
);
}
);
width = 584;
}
);
leftKerningGroup = I;
unicode = 00DE;
},
{
glyphname = Q;
lastChange = "2016-07-06 18:38:26 +0000";
layers = (
{
background = {
paths = (
{
closed = 1;
nodes = (
"501 -5 OFFCURVE",
"697 204 OFFCURVE",
"697 421 CURVE SMOOTH",
"697 571 OFFCURVE",
"610 715 OFFCURVE",
"452 715 CURVE SMOOTH",
"249 715 OFFCURVE",
"52 505 OFFCURVE",
"52 287 CURVE SMOOTH",
"52 135 OFFCURVE",
"141 -5 OFFCURVE",
"299 -5 CURVE SMOOTH"
);
},
{
closed = 1;
nodes = (
"158 15 OFFCURVE",
"72 143 OFFCURVE",
"72 290 CURVE SMOOTH",
"72 484 OFFCURVE",
"248 695 OFFCURVE",
"448 695 CURVE SMOOTH",
"589 695 OFFCURVE",
"677 566 OFFCURVE",
"677 419 CURVE SMOOTH",
"677 227 OFFCURVE",
"503 15 OFFCURVE",
"303 15 CURVE SMOOTH"
);
},
{
closed = 1;
nodes = (
"554 0 LINE",
"579 0 LINE",
"477 186 LINE",
"452 186 LINE"
);
}
);
};
layerId = UUID0;
paths = (
{
closed = 1;
nodes = (
"501 -5 OFFCURVE",
"697 204 OFFCURVE",
"697 421 CURVE SMOOTH",
"697 571 OFFCURVE",
"610 715 OFFCURVE",
"452 715 CURVE SMOOTH",
"249 715 OFFCURVE",
"52 505 OFFCURVE",
"52 287 CURVE SMOOTH",
"52 135 OFFCURVE",
"141 -5 OFFCURVE",
"299 -5 CURVE SMOOTH"
);
},
{
closed = 1;
nodes = (
"158 15 OFFCURVE",
"72 143 OFFCURVE",
"72 290 CURVE SMOOTH",
"72 484 OFFCURVE",
"248 695 OFFCURVE",
"448 695 CURVE SMOOTH",
"589 695 OFFCURVE",
"677 566 OFFCURVE",
"677 419 CURVE SMOOTH",
"677 227 OFFCURVE",
"503 15 OFFCURVE",
"303 15 CURVE SMOOTH"
);
},
{
closed = 1;
nodes = (
"554 0 LINE",
"579 0 LINE",
"477 186 LINE",
"452 186 LINE"
);
}
);
width = 725;
},
{
background = {
paths = (
{
closed = 1;
nodes = (
"524 -5 OFFCURVE",
"722 204 OFFCURVE",
"722 417 CURVE SMOOTH",
"722 570 OFFCURVE",
"629 715 OFFCURVE",
"456 715 CURVE SMOOTH",
"233 715 OFFCURVE",
"32 506 OFFCURVE",
"32 291 CURVE SMOOTH",
"32 136 OFFCURVE",
"128 -5 OFFCURVE",
"300 -5 CURVE SMOOTH"
);
},
{
closed = 1;
nodes = (
"242 141 OFFCURVE",
"200 218 OFFCURVE",
"200 304 CURVE SMOOTH",
"200 424 OFFCURVE",
"286 569 OFFCURVE",
"423 569 CURVE SMOOTH",
"513 569 OFFCURVE",
"555 493 OFFCURVE",
"555 406 CURVE SMOOTH",
"555 287 OFFCURVE",
"471 141 OFFCURVE",
"333 141 CURVE SMOOTH"
);
},
{
closed = 1;
nodes = (
"497 0 LINE",
"652 0 LINE",
"464 280 LINE",
"311 280 LINE"
);
}
);
};
layerId = "1781503A-446A-42BE-9797-0213F9F6A36C";
paths = (
{
closed = 1;
nodes = (
"524 -5 OFFCURVE",
"722 204 OFFCURVE",
"722 417 CURVE SMOOTH",
"722 570 OFFCURVE",
"629 715 OFFCURVE",
"456 715 CURVE SMOOTH",
"233 715 OFFCURVE",
"32 506 OFFCURVE",
"32 291 CURVE SMOOTH",
"32 136 OFFCURVE",
"128 -5 OFFCURVE",
"300 -5 CURVE SMOOTH"
);
},
{
closed = 1;
nodes = (
"242 141 OFFCURVE",
"200 218 OFFCURVE",
"200 304 CURVE SMOOTH",
"200 424 OFFCURVE",
"286 569 OFFCURVE",
"423 569 CURVE SMOOTH",
"513 569 OFFCURVE",
"555 493 OFFCURVE",
"555 406 CURVE SMOOTH",
"555 287 OFFCURVE",
"471 141 OFFCURVE",
"333 141 CURVE SMOOTH"
);
},
{
closed = 1;
nodes = (
"497 0 LINE",
"652 0 LINE",
"464 280 LINE",
"311 280 LINE"
);
}
);
width = 732;
}
);
leftKerningGroup = O;
rightKerningGroup = O;
unicode = 0051;
},
{
glyphname = R;
lastChange = "2016-07-06 18:38:26 +0000";
layers = (
{
anchors = (
{
name = bottom;
position = "{250, 0}";
},
{
name = top;
position = "{400, 710}";
}
);
background = {
paths = (
{
closed = 1;
nodes = (
"53 0 LINE",
"112 279 LINE",
"362 279 LINE",
"473 0 LINE",
"497 0 LINE",
"386 279 LINE",
"506 288 OFFCURVE",
"608 411 OFFCURVE",
"608 533 CURVE SMOOTH",
"608 623 OFFCURVE",
"553 710 OFFCURVE",
"459 710 CURVE SMOOTH",
"184 710 LINE",
"33 0 LINE"
);
},
{
closed = 1;
nodes = (
"117 299 LINE",
"200 690 LINE",
"454 690 LINE SMOOTH",
"535 690 OFFCURVE",
"588 615 OFFCURVE",
"588 530 CURVE SMOOTH",
"588 422 OFFCURVE",
"495 299 OFFCURVE",
"378 299 CURVE SMOOTH"
);
}
);
};
layerId = UUID0;
paths = (
{
closed = 1;
nodes = (
"53 0 LINE",
"112 279 LINE",
"362 279 LINE",
"473 0 LINE",
"497 0 LINE",
"386 279 LINE",
"506 288 OFFCURVE",
"608 411 OFFCURVE",
"608 533 CURVE SMOOTH",
"608 623 OFFCURVE",
"553 710 OFFCURVE",
"459 710 CURVE SMOOTH",
"184 710 LINE",
"33 0 LINE"
);
},
{
closed = 1;
nodes = (
"117 299 LINE",
"200 690 LINE",
"454 690 LINE SMOOTH",
"535 690 OFFCURVE",
"588 615 OFFCURVE",
"588 530 CURVE SMOOTH",
"588 422 OFFCURVE",
"495 299 OFFCURVE",
"378 299 CURVE SMOOTH"
);
}
);
width = 616;
},
{
anchors = (
{
name = bottom;
position = "{260, 0}";
},
{
name = top;
position = "{411, 710}";
}
);
background = {
paths = (
{
closed = 1;
nodes = (
"168 0 LINE",
"216 229 LINE",
"309 229 LINE",
"387 0 LINE",
"572 0 LINE",
"481 264 LINE",
"572 312 OFFCURVE",
"636 412 OFFCURVE",
"636 510 CURVE SMOOTH",
"636 612 OFFCURVE",
"571 710 OFFCURVE",
"460 710 CURVE SMOOTH",
"155 710 LINE",
"4 0 LINE"
);
},
{
closed = 1;
nodes = (
"247 372 LINE",
"288 566 LINE",
"419 566 LINE SMOOTH",
"445 566 OFFCURVE",
"467 537 OFFCURVE",
"467 493 CURVE SMOOTH",
"467 427 OFFCURVE",
"422 372 OFFCURVE",
"383 372 CURVE SMOOTH"
);
}
);
};
layerId = "1781503A-446A-42BE-9797-0213F9F6A36C";
paths = (
{
closed = 1;
nodes = (
"168 0 LINE",
"216 229 LINE",
"309 229 LINE",
"387 0 LINE",
"572 0 LINE",
"481 264 LINE",
"572 312 OFFCURVE",
"636 412 OFFCURVE",
"636 510 CURVE SMOOTH",
"636 612 OFFCURVE",
"571 710 OFFCURVE",
"460 710 CURVE SMOOTH",
"155 710 LINE",
"4 0 LINE"
);
},
{
closed = 1;
nodes = (
"247 372 LINE",
"288 566 LINE",
"419 566 LINE SMOOTH",
"445 566 OFFCURVE",
"467 537 OFFCURVE",
"467 493 CURVE SMOOTH",
"467 427 OFFCURVE",
"422 372 OFFCURVE",
"383 372 CURVE SMOOTH"
);
}
);
width = 647;
}
);
leftKerningGroup = I;
rightKerningGroup = R;
unicode = 0052;
},
{
glyphname = S;
lastChange = "2016-07-06 18:38:26 +0000";
layers = (
{
anchors = (
{
name = bottom;
position = "{239, 0}";
},
{
name = top;
position = "{392, 729}";
}
);
background = {
paths = (
{
closed = 1;
nodes = (
"407 -5 OFFCURVE",
"518 75 OFFCURVE",
"518 208 CURVE SMOOTH",
"518 305 OFFCURVE",
"435 337 OFFCURVE",
"309 365 CURVE SMOOTH",
"186 393 OFFCURVE",
"127 418 OFFCURVE",
"127 495 CURVE SMOOTH",
"127 607 OFFCURVE",
"201 696 OFFCURVE",
"385 696 CURVE SMOOTH",
"465 696 OFFCURVE",
"514 678 OFFCURVE",
"554 616 CURVE",
"570 630 LINE",
"530 691 OFFCURVE",
"473 715 OFFCURVE",
"387 715 CURVE SMOOTH",
"222 715 OFFCURVE",
"106 630 OFFCURVE",
"106 491 CURVE SMOOTH",
"106 400 OFFCURVE",
"180 372 OFFCURVE",
"305 346 CURVE SMOOTH",
"434 318 OFFCURVE",
"497 284 OFFCURVE",
"497 203 CURVE SMOOTH",
"497 78 OFFCURVE",
"397 12 OFFCURVE",
"243 12 CURVE SMOOTH",
"140 12 OFFCURVE",
"69 44 OFFCURVE",
"16 118 CURVE",
"-1 105 LINE",
"55 30 OFFCURVE",
"130 -5 OFFCURVE",
"238 -5 CURVE SMOOTH"
);
}
);
};
layerId = UUID0;
paths = (
{
closed = 1;
nodes = (
"407 -5 OFFCURVE",
"518 75 OFFCURVE",
"518 208 CURVE SMOOTH",
"518 305 OFFCURVE",
"435 337 OFFCURVE",
"309 365 CURVE SMOOTH",
"186 393 OFFCURVE",
"127 418 OFFCURVE",
"127 495 CURVE SMOOTH",
"127 607 OFFCURVE",
"201 696 OFFCURVE",
"385 696 CURVE SMOOTH",
"465 696 OFFCURVE",
"514 678 OFFCURVE",
"554 616 CURVE",
"570 630 LINE",
"530 691 OFFCURVE",
"473 715 OFFCURVE",
"387 715 CURVE SMOOTH",
"222 715 OFFCURVE",
"106 630 OFFCURVE",
"106 491 CURVE SMOOTH",
"106 400 OFFCURVE",
"180 372 OFFCURVE",
"305 346 CURVE SMOOTH",
"434 318 OFFCURVE",
"497 284 OFFCURVE",
"497 203 CURVE SMOOTH",
"497 78 OFFCURVE",
"397 12 OFFCURVE",
"243 12 CURVE SMOOTH",
"140 12 OFFCURVE",
"69 44 OFFCURVE",
"16 118 CURVE",
"-1 105 LINE",
"55 30 OFFCURVE",
"130 -5 OFFCURVE",
"238 -5 CURVE SMOOTH"
);
}
);
width = 579;
},
{
anchors = (
{
name = bottom;
position = "{243, 0}";
},
{
name = top;
position = "{397, 721}";
}
);
background = {
paths = (
{
closed = 1;
nodes = (
"392 -8 OFFCURVE",
"551 63 OFFCURVE",
"551 252 CURVE SMOOTH",
"551 351 OFFCURVE",
"483 390 OFFCURVE",
"381 424 CURVE SMOOTH",
"307 448 OFFCURVE",
"262 461 OFFCURVE",
"262 500 CURVE SMOOTH",
"262 544 OFFCURVE",
"295 570 OFFCURVE",
"351 570 CURVE SMOOTH",
"432 570 OFFCURVE",
"512 513 OFFCURVE",
"516 502 CURVE",
"616 638 LINE",
"564 675 OFFCURVE",
"483 716 OFFCURVE",
"387 716 CURVE SMOOTH",
"232 716 OFFCURVE",
"82 616 OFFCURVE",
"82 444 CURVE SMOOTH",
"82 366 OFFCURVE",
"130 323 OFFCURVE",
"225 289 CURVE SMOOTH",
"302 262 OFFCURVE",
"366 248 OFFCURVE",
"366 203 CURVE SMOOTH",
"366 166 OFFCURVE",
"341 140 OFFCURVE",
"278 140 CURVE SMOOTH",
"174 140 OFFCURVE",
"81 209 OFFCURVE",
"75 223 CURVE",
"-27 80 LINE",
"42 25 OFFCURVE",
"145 -8 OFFCURVE",
"244 -8 CURVE SMOOTH"
);
}
);
};
layerId = "1781503A-446A-42BE-9797-0213F9F6A36C";
paths = (
{
closed = 1;
nodes = (
"392 -8 OFFCURVE",
"551 63 OFFCURVE",
"551 252 CURVE SMOOTH",
"551 351 OFFCURVE",
"483 391 OFFCURVE",
"381 424 CURVE SMOOTH",
"306 448 OFFCURVE",
"262 461 OFFCURVE",
"262 500 CURVE SMOOTH",
"262 544 OFFCURVE",
"295 570 OFFCURVE",
"351 570 CURVE SMOOTH",
"432 570 OFFCURVE",
"512 513 OFFCURVE",
"516 502 CURVE",
"616 638 LINE",
"564 675 OFFCURVE",
"483 716 OFFCURVE",
"387 716 CURVE SMOOTH",
"232 716 OFFCURVE",
"82 616 OFFCURVE",
"82 444 CURVE SMOOTH",
"82 366 OFFCURVE",
"130 323 OFFCURVE",
"225 289 CURVE SMOOTH",
"302 262 OFFCURVE",
"366 248 OFFCURVE",
"366 203 CURVE SMOOTH",
"366 166 OFFCURVE",
"341 140 OFFCURVE",
"278 140 CURVE SMOOTH",
"174 140 OFFCURVE",
"81 209 OFFCURVE",
"75 223 CURVE",
"-27 80 LINE",
"42 25 OFFCURVE",
"145 -8 OFFCURVE",
"244 -8 CURVE SMOOTH"
);
}
);
width = 594;
}
);
leftKerningGroup = S;
rightKerningGroup = S;
unicode = 0053;
},
{
glyphname = Schwa;
lastChange = "2016-07-06 18:38:26 +0000";
layers = (
{
background = {
paths = (
{
closed = 1;
nodes = (
"479 -10 OFFCURVE",
"676 187 OFFCURVE",
"676 419 CURVE SMOOTH",
"676 583 OFFCURVE",
"578 715 OFFCURVE",
"428 715 CURVE SMOOTH",
"317 715 OFFCURVE",
"190 643 OFFCURVE",
"135 548 CURVE",
"153 539 LINE",
"209 633 OFFCURVE",
"323 694 OFFCURVE",
"424 694 CURVE SMOOTH",
"561 694 OFFCURVE",
"653 582 OFFCURVE",
"653 427 CURVE SMOOTH",
"653 404 OFFCURVE",
"651 384 OFFCURVE",
"648 362 CURVE",
"45 362 LINE",
"36 327 OFFCURVE",
"32 294 OFFCURVE",
"32 262 CURVE SMOOTH",
"32 103 OFFCURVE",
"131 -10 OFFCURVE",
"281 -10 CURVE SMOOTH"
);
},
{
closed = 1;
nodes = (
"124 12 OFFCURVE",
"55 139 OFFCURVE",
"55 266 CURVE SMOOTH",
"55 291 OFFCURVE",
"58 316 OFFCURVE",
"63 340 CURVE",
"643 340 LINE",
"607 155 OFFCURVE",
"448 12 OFFCURVE",
"281 12 CURVE SMOOTH"
);
}
);
};
layerId = UUID0;
paths = (
{
closed = 1;
nodes = (
"479 -10 OFFCURVE",
"676 187 OFFCURVE",
"676 419 CURVE SMOOTH",
"676 583 OFFCURVE",
"578 715 OFFCURVE",
"428 715 CURVE SMOOTH",
"317 715 OFFCURVE",
"190 643 OFFCURVE",
"135 548 CURVE",
"153 539 LINE",
"209 633 OFFCURVE",
"323 694 OFFCURVE",
"424 694 CURVE SMOOTH",
"561 694 OFFCURVE",
"653 582 OFFCURVE",
"653 427 CURVE SMOOTH",
"653 404 OFFCURVE",
"651 384 OFFCURVE",
"648 362 CURVE",
"45 362 LINE",
"36 327 OFFCURVE",
"32 294 OFFCURVE",
"32 262 CURVE SMOOTH",
"32 103 OFFCURVE",
"131 -10 OFFCURVE",
"281 -10 CURVE SMOOTH"
);
},
{
closed = 1;
nodes = (
"124 12 OFFCURVE",
"55 139 OFFCURVE",
"55 266 CURVE SMOOTH",
"55 291 OFFCURVE",
"58 316 OFFCURVE",
"63 340 CURVE",
"643 340 LINE",
"607 155 OFFCURVE",
"448 12 OFFCURVE",
"281 12 CURVE SMOOTH"
);
}
);
width = 707;
},
{
background = {
paths = (
{
closed = 1;
nodes = (
"539 -5 OFFCURVE",
"715 223 OFFCURVE",
"715 424 CURVE SMOOTH",
"715 570 OFFCURVE",
"625 714 OFFCURVE",
"446 714 CURVE SMOOTH",
"300 714 OFFCURVE",
"174 639 OFFCURVE",
"99 526 CURVE",
"258 474 LINE",
"286 532 OFFCURVE",
"354 569 OFFCURVE",
"414 569 CURVE SMOOTH",
"484 569 OFFCURVE",
"539 522 OFFCURVE",
"539 434 CURVE SMOOTH",
"539 425 OFFCURVE",
"538 415 OFFCURVE",
"537 405 CURVE",
"44 405 LINE",
"33 380 OFFCURVE",
"19 339 OFFCURVE",
"19 283 CURVE SMOOTH",
"19 142 OFFCURVE",
"108 -5 OFFCURVE",
"292 -5 CURVE SMOOTH"
);
},
{
closed = 1;
nodes = (
"244 139 OFFCURVE",
"189 184 OFFCURVE",
"189 251 CURVE SMOOTH",
"189 261 OFFCURVE",
"190 271 OFFCURVE",
"193 282 CURVE",
"508 282 LINE",
"479 195 OFFCURVE",
"407 139 OFFCURVE",
"325 139 CURVE SMOOTH"
);
}
);
};
layerId = "1781503A-446A-42BE-9797-0213F9F6A36C";
paths = (
{
closed = 1;
nodes = (
"539 -5 OFFCURVE",
"715 223 OFFCURVE",
"715 424 CURVE SMOOTH",
"715 570 OFFCURVE",
"625 714 OFFCURVE",
"446 714 CURVE SMOOTH",
"300 714 OFFCURVE",
"174 639 OFFCURVE",
"99 526 CURVE",
"258 474 LINE",
"286 532 OFFCURVE",
"354 569 OFFCURVE",
"414 569 CURVE SMOOTH",
"484 569 OFFCURVE",
"539 522 OFFCURVE",
"539 434 CURVE SMOOTH",
"539 425 OFFCURVE",
"538 415 OFFCURVE",
"537 405 CURVE",
"44 405 LINE",
"33 380 OFFCURVE",
"19 339 OFFCURVE",
"19 283 CURVE SMOOTH",
"19 142 OFFCURVE",
"108 -5 OFFCURVE",
"292 -5 CURVE SMOOTH"
);
},
{
closed = 1;
nodes = (
"244 139 OFFCURVE",
"189 184 OFFCURVE",
"189 251 CURVE SMOOTH",
"189 261 OFFCURVE",
"190 271 OFFCURVE",
"193 282 CURVE",
"508 282 LINE",
"479 195 OFFCURVE",
"407 139 OFFCURVE",
"325 139 CURVE SMOOTH"
);
}
);
width = 724;
}
);
rightKerningGroup = O;
unicode = 018F;
},
{
glyphname = T;
lastChange = "2016-07-06 18:38:26 +0000";
layers = (
{
anchors = (
{
name = bottom;
position = "{219, 0}";
},
{
name = top;
position = "{369, 707}";
}
);
background = {
paths = (
{
closed = 1;
nodes = (
"209 0 LINE",
"229 0 LINE",
"376 690 LINE",
"634 690 LINE",
"638 710 LINE",
"102 710 LINE",
"98 690 LINE",
"356 690 LINE"
);
}
);
};
layerId = UUID0;
paths = (
{
closed = 1;
nodes = (
"209 0 LINE",
"229 0 LINE",
"376 690 LINE",
"634 690 LINE",
"638 710 LINE",
"102 710 LINE",
"98 690 LINE",
"356 690 LINE"
);
}
);
width = 574;
},
{
anchors = (
{
name = bottom;
position = "{233, 0}";
},
{
name = top;
position = "{384, 708}";
}
);
background = {
paths = (
{
closed = 1;
nodes = (
"152 0 LINE",
"316 0 LINE",
"437 566 LINE",
"639 566 LINE",
"669 710 LINE",
"100 710 LINE",
"70 566 LINE",
"273 566 LINE"
);
}
);
};
layerId = "1781503A-446A-42BE-9797-0213F9F6A36C";
paths = (
{
closed = 1;
nodes = (
"152 0 LINE",
"316 0 LINE",
"437 566 LINE",
"639 566 LINE",
"669 710 LINE",
"100 710 LINE",
"70 566 LINE",
"273 566 LINE"
);
}
);
width = 596;
}
);
leftKerningGroup = T;
rightKerningGroup = T;
unicode = 0054;
},
{
glyphname = Tbar;
lastChange = "2016-07-06 18:38:26 +0000";
layers = (
{
background = {
paths = (
{
closed = 1;
nodes = (
"88 404 LINE",
"567 404 LINE",
"571 424 LINE",
"92 424 LINE"
);
},
{
closed = 1;
nodes = (
"232 0 LINE",
"252 0 LINE",
"398 690 LINE",
"656 690 LINE",
"661 710 LINE",
"124 710 LINE",
"120 690 LINE",
"378 690 LINE"
);
}
);
};
layerId = UUID0;
paths = (
{
closed = 1;
nodes = (
"88 404 LINE",
"567 404 LINE",
"571 424 LINE",
"92 424 LINE"
);
},
{
closed = 1;
nodes = (
"232 0 LINE",
"252 0 LINE",
"398 690 LINE",
"656 690 LINE",
"661 710 LINE",
"124 710 LINE",
"120 690 LINE",
"378 690 LINE"
);
}
);
width = 616;
},
{
background = {
paths = (
{
closed = 1;
nodes = (
"59 292 LINE",
"555 292 LINE",
"571 368 LINE",
"76 368 LINE"
);
},
{
closed = 1;
nodes = (
"163 0 LINE",
"328 0 LINE",
"447 566 LINE",
"649 566 LINE",
"680 710 LINE",
"111 710 LINE",
"81 566 LINE",
"283 566 LINE"
);
}
);
};
layerId = "1781503A-446A-42BE-9797-0213F9F6A36C";
paths = (
{
closed = 1;
nodes = (
"59 292 LINE",
"555 292 LINE",
"571 368 LINE",
"76 368 LINE"
);
},
{
closed = 1;
nodes = (
"163 0 LINE",
"328 0 LINE",
"447 566 LINE",
"649 566 LINE",
"680 710 LINE",
"111 710 LINE",
"81 566 LINE",
"283 566 LINE"
);
}
);
width = 619;
}
);
leftKerningGroup = T;
rightKerningGroup = T;
unicode = 0166;
},
{
glyphname = U;
lastChange = "2016-07-06 18:38:26 +0000";
layers = (
{
anchors = (
{
name = bottom;
position = "{299, 0}";
},
{
name = top;
position = "{448, 707}";
}
);
background = {
paths = (
{
closed = 1;
nodes = (
"505 -5 OFFCURVE",
"610 167 OFFCURVE",
"650 355 CURVE SMOOTH",
"725 710 LINE",
"705 710 LINE",
"630 355 LINE SMOOTH",
"595 189 OFFCURVE",
"504 15 OFFCURVE",
"301 15 CURVE SMOOTH",
"152 15 OFFCURVE",
"103 109 OFFCURVE",
"103 229 CURVE SMOOTH",
"103 269 OFFCURVE",
"109 312 OFFCURVE",
"118 355 CURVE SMOOTH",
"193 710 LINE",
"173 710 LINE",
"98 355 LINE SMOOTH",
"89 311 OFFCURVE",
"83 267 OFFCURVE",
"83 226 CURVE SMOOTH",
"83 99 OFFCURVE",
"136 -5 OFFCURVE",
"298 -5 CURVE SMOOTH"
);
}
);
};
layerId = UUID0;
paths = (
{
closed = 1;
nodes = (
"505 -5 OFFCURVE",
"610 167 OFFCURVE",
"650 355 CURVE SMOOTH",
"725 710 LINE",
"705 710 LINE",
"630 355 LINE SMOOTH",
"595 189 OFFCURVE",
"504 15 OFFCURVE",
"301 15 CURVE SMOOTH",
"152 15 OFFCURVE",
"103 109 OFFCURVE",
"103 229 CURVE SMOOTH",
"103 269 OFFCURVE",
"109 312 OFFCURVE",
"118 355 CURVE SMOOTH",
"193 710 LINE",
"173 710 LINE",
"98 355 LINE SMOOTH",
"89 311 OFFCURVE",
"83 267 OFFCURVE",
"83 226 CURVE SMOOTH",
"83 99 OFFCURVE",
"136 -5 OFFCURVE",
"298 -5 CURVE SMOOTH"
);
}
);
width = 723;
},
{
anchors = (
{
name = bottom;
position = "{298, 0}";
},
{
name = top;
position = "{355, 708}";
}
);
background = {
paths = (
{
closed = 1;
nodes = (
"501 -6 OFFCURVE",
"627 151 OFFCURVE",
"669 347 CURVE SMOOTH",
"746 710 LINE",
"582 710 LINE",
"505 347 LINE SMOOTH",
"482 242 OFFCURVE",
"426 140 OFFCURVE",
"324 140 CURVE SMOOTH",
"250 140 OFFCURVE",
"222 194 OFFCURVE",
"222 266 CURVE SMOOTH",
"222 291 OFFCURVE",
"226 319 OFFCURVE",
"231 347 CURVE SMOOTH",
"309 710 LINE",
"145 710 LINE",
"67 347 LINE SMOOTH",
"59 309 OFFCURVE",
"55 271 OFFCURVE",
"55 236 CURVE SMOOTH",
"55 99 OFFCURVE",
"121 -6 OFFCURVE",
"293 -6 CURVE SMOOTH"
);
}
);
};
layerId = "1781503A-446A-42BE-9797-0213F9F6A36C";
paths = (
{
closed = 1;
nodes = (
"501 -6 OFFCURVE",
"627 151 OFFCURVE",
"669 347 CURVE SMOOTH",
"746 710 LINE",
"582 710 LINE",
"505 347 LINE SMOOTH",
"482 242 OFFCURVE",
"426 140 OFFCURVE",
"324 140 CURVE SMOOTH",
"250 140 OFFCURVE",
"222 194 OFFCURVE",
"222 266 CURVE SMOOTH",
"222 291 OFFCURVE",
"225 318 OFFCURVE",
"231 347 CURVE SMOOTH",
"309 710 LINE",
"145 710 LINE",
"67 347 LINE SMOOTH",
"59 309 OFFCURVE",
"55 271 OFFCURVE",
"55 236 CURVE SMOOTH",
"55 99 OFFCURVE",
"121 -6 OFFCURVE",
"293 -6 CURVE SMOOTH"
);
}
);
width = 717;
}
);
leftKerningGroup = U;
rightKerningGroup = U;
unicode = 0055;
},
{
glyphname = V;
lastChange = "2016-07-06 18:38:26 +0000";
layers = (
{
background = {
paths = (
{
closed = 1;
nodes = (
"243 0 LINE",
"265 0 LINE",
"709 710 LINE",
"687 710 LINE",
"260 25 LINE",
"122 710 LINE",
"101 710 LINE"
);
}
);
};
layerId = UUID0;
paths = (
{
closed = 1;
nodes = (
"243 0 LINE",
"265 0 LINE",
"709 710 LINE",
"687 710 LINE",
"260 25 LINE",
"122 710 LINE",
"101 710 LINE"
);
}
);
width = 644;
},
{
background = {
paths = (
{
closed = 1;
nodes = (
"187 0 LINE",
"324 0 LINE",
"728 710 LINE",
"556 710 LINE",
"299 206 LINE",
"255 710 LINE",
"82 710 LINE"
);
}
);
};
layerId = "1781503A-446A-42BE-9797-0213F9F6A36C";
paths = (
{
closed = 1;
nodes = (
"187 0 LINE",
"324 0 LINE",
"728 710 LINE",
"556 710 LINE",
"299 206 LINE",
"255 710 LINE",
"82 710 LINE"
);
}
);
width = 644;
}
);
unicode = 0056;
},
{
glyphname = W;
lastChange = "2016-07-06 18:38:26 +0000";
layers = (
{
anchors = (
{
name = top;
position = "{575, 707}";
}
);
background = {
paths = (
{
closed = 1;
nodes = (
"243 0 LINE",
"265 0 LINE",
"508 389 LINE",
"585 0 LINE",
"607 0 LINE",
"1051 710 LINE",
"1029 710 LINE",
"602 25 LINE",
"523 414 LINE",
"706 704 LINE",
"684 704 LINE",
"517 438 LINE",
"465 704 LINE",
"443 704 LINE",
"502 414 LINE",
"260 25 LINE",
"123 710 LINE",
"101 710 LINE"
);
}
);
};
layerId = UUID0;
paths = (
{
closed = 1;
nodes = (
"243 0 LINE",
"265 0 LINE",
"508 389 LINE",
"585 0 LINE",
"607 0 LINE",
"1051 710 LINE",
"1029 710 LINE",
"602 25 LINE",
"523 414 LINE",
"706 704 LINE",
"684 704 LINE",
"517 438 LINE",
"465 704 LINE",
"443 704 LINE",
"502 414 LINE",
"260 25 LINE",
"123 710 LINE",
"101 710 LINE"
);
}
);
width = 986;
},
{
anchors = (
{
name = top;
position = "{582, 708}";
}
);
background = {
paths = (
{
closed = 1;
nodes = (
"193 0 LINE",
"330 0 LINE",
"492 278 LINE",
"538 0 LINE",
"674 0 LINE",
"1094 710 LINE",
"914 710 LINE",
"641 188 LINE",
"618 379 LINE",
"801 709 LINE",
"650 709 LINE",
"536 482 LINE",
"518 709 LINE",
"368 709 LINE",
"408 379 LINE",
"306 188 LINE",
"254 710 LINE",
"76 710 LINE"
);
}
);
};
layerId = "1781503A-446A-42BE-9797-0213F9F6A36C";
paths = (
{
closed = 1;
nodes = (
"193 0 LINE",
"330 0 LINE",
"492 278 LINE",
"538 0 LINE",
"674 0 LINE",
"1094 710 LINE",
"914 710 LINE",
"641 188 LINE",
"618 379 LINE",
"801 709 LINE",
"650 709 LINE",
"536 482 LINE",
"518 709 LINE",
"368 709 LINE",
"408 379 LINE",
"306 188 LINE",
"254 710 LINE",
"76 710 LINE"
);
}
);
width = 1002;
}
);
leftKerningGroup = W;
rightKerningGroup = W;
unicode = 0057;
},
{
glyphname = X;
lastChange = "2016-07-06 18:38:26 +0000";
layers = (
{
background = {
paths = (
{
closed = 1;
nodes = (
"-47 0 LINE",
"-21 0 LINE",
"302 334 LINE",
"482 0 LINE",
"507 0 LINE",
"317 350 LINE",
"666 710 LINE",
"641 710 LINE",
"308 366 LINE",
"122 710 LINE",
"96 710 LINE",
"292 350 LINE"
);
}
);
};
layerId = UUID0;
paths = (
{
closed = 1;
nodes = (
"-47 0 LINE",
"-21 0 LINE",
"302 334 LINE",
"482 0 LINE",
"507 0 LINE",
"317 350 LINE",
"666 710 LINE",
"641 710 LINE",
"308 366 LINE",
"122 710 LINE",
"96 710 LINE",
"292 350 LINE"
);
}
);
width = 588;
},
{
background = {
paths = (
{
closed = 1;
nodes = (
"-62 0 LINE",
"116 0 LINE",
"298 235 LINE",
"381 0 LINE",
"558 0 LINE",
"409 350 LINE",
"717 710 LINE",
"540 710 LINE",
"348 465 LINE",
"259 710 LINE",
"81 710 LINE",
"236 350 LINE"
);
}
);
};
layerId = "1781503A-446A-42BE-9797-0213F9F6A36C";
paths = (
{
closed = 1;
nodes = (
"-62 0 LINE",
"116 0 LINE",
"298 235 LINE",
"381 0 LINE",
"558 0 LINE",
"409 350 LINE",
"717 710 LINE",
"540 710 LINE",
"348 465 LINE",
"259 710 LINE",
"81 710 LINE",
"236 350 LINE"
);
}
);
width = 625;
}
);
unicode = 0058;
},
{
glyphname = Y;
lastChange = "2016-07-06 18:38:26 +0000";
layers = (
{
anchors = (
{
name = top;
position = "{379, 707}";
}
);
background = {
paths = (
{
closed = 1;
nodes = (
"218 0 LINE",
"238 0 LINE",
"297 275 LINE",
"663 710 LINE",
"640 710 LINE",
"292 298 LINE",
"120 710 LINE",
"97 710 LINE",
"277 277 LINE"
);
}
);
};
layerId = UUID0;
paths = (
{
closed = 1;
nodes = (
"218 0 LINE",
"238 0 LINE",
"297 275 LINE",
"663 710 LINE",
"640 710 LINE",
"292 298 LINE",
"120 710 LINE",
"97 710 LINE",
"277 277 LINE"
);
}
);
width = 594;
},
{
anchors = (
{
name = top;
position = "{391, 708}";
}
);
background = {
paths = (
{
closed = 1;
nodes = (
"160 0 LINE",
"324 0 LINE",
"375 242 LINE",
"713 710 LINE",
"535 710 LINE",
"324 384 LINE",
"255 710 LINE",
"77 710 LINE",
"213 244 LINE"
);
}
);
};
layerId = "1781503A-446A-42BE-9797-0213F9F6A36C";
paths = (
{
closed = 1;
nodes = (
"160 0 LINE",
"324 0 LINE",
"375 242 LINE",
"713 710 LINE",
"535 710 LINE",
"324 384 LINE",
"255 710 LINE",
"77 710 LINE",
"213 244 LINE"
);
}
);
width = 623;
}
);
leftKerningGroup = Y;
rightKerningGroup = Y;
unicode = 0059;
},
{
glyphname = Z;
lastChange = "2016-07-06 18:38:26 +0000";
layers = (
{
anchors = (
{
name = top;
position = "{379, 707}";
}
);
background = {
paths = (
{
closed = 1;
nodes = (
"-40 0 LINE",
"495 0 LINE",
"499 20 LINE",
"-11 20 LINE",
"645 690 LINE",
"650 710 LINE",
"116 710 LINE",
"111 690 LINE",
"620 690 LINE",
"-36 20 LINE"
);
}
);
};
layerId = UUID0;
paths = (
{
closed = 1;
nodes = (
"-40 0 LINE",
"495 0 LINE",
"499 20 LINE",
"-11 20 LINE",
"645 690 LINE",
"650 710 LINE",
"116 710 LINE",
"111 690 LINE",
"620 690 LINE",
"-36 20 LINE"
);
}
);
width = 587;
},
{
anchors = (
{
name = top;
position = "{383, 708}";
}
);
background = {
paths = (
{
closed = 1;
nodes = (
"-36 0 LINE",
"499 0 LINE",
"529 144 LINE",
"200 144 LINE",
"619 587 LINE",
"646 710 LINE",
"128 710 LINE",
"98 566 LINE",
"425 566 LINE",
"-10 123 LINE"
);
}
);
};
layerId = "1781503A-446A-42BE-9797-0213F9F6A36C";
paths = (
{
closed = 1;
nodes = (
"-36 0 LINE",
"499 0 LINE",
"529 144 LINE",
"200 144 LINE",
"619 587 LINE",
"646 710 LINE",
"128 710 LINE",
"98 566 LINE",
"425 566 LINE",
"-10 123 LINE"
);
}
);
width = 595;
}
);
leftKerningGroup = Z;
rightKerningGroup = Z;
unicode = 005A;
},
{
glyphname = G.alt;
lastChange = "2016-07-06 18:38:26 +0000";
layers = (
{
background = {
paths = (
{
closed = 1;
nodes = (
"463 -5 OFFCURVE",
"621 144 OFFCURVE",
"676 308 CURVE SMOOTH",
"679 317 OFFCURVE",
"681 323 OFFCURVE",
"682 329 CURVE",
"427 329 LINE",
"423 309 LINE",
"656 309 LINE",
"605 158 OFFCURVE",
"462 15 OFFCURVE",
"303 15 CURVE SMOOTH",
"158 15 OFFCURVE",
"72 144 OFFCURVE",
"72 289 CURVE SMOOTH",
"72 483 OFFCURVE",
"247 695 OFFCURVE",
"446 695 CURVE SMOOTH",
"550 695 OFFCURVE",
"625 633 OFFCURVE",
"658 544 CURVE",
"675 558 LINE",
"640 649 OFFCURVE",
"563 715 OFFCURVE",
"452 715 CURVE SMOOTH",
"249 715 OFFCURVE",
"52 505 OFFCURVE",
"52 288 CURVE SMOOTH",
"52 134 OFFCURVE",
"143 -5 OFFCURVE",
"297 -5 CURVE SMOOTH"
);
}
);
};
layerId = UUID0;
paths = (
{
closed = 1;
nodes = (
"463 -5 OFFCURVE",
"621 144 OFFCURVE",
"676 308 CURVE SMOOTH",
"679 317 OFFCURVE",
"681 323 OFFCURVE",
"682 329 CURVE",
"427 329 LINE",
"423 309 LINE",
"656 309 LINE",
"605 158 OFFCURVE",
"462 15 OFFCURVE",
"303 15 CURVE SMOOTH",
"158 15 OFFCURVE",
"72 144 OFFCURVE",
"72 289 CURVE SMOOTH",
"72 483 OFFCURVE",
"247 695 OFFCURVE",
"446 695 CURVE SMOOTH",
"550 695 OFFCURVE",
"625 633 OFFCURVE",
"658 544 CURVE",
"675 558 LINE",
"640 649 OFFCURVE",
"563 715 OFFCURVE",
"452 715 CURVE SMOOTH",
"249 715 OFFCURVE",
"52 505 OFFCURVE",
"52 288 CURVE SMOOTH",
"52 134 OFFCURVE",
"143 -5 OFFCURVE",
"297 -5 CURVE SMOOTH"
);
}
);
width = 705;
},
{
background = {
paths = (
{
closed = 1;
nodes = (
"481 -5 OFFCURVE",
"629 138 OFFCURVE",
"667 309 CURVE SMOOTH",
"672 332 OFFCURVE",
"679 364 OFFCURVE",
"684 386 CURVE",
"385 386 LINE",
"354 242 LINE",
"476 242 LINE",
"447 190 OFFCURVE",
"383 141 OFFCURVE",
"317 141 CURVE SMOOTH",
"233 141 OFFCURVE",
"200 220 OFFCURVE",
"200 298 CURVE SMOOTH",
"200 423 OFFCURVE",
"284 569 OFFCURVE",
"409 569 CURVE SMOOTH",
"495 569 OFFCURVE",
"519 493 OFFCURVE",
"524 466 CURVE",
"676 568 LINE",
"645 661 OFFCURVE",
"565 715 OFFCURVE",
"450 715 CURVE SMOOTH",
"213 715 OFFCURVE",
"34 499 OFFCURVE",
"34 294 CURVE SMOOTH",
"34 135 OFFCURVE",
"132 -5 OFFCURVE",
"302 -5 CURVE SMOOTH"
);
}
);
};
layerId = "1781503A-446A-42BE-9797-0213F9F6A36C";
paths = (
{
closed = 1;
nodes = (
"481 -5 OFFCURVE",
"629 138 OFFCURVE",
"667 309 CURVE SMOOTH",
"684 386 LINE",
"385 386 LINE",
"354 242 LINE",
"476 242 LINE",
"447 190 OFFCURVE",
"383 141 OFFCURVE",
"317 141 CURVE SMOOTH",
"233 141 OFFCURVE",
"200 220 OFFCURVE",
"200 298 CURVE SMOOTH",
"200 423 OFFCURVE",
"284 569 OFFCURVE",
"409 569 CURVE SMOOTH",
"495 569 OFFCURVE",
"519 493 OFFCURVE",
"524 466 CURVE",
"676 568 LINE",
"645 661 OFFCURVE",
"565 715 OFFCURVE",
"450 715 CURVE SMOOTH",
"213 715 OFFCURVE",
"34 499 OFFCURVE",
"34 294 CURVE SMOOTH",
"34 135 OFFCURVE",
"132 -5 OFFCURVE",
"302 -5 CURVE SMOOTH"
);
}
);
width = 688;
}
);
leftKerningGroup = O;
},
{
glyphname = W.alt;
lastChange = "2016-07-06 18:38:26 +0000";
layers = (
{
background = {
paths = (
{
closed = 1;
nodes = (
"174 0 LINE",
"196 0 LINE",
"557 678 LINE",
"638 0 LINE",
"660 0 LINE",
"1029 710 LINE",
"1007 710 LINE",
"654 25 LINE",
"574 710 LINE",
"552 710 LINE",
"190 25 LINE",
"128 710 LINE",
"107 710 LINE"
);
}
);
};
layerId = UUID0;
paths = (
{
closed = 1;
nodes = (
"174 0 LINE",
"196 0 LINE",
"557 678 LINE",
"638 0 LINE",
"660 0 LINE",
"1029 710 LINE",
"1007 710 LINE",
"654 25 LINE",
"574 710 LINE",
"552 710 LINE",
"190 25 LINE",
"128 710 LINE",
"107 710 LINE"
);
}
);
width = 972;
},
{
background = {
paths = (
{
closed = 1;
nodes = (
"147 0 LINE",
"317 0 LINE",
"565 442 LINE",
"627 1 LINE",
"797 1 LINE",
"1158 711 LINE",
"971 711 LINE",
"748 248 LINE",
"711 710 LINE",
"533 710 LINE",
"300 247 LINE",
"274 710 LINE",
"88 710 LINE"
);
}
);
};
layerId = "1781503A-446A-42BE-9797-0213F9F6A36C";
paths = (
{
closed = 1;
nodes = (
"147 0 LINE",
"317 0 LINE",
"565 442 LINE",
"627 1 LINE",
"797 1 LINE",
"1158 711 LINE",
"971 711 LINE",
"748 248 LINE",
"711 710 LINE",
"533 710 LINE",
"300 247 LINE",
"274 710 LINE",
"88 710 LINE"
);
}
);
width = 1078;
}
);
},
{
glyphname = a;
lastChange = "2016-07-06 18:38:26 +0000";
layers = (
{
anchors = (
{
name = bottom;
position = "{437, 11}";
},
{
name = top;
position = "{323, 519}";
}
);
background = {
paths = (
{
closed = 1;
nodes = (
"294 -10 OFFCURVE",
"379 39 OFFCURVE",
"435 108 CURVE",
"421 38 OFFCURVE",
"420 35 OFFCURVE",
"420 29 CURVE SMOOTH",
"420 14 OFFCURVE",
"426 5 OFFCURVE",
"439 1 CURVE SMOOTH",
"442 0 OFFCURVE",
"445 0 OFFCURVE",
"448 0 CURVE",
"452 20 LINE",
"443 20 OFFCURVE",
"440 25 OFFCURVE",
"440 32 CURVE SMOOTH",
"440 36 OFFCURVE",
"441 41 OFFCURVE",
"442 44 CURVE SMOOTH",
"544 519 LINE",
"523 519 LINE",
"497 398 LINE",
"472 467 OFFCURVE",
"414 527 OFFCURVE",
"321 527 CURVE SMOOTH",
"171 527 OFFCURVE",
"31 370 OFFCURVE",
"31 210 CURVE SMOOTH",
"31 97 OFFCURVE",
"101 -10 OFFCURVE",
"216 -10 CURVE SMOOTH"
);
},
{
closed = 1;
nodes = (
"122 10 OFFCURVE",
"51 104 OFFCURVE",
"51 210 CURVE SMOOTH",
"51 350 OFFCURVE",
"174 507 OFFCURVE",
"313 507 CURVE SMOOTH",
"407 507 OFFCURVE",
"477 435 OFFCURVE",
"488 356 CURVE",
"448 169 LINE",
"425 85 OFFCURVE",
"303 10 OFFCURVE",
"218 10 CURVE SMOOTH"
);
}
);
};
layerId = UUID0;
paths = (
{
closed = 1;
nodes = (
"294 -10 OFFCURVE",
"379 39 OFFCURVE",
"435 108 CURVE",
"421 38 OFFCURVE",
"420 35 OFFCURVE",
"420 29 CURVE SMOOTH",
"420 14 OFFCURVE",
"426 5 OFFCURVE",
"439 1 CURVE SMOOTH",
"442 0 OFFCURVE",
"445 0 OFFCURVE",
"448 0 CURVE",
"452 20 LINE",
"443 20 OFFCURVE",
"440 25 OFFCURVE",
"440 32 CURVE SMOOTH",
"440 36 OFFCURVE",
"441 41 OFFCURVE",
"442 44 CURVE SMOOTH",
"544 519 LINE",
"523 519 LINE",
"497 398 LINE",
"472 467 OFFCURVE",
"414 527 OFFCURVE",
"321 527 CURVE SMOOTH",
"171 527 OFFCURVE",
"31 370 OFFCURVE",
"31 210 CURVE SMOOTH",
"31 97 OFFCURVE",
"101 -10 OFFCURVE",
"216 -10 CURVE SMOOTH"
);
},
{
closed = 1;
nodes = (
"122 10 OFFCURVE",
"51 104 OFFCURVE",
"51 210 CURVE SMOOTH",
"51 350 OFFCURVE",
"174 507 OFFCURVE",
"313 507 CURVE SMOOTH",
"407 507 OFFCURVE",
"477 435 OFFCURVE",
"488 356 CURVE",
"448 169 LINE",
"425 85 OFFCURVE",
"303 10 OFFCURVE",
"218 10 CURVE SMOOTH"
);
}
);
width = 580;
},
{
anchors = (
{
name = bottom;
position = "{454, 7}";
},
{
name = top;
position = "{301, 522}";
}
);
background = {
paths = (
{
closed = 1;
nodes = (
"264 -10 OFFCURVE",
"335 22 OFFCURVE",
"384 87 CURVE",
"382 75 OFFCURVE",
"381 66 OFFCURVE",
"381 59 CURVE SMOOTH",
"381 11 OFFCURVE",
"414 -8 OFFCURVE",
"466 -8 CURVE SMOOTH",
"482 -8 OFFCURVE",
"504 -6 OFFCURVE",
"534 0 CURVE",
"562 135 LINE",
"544 136 OFFCURVE",
"537 143 OFFCURVE",
"537 159 CURVE SMOOTH",
"537 165 OFFCURVE",
"538 171 OFFCURVE",
"539 180 CURVE SMOOTH",
"613 522 LINE",
"452 522 LINE",
"434 439 LINE",
"416 497 OFFCURVE",
"365 535 OFFCURVE",
"297 535 CURVE SMOOTH",
"145 535 OFFCURVE",
"11 380 OFFCURVE",
"11 203 CURVE SMOOTH",
"11 81 OFFCURVE",
"81 -10 OFFCURVE",
"197 -10 CURVE SMOOTH"
);
},
{
closed = 1;
nodes = (
"213 125 OFFCURVE",
"180 169 OFFCURVE",
"180 229 CURVE SMOOTH",
"180 316 OFFCURVE",
"247 399 OFFCURVE",
"320 399 CURVE SMOOTH",
"363 399 OFFCURVE",
"400 361 OFFCURVE",
"407 308 CURVE",
"384 198 LINE",
"353 153 OFFCURVE",
"309 125 OFFCURVE",
"269 125 CURVE SMOOTH"
);
}
);
};
layerId = "1781503A-446A-42BE-9797-0213F9F6A36C";
paths = (
{
closed = 1;
nodes = (
"264 -10 OFFCURVE",
"335 22 OFFCURVE",
"384 87 CURVE",
"382 75 OFFCURVE",
"381 66 OFFCURVE",
"381 59 CURVE SMOOTH",
"381 11 OFFCURVE",
"414 -8 OFFCURVE",
"466 -8 CURVE SMOOTH",
"482 -8 OFFCURVE",
"504 -6 OFFCURVE",
"534 0 CURVE",
"562 135 LINE",
"544 136 OFFCURVE",
"537 143 OFFCURVE",
"537 159 CURVE SMOOTH",
"537 165 OFFCURVE",
"538 171 OFFCURVE",
"539 180 CURVE SMOOTH",
"613 522 LINE",
"452 522 LINE",
"434 439 LINE",
"416 497 OFFCURVE",
"365 535 OFFCURVE",
"297 535 CURVE SMOOTH",
"145 535 OFFCURVE",
"11 380 OFFCURVE",
"11 203 CURVE SMOOTH",
"11 81 OFFCURVE",
"81 -10 OFFCURVE",
"197 -10 CURVE SMOOTH"
);
},
{
closed = 1;
nodes = (
"213 125 OFFCURVE",
"180 169 OFFCURVE",
"180 229 CURVE SMOOTH",
"180 316 OFFCURVE",
"247 399 OFFCURVE",
"320 399 CURVE SMOOTH",
"363 399 OFFCURVE",
"400 361 OFFCURVE",
"407 308 CURVE",
"384 198 LINE",
"353 153 OFFCURVE",
"309 125 OFFCURVE",
"269 125 CURVE SMOOTH"
);
}
);
width = 634;
}
);
leftKerningGroup = a;
rightKerningGroup = a;
unicode = 0061;
},
{
glyphname = ae;
lastChange = "2016-07-06 18:38:26 +0000";
layers = (
{
anchors = (
{
name = top;
position = "{372, 519}";
}
);
background = {
paths = (
{
closed = 1;
nodes = (
"205 -10 OFFCURVE",
"320 24 OFFCURVE",
"378 111 CURVE",
"406 38 OFFCURVE",
"468 -10 OFFCURVE",
"550 -10 CURVE SMOOTH",
"635 -10 OFFCURVE",
"730 43 OFFCURVE",
"772 114 CURVE",
"754 119 LINE",
"713 55 OFFCURVE",
"631 10 OFFCURVE",
"555 10 CURVE SMOOTH",
"452 10 OFFCURVE",
"384 93 OFFCURVE",
"384 206 CURVE SMOOTH",
"384 219 OFFCURVE",
"385 233 OFFCURVE",
"387 248 CURVE",
"837 248 LINE",
"847 269 OFFCURVE",
"850 306 OFFCURVE",
"850 328 CURVE SMOOTH",
"850 442 OFFCURVE",
"768 527 OFFCURVE",
"659 527 CURVE SMOOTH",
"575 527 OFFCURVE",
"492 477 OFFCURVE",
"435 403 CURVE",
"428 484 OFFCURVE",
"372 527 OFFCURVE",
"295 527 CURVE SMOOTH",
"240 527 OFFCURVE",
"181 505 OFFCURVE",
"107 459 CURVE",
"115 443 LINE",
"179 484 OFFCURVE",
"239 507 OFFCURVE",
"291 507 CURVE SMOOTH",
"369 507 OFFCURVE",
"416 456 OFFCURVE",
"416 376 CURVE",
"397 345 OFFCURVE",
"382 312 OFFCURVE",
"373 277 CURVE",
"334 289 OFFCURVE",
"286 297 OFFCURVE",
"241 297 CURVE SMOOTH",
"107 297 OFFCURVE",
"1 226 OFFCURVE",
"1 120 CURVE SMOOTH",
"1 51 OFFCURVE",
"46 -10 OFFCURVE",
"137 -10 CURVE SMOOTH"
);
},
{
closed = 1;
nodes = (
"57 10 OFFCURVE",
"21 66 OFFCURVE",
"21 124 CURVE SMOOTH",
"21 217 OFFCURVE",
"112 277 OFFCURVE",
"239 277 CURVE SMOOTH",
"282 277 OFFCURVE",
"328 270 OFFCURVE",
"368 256 CURVE",
"364 236 OFFCURVE",
"362 217 OFFCURVE",
"362 199 CURVE SMOOTH",
"362 177 OFFCURVE",
"365 156 OFFCURVE",
"370 137 CURVE",
"345 63 OFFCURVE",
"227 10 OFFCURVE",
"143 10 CURVE SMOOTH"
);
},
{
closed = 1;
nodes = (
"391 268 LINE",
"427 405 OFFCURVE",
"539 507 OFFCURVE",
"656 507 CURVE SMOOTH",
"771 507 OFFCURVE",
"828 419 OFFCURVE",
"828 325 CURVE SMOOTH",
"828 306 OFFCURVE",
"826 287 OFFCURVE",
"821 268 CURVE"
);
}
);
};
layerId = UUID0;
paths = (
{
closed = 1;
nodes = (
"205 -10 OFFCURVE",
"320 24 OFFCURVE",
"378 111 CURVE",
"406 38 OFFCURVE",
"468 -10 OFFCURVE",
"550 -10 CURVE SMOOTH",
"635 -10 OFFCURVE",
"730 43 OFFCURVE",
"772 114 CURVE",
"754 119 LINE",
"713 55 OFFCURVE",
"631 10 OFFCURVE",
"555 10 CURVE SMOOTH",
"452 10 OFFCURVE",
"384 93 OFFCURVE",
"384 206 CURVE SMOOTH",
"384 219 OFFCURVE",
"385 233 OFFCURVE",
"387 248 CURVE",
"837 248 LINE",
"847 269 OFFCURVE",
"850 306 OFFCURVE",
"850 328 CURVE SMOOTH",
"850 442 OFFCURVE",
"768 527 OFFCURVE",
"659 527 CURVE SMOOTH",
"575 527 OFFCURVE",
"492 477 OFFCURVE",
"435 403 CURVE",
"428 484 OFFCURVE",
"372 527 OFFCURVE",
"295 527 CURVE SMOOTH",
"240 527 OFFCURVE",
"181 505 OFFCURVE",
"107 459 CURVE",
"115 443 LINE",
"179 484 OFFCURVE",
"239 507 OFFCURVE",
"291 507 CURVE SMOOTH",
"369 507 OFFCURVE",
"416 456 OFFCURVE",
"416 376 CURVE",
"397 345 OFFCURVE",
"382 312 OFFCURVE",
"373 277 CURVE",
"334 289 OFFCURVE",
"286 297 OFFCURVE",
"241 297 CURVE SMOOTH",
"107 297 OFFCURVE",
"1 226 OFFCURVE",
"1 120 CURVE SMOOTH",
"1 51 OFFCURVE",
"46 -10 OFFCURVE",
"137 -10 CURVE SMOOTH"
);
},
{
closed = 1;
nodes = (
"57 10 OFFCURVE",
"21 66 OFFCURVE",
"21 124 CURVE SMOOTH",
"21 217 OFFCURVE",
"112 277 OFFCURVE",
"239 277 CURVE SMOOTH",
"282 277 OFFCURVE",
"328 270 OFFCURVE",
"368 256 CURVE",
"364 236 OFFCURVE",
"362 217 OFFCURVE",
"362 199 CURVE SMOOTH",
"362 177 OFFCURVE",
"365 156 OFFCURVE",
"370 137 CURVE",
"345 63 OFFCURVE",
"227 10 OFFCURVE",
"143 10 CURVE SMOOTH"
);
},
{
closed = 1;
nodes = (
"391 268 LINE",
"427 405 OFFCURVE",
"539 507 OFFCURVE",
"656 507 CURVE SMOOTH",
"771 507 OFFCURVE",
"828 419 OFFCURVE",
"828 325 CURVE SMOOTH",
"828 306 OFFCURVE",
"826 287 OFFCURVE",
"821 268 CURVE"
);
}
);
width = 883;
},
{
anchors = (
{
name = top;
position = "{460, 522}";
}
);
background = {
paths = (
{
closed = 1;
nodes = (
"193 -10 OFFCURVE",
"286 20 OFFCURVE",
"350 95 CURVE",
"381 32 OFFCURVE",
"447 -10 OFFCURVE",
"546 -10 CURVE SMOOTH",
"662 -10 OFFCURVE",
"761 48 OFFCURVE",
"817 130 CURVE",
"689 168 LINE",
"668 130 OFFCURVE",
"618 105 OFFCURVE",
"576 105 CURVE SMOOTH",
"528 105 OFFCURVE",
"490 135 OFFCURVE",
"490 190 CURVE SMOOTH",
"490 199 OFFCURVE",
"491 205 OFFCURVE",
"492 213 CURVE",
"857 213 LINE",
"865 233 OFFCURVE",
"879 265 OFFCURVE",
"879 316 CURVE SMOOTH",
"879 435 OFFCURVE",
"806 535 OFFCURVE",
"661 535 CURVE SMOOTH",
"590 535 OFFCURVE",
"527 510 OFFCURVE",
"477 471 CURVE",
"445 512 OFFCURVE",
"391 535 OFFCURVE",
"315 535 CURVE SMOOTH",
"235 535 OFFCURVE",
"158 512 OFFCURVE",
"83 467 CURVE",
"109 367 LINE",
"170 405 OFFCURVE",
"222 425 OFFCURVE",
"276 425 CURVE SMOOTH",
"330 425 OFFCURVE",
"356 403 OFFCURVE",
"356 365 CURVE",
"356 348 OFFCURVE",
"349 331 OFFCURVE",
"345 312 CURVE",
"320 324 OFFCURVE",
"284 332 OFFCURVE",
"244 332 CURVE SMOOTH",
"102 332 OFFCURVE",
"-12 244 OFFCURVE",
"-12 128 CURVE SMOOTH",
"-12 48 OFFCURVE",
"44 -10 OFFCURVE",
"131 -10 CURVE SMOOTH"
);
},
{
closed = 1;
nodes = (
"165 105 OFFCURVE",
"144 129 OFFCURVE",
"144 159 CURVE SMOOTH",
"144 207 OFFCURVE",
"194 243 OFFCURVE",
"251 243 CURVE SMOOTH",
"275 243 OFFCURVE",
"305 237 OFFCURVE",
"327 228 CURVE",
"324 210 OFFCURVE",
"322 194 OFFCURVE",
"322 179 CURVE SMOOTH",
"322 171 OFFCURVE",
"323 164 OFFCURVE",
"324 158 CURVE",
"300 130 OFFCURVE",
"245 105 OFFCURVE",
"204 105 CURVE SMOOTH"
);
},
{
closed = 1;
nodes = (
"509 310 LINE",
"528 376 OFFCURVE",
"577 420 OFFCURVE",
"633 420 CURVE SMOOTH",
"684 420 OFFCURVE",
"713 384 OFFCURVE",
"713 331 CURVE SMOOTH",
"713 322 OFFCURVE",
"713 317 OFFCURVE",
"712 310 CURVE"
);
}
);
};
layerId = "1781503A-446A-42BE-9797-0213F9F6A36C";
paths = (
{
closed = 1;
nodes = (
"193 -10 OFFCURVE",
"286 20 OFFCURVE",
"350 95 CURVE",
"381 32 OFFCURVE",
"447 -10 OFFCURVE",
"546 -10 CURVE SMOOTH",
"662 -10 OFFCURVE",
"761 48 OFFCURVE",
"817 130 CURVE",
"689 168 LINE",
"668 130 OFFCURVE",
"618 105 OFFCURVE",
"576 105 CURVE SMOOTH",
"528 105 OFFCURVE",
"490 135 OFFCURVE",
"490 190 CURVE SMOOTH",
"490 199 OFFCURVE",
"491 205 OFFCURVE",
"492 213 CURVE",
"857 213 LINE",
"866 233 OFFCURVE",
"879 265 OFFCURVE",
"879 316 CURVE SMOOTH",
"879 435 OFFCURVE",
"806 535 OFFCURVE",
"661 535 CURVE SMOOTH",
"590 535 OFFCURVE",
"527 510 OFFCURVE",
"477 471 CURVE",
"445 512 OFFCURVE",
"391 535 OFFCURVE",
"315 535 CURVE SMOOTH",
"235 535 OFFCURVE",
"158 512 OFFCURVE",
"83 467 CURVE",
"109 367 LINE",
"170 405 OFFCURVE",
"222 425 OFFCURVE",
"276 425 CURVE SMOOTH",
"330 425 OFFCURVE",
"356 403 OFFCURVE",
"356 365 CURVE",
"356 348 OFFCURVE",
"349 331 OFFCURVE",
"345 312 CURVE",
"320 324 OFFCURVE",
"284 332 OFFCURVE",
"244 332 CURVE SMOOTH",
"102 332 OFFCURVE",
"-12 244 OFFCURVE",
"-12 128 CURVE SMOOTH",
"-12 48 OFFCURVE",
"44 -10 OFFCURVE",
"131 -10 CURVE SMOOTH"
);
},
{
closed = 1;
nodes = (
"165 105 OFFCURVE",
"144 129 OFFCURVE",
"144 159 CURVE SMOOTH",
"144 207 OFFCURVE",
"194 243 OFFCURVE",
"251 243 CURVE SMOOTH",
"275 243 OFFCURVE",
"305 237 OFFCURVE",
"327 228 CURVE",
"324 210 OFFCURVE",
"322 194 OFFCURVE",
"322 179 CURVE SMOOTH",
"322 171 OFFCURVE",
"323 164 OFFCURVE",
"324 158 CURVE",
"300 130 OFFCURVE",
"245 105 OFFCURVE",
"204 105 CURVE SMOOTH"
);
},
{
closed = 1;
nodes = (
"509 310 LINE",
"528 376 OFFCURVE",
"577 420 OFFCURVE",
"633 420 CURVE SMOOTH",
"684 420 OFFCURVE",
"713 384 OFFCURVE",
"713 331 CURVE SMOOTH",
"713 322 OFFCURVE",
"713 317 OFFCURVE",
"712 310 CURVE"
);
}
);
width = 898;
}
);
leftKerningGroup = a.alt2;
rightKerningGroup = e;
unicode = 00E6;
},
{
glyphname = b;
lastChange = "2016-07-06 18:38:26 +0000";
layers = (
{
background = {
paths = (
{
closed = 1;
nodes = (
"379 -10 OFFCURVE",
"529 146 OFFCURVE",
"529 313 CURVE SMOOTH",
"529 417 OFFCURVE",
"471 527 OFFCURVE",
"349 527 CURVE SMOOTH",
"264 527 OFFCURVE",
"188 473 OFFCURVE",
"122 398 CURVE",
"192 730 LINE",
"172 730 LINE",
"17 0 LINE",
"37 0 LINE",
"60 108 LINE",
"84 46 OFFCURVE",
"143 -10 OFFCURVE",
"231 -10 CURVE SMOOTH"
);
},
{
closed = 1;
nodes = (
"151 10 OFFCURVE",
"82 60 OFFCURVE",
"68 141 CURVE",
"114 366 LINE",
"179 440 OFFCURVE",
"251 507 OFFCURVE",
"342 507 CURVE SMOOTH",
"449 507 OFFCURVE",
"508 413 OFFCURVE",
"508 312 CURVE SMOOTH",
"508 161 OFFCURVE",
"375 10 OFFCURVE",
"233 10 CURVE SMOOTH"
);
}
);
};
layerId = UUID0;
paths = (
{
closed = 1;
nodes = (
"379 -10 OFFCURVE",
"529 146 OFFCURVE",
"529 313 CURVE SMOOTH",
"529 417 OFFCURVE",
"471 527 OFFCURVE",
"349 527 CURVE SMOOTH",
"264 527 OFFCURVE",
"188 473 OFFCURVE",
"122 398 CURVE",
"192 730 LINE",
"172 730 LINE",
"17 0 LINE",
"37 0 LINE",
"60 108 LINE",
"84 46 OFFCURVE",
"143 -10 OFFCURVE",
"231 -10 CURVE SMOOTH"
);
},
{
closed = 1;
nodes = (
"151 10 OFFCURVE",
"82 60 OFFCURVE",
"68 141 CURVE",
"114 366 LINE",
"179 440 OFFCURVE",
"251 507 OFFCURVE",
"342 507 CURVE SMOOTH",
"449 507 OFFCURVE",
"508 413 OFFCURVE",
"508 312 CURVE SMOOTH",
"508 161 OFFCURVE",
"375 10 OFFCURVE",
"233 10 CURVE SMOOTH"
);
}
);
width = 576;
},
{
background = {
paths = (
{
closed = 1;
nodes = (
"448 -10 OFFCURVE",
"591 139 OFFCURVE",
"591 323 CURVE SMOOTH",
"591 443 OFFCURVE",
"531 535 OFFCURVE",
"421 535 CURVE SMOOTH",
"352 535 OFFCURVE",
"286 497 OFFCURVE",
"243 439 CURVE",
"305 730 LINE",
"145 730 LINE",
"-10 0 LINE",
"130 0 LINE",
"148 87 LINE",
"167 26 OFFCURVE",
"217 -10 OFFCURVE",
"293 -10 CURVE SMOOTH"
);
},
{
closed = 1;
nodes = (
"234 125 OFFCURVE",
"205 153 OFFCURVE",
"192 198 CURVE",
"216 308 LINE",
"247 360 OFFCURVE",
"297 399 OFFCURVE",
"342 399 CURVE SMOOTH",
"393 399 OFFCURVE",
"423 351 OFFCURVE",
"423 291 CURVE SMOOTH",
"423 201 OFFCURVE",
"354 125 OFFCURVE",
"279 125 CURVE SMOOTH"
);
}
);
};
layerId = "1781503A-446A-42BE-9797-0213F9F6A36C";
paths = (
{
closed = 1;
nodes = (
"448 -10 OFFCURVE",
"591 139 OFFCURVE",
"591 323 CURVE SMOOTH",
"591 443 OFFCURVE",
"531 535 OFFCURVE",
"421 535 CURVE SMOOTH",
"352 535 OFFCURVE",
"286 497 OFFCURVE",
"243 439 CURVE",
"305 730 LINE",
"145 730 LINE",
"-10 0 LINE",
"130 0 LINE",
"148 87 LINE",
"167 26 OFFCURVE",
"217 -10 OFFCURVE",
"293 -10 CURVE SMOOTH"
);
},
{
closed = 1;
nodes = (
"234 125 OFFCURVE",
"205 153 OFFCURVE",
"192 198 CURVE",
"216 308 LINE",
"247 360 OFFCURVE",
"297 399 OFFCURVE",
"342 399 CURVE SMOOTH",
"393 399 OFFCURVE",
"423 351 OFFCURVE",
"423 291 CURVE SMOOTH",
"423 201 OFFCURVE",
"354 125 OFFCURVE",
"279 125 CURVE SMOOTH"
);
}
);
width = 619;
}
);
leftKerningGroup = h;
rightKerningGroup = b;
unicode = 0062;
},
{
glyphname = c;
lastChange = "2016-07-06 18:38:26 +0000";
layers = (
{
anchors = (
{
name = bottom;
position = "{222, 0}";
},
{
name = top;
position = "{330, 519}";
}
);
background = {
paths = (
{
closed = 1;
nodes = (
"304 -10 OFFCURVE",
"399 43 OFFCURVE",
"436 113 CURVE",
"417 119 LINE",
"390 62 OFFCURVE",
"297 10 OFFCURVE",
"220 10 CURVE SMOOTH",
"120 10 OFFCURVE",
"51 101 OFFCURVE",
"51 214 CURVE SMOOTH",
"51 372 OFFCURVE",
"186 507 OFFCURVE",
"325 507 CURVE SMOOTH",
"397 507 OFFCURVE",
"453 468 OFFCURVE",
"471 404 CURVE",
"493 411 LINE",
"475 484 OFFCURVE",
"415 527 OFFCURVE",
"332 527 CURVE SMOOTH",
"177 527 OFFCURVE",
"31 382 OFFCURVE",
"31 210 CURVE SMOOTH",
"31 88 OFFCURVE",
"107 -10 OFFCURVE",
"219 -10 CURVE SMOOTH"
);
}
);
};
layerId = UUID0;
paths = (
{
closed = 1;
nodes = (
"304 -10 OFFCURVE",
"399 43 OFFCURVE",
"436 113 CURVE",
"417 119 LINE",
"390 62 OFFCURVE",
"297 10 OFFCURVE",
"220 10 CURVE SMOOTH",
"120 10 OFFCURVE",
"51 101 OFFCURVE",
"51 214 CURVE SMOOTH",
"51 372 OFFCURVE",
"186 507 OFFCURVE",
"325 507 CURVE SMOOTH",
"397 507 OFFCURVE",
"453 468 OFFCURVE",
"471 404 CURVE",
"493 411 LINE",
"475 484 OFFCURVE",
"415 527 OFFCURVE",
"332 527 CURVE SMOOTH",
"177 527 OFFCURVE",
"31 382 OFFCURVE",
"31 210 CURVE SMOOTH",
"31 88 OFFCURVE",
"107 -10 OFFCURVE",
"219 -10 CURVE SMOOTH"
);
}
);
width = 514;
},
{
anchors = (
{
name = bottom;
position = "{238, 0}";
},
{
name = top;
position = "{345, 522}";
}
);
background = {
paths = (
{
closed = 1;
nodes = (
"346 -10 OFFCURVE",
"440 48 OFFCURVE",
"496 129 CURVE",
"350 177 LINE",
"329 146 OFFCURVE",
"292 125 OFFCURVE",
"257 125 CURVE SMOOTH",
"209 125 OFFCURVE",
"177 167 OFFCURVE",
"177 229 CURVE SMOOTH",
"177 327 OFFCURVE",
"245 399 OFFCURVE",
"315 399 CURVE SMOOTH",
"350 399 OFFCURVE",
"375 381 OFFCURVE",
"387 349 CURVE",
"552 396 LINE",
"530 478 OFFCURVE",
"461 535 OFFCURVE",
"345 535 CURVE SMOOTH",
"147 535 OFFCURVE",
"11 375 OFFCURVE",
"11 211 CURVE SMOOTH",
"11 91 OFFCURVE",
"84 -10 OFFCURVE",
"230 -10 CURVE SMOOTH"
);
}
);
};
layerId = "1781503A-446A-42BE-9797-0213F9F6A36C";
paths = (
{
closed = 1;
nodes = (
"346 -10 OFFCURVE",
"440 48 OFFCURVE",
"496 129 CURVE",
"350 177 LINE",
"329 146 OFFCURVE",
"292 125 OFFCURVE",
"257 125 CURVE SMOOTH",
"209 125 OFFCURVE",
"177 167 OFFCURVE",
"177 229 CURVE SMOOTH",
"177 327 OFFCURVE",
"245 399 OFFCURVE",
"315 399 CURVE SMOOTH",
"350 399 OFFCURVE",
"375 381 OFFCURVE",
"387 349 CURVE",
"552 396 LINE",
"530 478 OFFCURVE",
"461 535 OFFCURVE",
"345 535 CURVE SMOOTH",
"147 535 OFFCURVE",
"11 375 OFFCURVE",
"11 211 CURVE SMOOTH",
"11 91 OFFCURVE",
"84 -10 OFFCURVE",
"230 -10 CURVE SMOOTH"
);
}
);
width = 548;
}
);
leftKerningGroup = o;
rightKerningGroup = c;
unicode = 0063;
},
{
glyphname = d;
lastChange = "2016-07-06 18:38:26 +0000";
layers = (
{
anchors = (
{
name = top;
position = "{333, 519}";
}
);
background = {
paths = (
{
closed = 1;
nodes = (
"293 -10 OFFCURVE",
"379 39 OFFCURVE",
"435 108 CURVE",
"420 37 OFFCURVE",
"420 33 OFFCURVE",
"420 30 CURVE SMOOTH",
"420 17 OFFCURVE",
"425 6 OFFCURVE",
"436 2 CURVE SMOOTH",
"439 1 OFFCURVE",
"443 0 OFFCURVE",
"448 0 CURVE",
"452 20 LINE",
"444 20 OFFCURVE",
"440 25 OFFCURVE",
"440 33 CURVE SMOOTH",
"440 35 OFFCURVE",
"440 39 OFFCURVE",
"441 43 CURVE SMOOTH",
"588 730 LINE",
"567 730 LINE",
"497 398 LINE",
"472 467 OFFCURVE",
"413 527 OFFCURVE",
"323 527 CURVE SMOOTH",
"171 527 OFFCURVE",
"31 370 OFFCURVE",
"31 211 CURVE SMOOTH",
"31 97 OFFCURVE",
"100 -10 OFFCURVE",
"218 -10 CURVE SMOOTH"
);
},
{
closed = 1;
nodes = (
"119 10 OFFCURVE",
"51 104 OFFCURVE",
"51 213 CURVE SMOOTH",
"51 351 OFFCURVE",
"172 507 OFFCURVE",
"319 507 CURVE SMOOTH",
"399 507 OFFCURVE",
"477 439 OFFCURVE",
"488 356 CURVE",
"448 169 LINE",
"425 84 OFFCURVE",
"299 10 OFFCURVE",
"222 10 CURVE SMOOTH"
);
}
);
};
layerId = UUID0;
paths = (
{
closed = 1;
nodes = (
"293 -10 OFFCURVE",
"379 39 OFFCURVE",
"435 108 CURVE",
"420 37 OFFCURVE",
"420 33 OFFCURVE",
"420 30 CURVE SMOOTH",
"420 17 OFFCURVE",
"425 6 OFFCURVE",
"436 2 CURVE SMOOTH",
"439 1 OFFCURVE",
"443 0 OFFCURVE",
"448 0 CURVE",
"452 20 LINE",
"444 20 OFFCURVE",
"440 25 OFFCURVE",
"440 33 CURVE SMOOTH",
"440 35 OFFCURVE",
"440 39 OFFCURVE",
"441 43 CURVE SMOOTH",
"588 730 LINE",
"567 730 LINE",
"497 398 LINE",
"472 467 OFFCURVE",
"413 527 OFFCURVE",
"323 527 CURVE SMOOTH",
"171 527 OFFCURVE",
"31 370 OFFCURVE",
"31 211 CURVE SMOOTH",
"31 97 OFFCURVE",
"100 -10 OFFCURVE",
"218 -10 CURVE SMOOTH"
);
},
{
closed = 1;
nodes = (
"119 10 OFFCURVE",
"51 104 OFFCURVE",
"51 213 CURVE SMOOTH",
"51 351 OFFCURVE",
"172 507 OFFCURVE",
"319 507 CURVE SMOOTH",
"399 507 OFFCURVE",
"477 439 OFFCURVE",
"488 356 CURVE",
"448 169 LINE",
"425 84 OFFCURVE",
"299 10 OFFCURVE",
"222 10 CURVE SMOOTH"
);
}
);
width = 579;
},
{
anchors = (
{
name = top;
position = "{557, 522}";
}
);
background = {
paths = (
{
closed = 1;
nodes = (
"264 -10 OFFCURVE",
"335 22 OFFCURVE",
"384 87 CURVE",
"381 73 OFFCURVE",
"380 64 OFFCURVE",
"380 56 CURVE SMOOTH",
"380 11 OFFCURVE",
"415 -8 OFFCURVE",
"466 -8 CURVE SMOOTH",
"482 -8 OFFCURVE",
"504 -6 OFFCURVE",
"534 0 CURVE",
"562 135 LINE",
"544 136 OFFCURVE",
"537 143 OFFCURVE",
"537 159 CURVE SMOOTH",
"537 165 OFFCURVE",
"538 171 OFFCURVE",
"539 180 CURVE SMOOTH",
"657 730 LINE",
"496 730 LINE",
"434 439 LINE",
"416 497 OFFCURVE",
"365 535 OFFCURVE",
"297 535 CURVE SMOOTH",
"145 535 OFFCURVE",
"11 380 OFFCURVE",
"11 203 CURVE SMOOTH",
"11 81 OFFCURVE",
"81 -10 OFFCURVE",
"197 -10 CURVE SMOOTH"
);
},
{
closed = 1;
nodes = (
"213 125 OFFCURVE",
"180 169 OFFCURVE",
"180 229 CURVE SMOOTH",
"180 316 OFFCURVE",
"247 399 OFFCURVE",
"320 399 CURVE SMOOTH",
"363 399 OFFCURVE",
"400 361 OFFCURVE",
"407 308 CURVE",
"384 198 LINE",
"353 153 OFFCURVE",
"309 125 OFFCURVE",
"269 125 CURVE SMOOTH"
);
}
);
};
layerId = "1781503A-446A-42BE-9797-0213F9F6A36C";
paths = (
{
closed = 1;
nodes = (
"264 -10 OFFCURVE",
"335 22 OFFCURVE",
"384 87 CURVE",
"381 73 OFFCURVE",
"380 64 OFFCURVE",
"380 56 CURVE SMOOTH",
"380 11 OFFCURVE",
"415 -8 OFFCURVE",
"466 -8 CURVE SMOOTH",
"482 -8 OFFCURVE",
"504 -6 OFFCURVE",
"534 0 CURVE",
"562 135 LINE",
"544 136 OFFCURVE",
"537 143 OFFCURVE",
"537 159 CURVE SMOOTH",
"537 165 OFFCURVE",
"538 171 OFFCURVE",
"539 180 CURVE SMOOTH",
"657 730 LINE",
"496 730 LINE",
"434 439 LINE",
"416 497 OFFCURVE",
"365 535 OFFCURVE",
"297 535 CURVE SMOOTH",
"145 535 OFFCURVE",
"11 380 OFFCURVE",
"11 203 CURVE SMOOTH",
"11 81 OFFCURVE",
"81 -10 OFFCURVE",
"197 -10 CURVE SMOOTH"
);
},
{
closed = 1;
nodes = (
"213 125 OFFCURVE",
"180 169 OFFCURVE",
"180 229 CURVE SMOOTH",
"180 316 OFFCURVE",
"247 399 OFFCURVE",
"320 399 CURVE SMOOTH",
"363 399 OFFCURVE",
"400 361 OFFCURVE",
"407 308 CURVE",
"384 198 LINE",
"353 153 OFFCURVE",
"309 125 OFFCURVE",
"269 125 CURVE SMOOTH"
);
}
);
width = 634;
}
);
leftKerningGroup = a;
rightKerningGroup = d;
unicode = 0064;
},
{
glyphname = eth;
lastChange = "2016-07-06 18:38:26 +0000";
layers = (
{
background = {
paths = (
{
closed = 1;
nodes = (
"524 490 OFFCURVE",
"480 621 OFFCURVE",
"330 730 CURVE",
"301 730 LINE",
"466 614 OFFCURVE",
"506 499 OFFCURVE",
"506 390 CURVE SMOOTH",
"506 369 OFFCURVE",
"505 350 OFFCURVE",
"503 330 CURVE",
"488 415 OFFCURVE",
"417 475 OFFCURVE",
"319 475 CURVE SMOOTH",
"175 475 OFFCURVE",
"27 341 OFFCURVE",
"27 190 CURVE SMOOTH",
"27 80 OFFCURVE",
"103 -10 OFFCURVE",
"216 -10 CURVE SMOOTH",
"362 -10 OFFCURVE",
"524 134 OFFCURVE",
"524 369 CURVE SMOOTH"
);
},
{
closed = 1;
nodes = (
"47 331 OFFCURVE",
"183 455 OFFCURVE",
"315 455 CURVE SMOOTH",
"417 455 OFFCURVE",
"490 377 OFFCURVE",
"490 280 CURVE SMOOTH",
"490 143 OFFCURVE",
"352 10 OFFCURVE",
"219 10 CURVE SMOOTH",
"117 10 OFFCURVE",
"47 91 OFFCURVE",
"47 192 CURVE SMOOTH"
);
},
{
closed = 1;
nodes = (
"527 713 LINE",
"415 645 LINE",
"410 642 LINE",
"275 561 LINE",
"282 547 LINE",
"420 630 LINE",
"425 633 LINE",
"534 699 LINE"
);
}
);
};
layerId = UUID0;
paths = (
{
closed = 1;
nodes = (
"524 490 OFFCURVE",
"480 621 OFFCURVE",
"330 730 CURVE",
"301 730 LINE",
"466 614 OFFCURVE",
"506 499 OFFCURVE",
"506 390 CURVE SMOOTH",
"506 369 OFFCURVE",
"505 350 OFFCURVE",
"503 330 CURVE",
"488 415 OFFCURVE",
"417 475 OFFCURVE",
"319 475 CURVE SMOOTH",
"175 475 OFFCURVE",
"27 341 OFFCURVE",
"27 190 CURVE SMOOTH",
"27 80 OFFCURVE",
"103 -10 OFFCURVE",
"216 -10 CURVE SMOOTH",
"362 -10 OFFCURVE",
"524 134 OFFCURVE",
"524 369 CURVE SMOOTH"
);
},
{
closed = 1;
nodes = (
"47 331 OFFCURVE",
"183 455 OFFCURVE",
"315 455 CURVE SMOOTH",
"417 455 OFFCURVE",
"490 377 OFFCURVE",
"490 280 CURVE SMOOTH",
"490 143 OFFCURVE",
"352 10 OFFCURVE",
"219 10 CURVE SMOOTH",
"117 10 OFFCURVE",
"47 91 OFFCURVE",
"47 192 CURVE SMOOTH"
);
},
{
closed = 1;
nodes = (
"527 713 LINE",
"275 561 LINE",
"282 547 LINE",
"534 699 LINE"
);
}
);
width = 568;
},
{
background = {
paths = (
{
closed = 1;
nodes = (
"574 518 OFFCURVE",
"516 667 OFFCURVE",
"408 730 CURVE",
"211 730 LINE",
"335 653 OFFCURVE",
"396 570 OFFCURVE",
"417 472 CURVE SMOOTH",
"421 452 OFFCURVE",
"423 430 OFFCURVE",
"424 408 CURVE",
"397 447 OFFCURVE",
"348 472 OFFCURVE",
"292 472 CURVE SMOOTH",
"146 472 OFFCURVE",
"8 342 OFFCURVE",
"8 191 CURVE SMOOTH",
"8 74 OFFCURVE",
"94 -10 OFFCURVE",
"229 -10 CURVE SMOOTH",
"427 -10 OFFCURVE",
"574 143 OFFCURVE",
"574 377 CURVE SMOOTH"
);
},
{
closed = 1;
nodes = (
"175 286 OFFCURVE",
"234 344 OFFCURVE",
"306 344 CURVE SMOOTH",
"359 344 OFFCURVE",
"390 309 OFFCURVE",
"390 258 CURVE SMOOTH",
"390 185 OFFCURVE",
"331 125 OFFCURVE",
"259 125 CURVE SMOOTH",
"207 125 OFFCURVE",
"175 161 OFFCURVE",
"175 212 CURVE SMOOTH"
);
},
{
closed = 1;
nodes = (
"561 712 LINE",
"433 648 LINE",
"385 635 LINE",
"269 577 LINE",
"301 516 LINE",
"418 575 LINE",
"470 590 LINE",
"593 651 LINE"
);
}
);
};
layerId = "1781503A-446A-42BE-9797-0213F9F6A36C";
paths = (
{
closed = 1;
nodes = (
"574 518 OFFCURVE",
"516 667 OFFCURVE",
"408 730 CURVE",
"211 730 LINE",
"335 653 OFFCURVE",
"396 570 OFFCURVE",
"417 472 CURVE SMOOTH",
"421 452 OFFCURVE",
"423 430 OFFCURVE",
"424 408 CURVE",
"397 447 OFFCURVE",
"348 472 OFFCURVE",
"292 472 CURVE SMOOTH",
"146 472 OFFCURVE",
"8 342 OFFCURVE",
"8 191 CURVE SMOOTH",
"8 74 OFFCURVE",
"94 -10 OFFCURVE",
"229 -10 CURVE SMOOTH",
"427 -10 OFFCURVE",
"574 143 OFFCURVE",
"574 377 CURVE SMOOTH"
);
},
{
closed = 1;
nodes = (
"175 286 OFFCURVE",
"234 344 OFFCURVE",
"306 344 CURVE SMOOTH",
"359 344 OFFCURVE",
"390 309 OFFCURVE",
"390 258 CURVE SMOOTH",
"390 185 OFFCURVE",
"331 125 OFFCURVE",
"259 125 CURVE SMOOTH",
"207 125 OFFCURVE",
"175 161 OFFCURVE",
"175 212 CURVE SMOOTH"
);
},
{
closed = 1;
nodes = (
"561 712 LINE",
"433 648 LINE",
"385 635 LINE",
"269 577 LINE",
"301 516 LINE",
"418 575 LINE",
"470 590 LINE",
"593 651 LINE"
);
}
);
width = 597;
}
);
unicode = 00F0;
},
{
glyphname = dcroat;
lastChange = "2016-07-06 18:38:26 +0000";
layers = (
{
background = {
paths = (
{
closed = 1;
nodes = (
"429 633 LINE",
"639 633 LINE",
"643 653 LINE",
"433 653 LINE"
);
},
{
closed = 1;
nodes = (
"293 -10 OFFCURVE",
"379 39 OFFCURVE",
"435 108 CURVE",
"421 40 LINE SMOOTH",
"420 37 OFFCURVE",
"420 33 OFFCURVE",
"420 30 CURVE SMOOTH",
"420 13 OFFCURVE",
"428 0 OFFCURVE",
"448 0 CURVE",
"452 20 LINE",
"444 20 OFFCURVE",
"440 25 OFFCURVE",
"440 33 CURVE SMOOTH",
"440 35 OFFCURVE",
"440 38 OFFCURVE",
"441 40 CURVE SMOOTH",
"588 730 LINE",
"567 730 LINE",
"497 398 LINE",
"472 467 OFFCURVE",
"413 527 OFFCURVE",
"323 527 CURVE SMOOTH",
"171 527 OFFCURVE",
"31 370 OFFCURVE",
"31 211 CURVE SMOOTH",
"31 97 OFFCURVE",
"100 -10 OFFCURVE",
"218 -10 CURVE SMOOTH"
);
},
{
closed = 1;
nodes = (
"119 10 OFFCURVE",
"51 104 OFFCURVE",
"51 213 CURVE SMOOTH",
"51 351 OFFCURVE",
"172 507 OFFCURVE",
"319 507 CURVE SMOOTH",
"399 507 OFFCURVE",
"477 439 OFFCURVE",
"488 356 CURVE",
"448 169 LINE",
"425 84 OFFCURVE",
"299 10 OFFCURVE",
"222 10 CURVE SMOOTH"
);
}
);
};
layerId = UUID0;
paths = (
{
closed = 1;
nodes = (
"429 633 LINE",
"639 633 LINE",
"643 653 LINE",
"433 653 LINE"
);
},
{
closed = 1;
nodes = (
"293 -10 OFFCURVE",
"379 39 OFFCURVE",
"435 108 CURVE",
"421 40 LINE SMOOTH",
"420 37 OFFCURVE",
"420 33 OFFCURVE",
"420 30 CURVE SMOOTH",
"420 13 OFFCURVE",
"428 0 OFFCURVE",
"448 0 CURVE",
"452 20 LINE",
"444 20 OFFCURVE",
"440 25 OFFCURVE",
"440 33 CURVE SMOOTH",
"440 35 OFFCURVE",
"440 38 OFFCURVE",
"441 40 CURVE SMOOTH",
"588 730 LINE",
"567 730 LINE",
"497 398 LINE",
"472 467 OFFCURVE",
"413 527 OFFCURVE",
"323 527 CURVE SMOOTH",
"171 527 OFFCURVE",
"31 370 OFFCURVE",
"31 211 CURVE SMOOTH",
"31 97 OFFCURVE",
"100 -10 OFFCURVE",
"218 -10 CURVE SMOOTH"
);
},
{
closed = 1;
nodes = (
"119 10 OFFCURVE",
"51 104 OFFCURVE",
"51 213 CURVE SMOOTH",
"51 351 OFFCURVE",
"172 507 OFFCURVE",
"319 507 CURVE SMOOTH",
"399 507 OFFCURVE",
"477 439 OFFCURVE",
"488 356 CURVE",
"448 169 LINE",
"425 84 OFFCURVE",
"299 10 OFFCURVE",
"222 10 CURVE SMOOTH"
);
}
);
width = 579;
},
{
background = {
paths = (
{
closed = 1;
nodes = (
"389 585 LINE",
"693 585 LINE",
"713 679 LINE",
"409 679 LINE"
);
},
{
closed = 1;
nodes = (
"264 -10 OFFCURVE",
"335 22 OFFCURVE",
"384 87 CURVE",
"382 78 OFFCURVE",
"382 59 OFFCURVE",
"382 57 CURVE SMOOTH",
"382 14 OFFCURVE",
"410 -8 OFFCURVE",
"466 -8 CURVE SMOOTH",
"482 -8 OFFCURVE",
"504 -6 OFFCURVE",
"534 0 CURVE",
"562 135 LINE",
"544 136 OFFCURVE",
"537 143 OFFCURVE",
"537 159 CURVE SMOOTH",
"537 165 OFFCURVE",
"538 171 OFFCURVE",
"539 180 CURVE SMOOTH",
"657 730 LINE",
"496 730 LINE",
"434 439 LINE",
"416 497 OFFCURVE",
"365 535 OFFCURVE",
"297 535 CURVE SMOOTH",
"145 535 OFFCURVE",
"11 380 OFFCURVE",
"11 203 CURVE SMOOTH",
"11 81 OFFCURVE",
"81 -10 OFFCURVE",
"197 -10 CURVE SMOOTH"
);
},
{
closed = 1;
nodes = (
"213 125 OFFCURVE",
"180 169 OFFCURVE",
"180 229 CURVE SMOOTH",
"180 316 OFFCURVE",
"247 399 OFFCURVE",
"320 399 CURVE SMOOTH",
"363 399 OFFCURVE",
"400 361 OFFCURVE",
"407 308 CURVE",
"384 198 LINE",
"353 153 OFFCURVE",
"309 125 OFFCURVE",
"269 125 CURVE SMOOTH"
);
}
);
};
layerId = "1781503A-446A-42BE-9797-0213F9F6A36C";
paths = (
{
closed = 1;
nodes = (
"389 585 LINE",
"693 585 LINE",
"713 679 LINE",
"409 679 LINE"
);
},
{
closed = 1;
nodes = (
"264 -10 OFFCURVE",
"335 22 OFFCURVE",
"384 87 CURVE",
"382 78 OFFCURVE",
"382 59 OFFCURVE",
"382 57 CURVE SMOOTH",
"382 14 OFFCURVE",
"410 -8 OFFCURVE",
"466 -8 CURVE SMOOTH",
"482 -8 OFFCURVE",
"504 -6 OFFCURVE",
"534 0 CURVE",
"562 135 LINE",
"544 136 OFFCURVE",
"537 143 OFFCURVE",
"537 159 CURVE SMOOTH",
"537 165 OFFCURVE",
"538 171 OFFCURVE",
"539 180 CURVE SMOOTH",
"657 730 LINE",
"496 730 LINE",
"434 439 LINE",
"416 497 OFFCURVE",
"365 535 OFFCURVE",
"297 535 CURVE SMOOTH",
"145 535 OFFCURVE",
"11 380 OFFCURVE",
"11 203 CURVE SMOOTH",
"11 81 OFFCURVE",
"81 -10 OFFCURVE",
"197 -10 CURVE SMOOTH"
);
},
{
closed = 1;
nodes = (
"213 125 OFFCURVE",
"180 169 OFFCURVE",
"180 229 CURVE SMOOTH",
"180 316 OFFCURVE",
"247 399 OFFCURVE",
"320 399 CURVE SMOOTH",
"363 399 OFFCURVE",
"400 361 OFFCURVE",
"407 308 CURVE",
"384 198 LINE",
"353 153 OFFCURVE",
"309 125 OFFCURVE",
"269 125 CURVE SMOOTH"
);
}
);
width = 634;
}
);
leftKerningGroup = a;
rightKerningGroup = d;
unicode = 0111;
},
{
glyphname = e;
lastChange = "2016-07-06 18:38:26 +0000";
layers = (
{
anchors = (
{
name = bottom;
position = "{220, 0}";
},
{
name = top;
position = "{328, 519}";
}
);
background = {
paths = (
{
closed = 1;
nodes = (
"310 -10 OFFCURVE",
"400 42 OFFCURVE",
"445 122 CURVE",
"426 128 LINE",
"387 56 OFFCURVE",
"300 10 OFFCURVE",
"227 10 CURVE SMOOTH",
"112 10 OFFCURVE",
"52 102 OFFCURVE",
"52 211 CURVE SMOOTH",
"52 352 OFFCURVE",
"176 507 OFFCURVE",
"329 507 CURVE SMOOTH",
"388 507 OFFCURVE",
"465 472 OFFCURVE",
"465 391 CURVE SMOOTH",
"465 319 OFFCURVE",
"404 268 OFFCURVE",
"227 268 CURVE SMOOTH",
"176 268 OFFCURVE",
"125 270 OFFCURVE",
"57 274 CURVE",
"37 255 LINE",
"113 250 OFFCURVE",
"169 248 OFFCURVE",
"224 248 CURVE SMOOTH",
"400 248 OFFCURVE",
"486 297 OFFCURVE",
"486 390 CURVE SMOOTH",
"486 480 OFFCURVE",
"401 527 OFFCURVE",
"333 527 CURVE SMOOTH",
"161 527 OFFCURVE",
"31 368 OFFCURVE",
"31 210 CURVE SMOOTH",
"31 90 OFFCURVE",
"101 -10 OFFCURVE",
"220 -10 CURVE SMOOTH"
);
}
);
};
layerId = UUID0;
paths = (
{
closed = 1;
nodes = (
"310 -10 OFFCURVE",
"400 42 OFFCURVE",
"445 122 CURVE",
"426 128 LINE",
"387 56 OFFCURVE",
"300 10 OFFCURVE",
"227 10 CURVE SMOOTH",
"112 10 OFFCURVE",
"52 102 OFFCURVE",
"52 211 CURVE SMOOTH",
"52 352 OFFCURVE",
"176 507 OFFCURVE",
"329 507 CURVE SMOOTH",
"388 507 OFFCURVE",
"465 472 OFFCURVE",
"465 391 CURVE SMOOTH",
"465 319 OFFCURVE",
"404 268 OFFCURVE",
"227 268 CURVE SMOOTH",
"176 268 OFFCURVE",
"125 270 OFFCURVE",
"57 274 CURVE",
"37 255 LINE",
"113 250 OFFCURVE",
"169 248 OFFCURVE",
"224 248 CURVE SMOOTH",
"400 248 OFFCURVE",
"486 297 OFFCURVE",
"486 390 CURVE SMOOTH",
"486 480 OFFCURVE",
"401 527 OFFCURVE",
"333 527 CURVE SMOOTH",
"161 527 OFFCURVE",
"31 368 OFFCURVE",
"31 210 CURVE SMOOTH",
"31 90 OFFCURVE",
"101 -10 OFFCURVE",
"220 -10 CURVE SMOOTH"
);
}
);
width = 521;
},
{
anchors = (
{
name = bottom;
position = "{241, 0}";
},
{
name = top;
position = "{348, 522}";
}
);
background = {
paths = (
{
closed = 1;
nodes = (
"338 -10 OFFCURVE",
"447 46 OFFCURVE",
"503 129 CURVE",
"377 169 LINE",
"352 129 OFFCURVE",
"309 105 OFFCURVE",
"261 105 CURVE SMOOTH",
"202 105 OFFCURVE",
"178 142 OFFCURVE",
"178 205 CURVE SMOOTH",
"178 313 OFFCURVE",
"234 420 OFFCURVE",
"324 420 CURVE SMOOTH",
"363 420 OFFCURVE",
"390 402 OFFCURVE",
"390 371 CURVE SMOOTH",
"390 330 OFFCURVE",
"349 310 OFFCURVE",
"232 310 CURVE SMOOTH",
"194 310 OFFCURVE",
"156 312 OFFCURVE",
"119 316 CURVE",
"95 218 LINE",
"143 213 OFFCURVE",
"191 211 OFFCURVE",
"232 211 CURVE SMOOTH",
"439 211 OFFCURVE",
"544 271 OFFCURVE",
"544 385 CURVE SMOOTH",
"544 480 OFFCURVE",
"470 535 OFFCURVE",
"350 535 CURVE SMOOTH",
"161 535 OFFCURVE",
"12 389 OFFCURVE",
"12 212 CURVE SMOOTH",
"12 81 OFFCURVE",
"96 -10 OFFCURVE",
"232 -10 CURVE SMOOTH"
);
}
);
};
layerId = "1781503A-446A-42BE-9797-0213F9F6A36C";
paths = (
{
closed = 1;
nodes = (
"338 -10 OFFCURVE",
"447 46 OFFCURVE",
"503 129 CURVE",
"377 169 LINE",
"352 129 OFFCURVE",
"309 105 OFFCURVE",
"261 105 CURVE SMOOTH",
"202 105 OFFCURVE",
"178 142 OFFCURVE",
"178 205 CURVE SMOOTH",
"178 313 OFFCURVE",
"234 420 OFFCURVE",
"324 420 CURVE SMOOTH",
"363 420 OFFCURVE",
"390 402 OFFCURVE",
"390 371 CURVE SMOOTH",
"390 330 OFFCURVE",
"349 310 OFFCURVE",
"232 310 CURVE SMOOTH",
"194 310 OFFCURVE",
"156 312 OFFCURVE",
"119 316 CURVE",
"95 218 LINE",
"143 213 OFFCURVE",
"191 211 OFFCURVE",
"232 211 CURVE SMOOTH",
"439 211 OFFCURVE",
"544 271 OFFCURVE",
"544 385 CURVE SMOOTH",
"544 480 OFFCURVE",
"470 535 OFFCURVE",
"350 535 CURVE SMOOTH",
"161 535 OFFCURVE",
"12 389 OFFCURVE",
"12 212 CURVE SMOOTH",
"12 81 OFFCURVE",
"96 -10 OFFCURVE",
"232 -10 CURVE SMOOTH"
);
}
);
width = 558;
}
);
leftKerningGroup = o;
rightKerningGroup = e;
unicode = 0065;
},
{
glyphname = f;
lastChange = "2016-07-06 18:38:26 +0000";
layers = (
{
background = {
paths = (
{
closed = 1;
nodes = (
"-12 -213 LINE",
"8 -213 LINE",
"159 499 LINE",
"306 499 LINE",
"310 519 LINE",
"164 519 LINE",
"168 540 LINE SMOOTH",
"191 657 OFFCURVE",
"246 721 OFFCURVE",
"318 721 CURVE SMOOTH",
"347 721 OFFCURVE",
"374 710 OFFCURVE",
"386 694 CURVE",
"404 706 LINE",
"391 726 OFFCURVE",
"357 740 OFFCURVE",
"321 740 CURVE SMOOTH",
"239 740 OFFCURVE",
"173 666 OFFCURVE",
"148 540 CURVE SMOOTH",
"144 519 LINE",
"72 519 LINE",
"68 499 LINE",
"139 499 LINE"
);
}
);
};
layerId = UUID0;
paths = (
{
closed = 1;
nodes = (
"-12 -213 LINE",
"8 -213 LINE",
"159 499 LINE",
"306 499 LINE",
"310 519 LINE",
"164 519 LINE",
"168 540 LINE SMOOTH",
"191 657 OFFCURVE",
"246 721 OFFCURVE",
"318 721 CURVE SMOOTH",
"347 721 OFFCURVE",
"374 710 OFFCURVE",
"386 694 CURVE",
"404 706 LINE",
"391 726 OFFCURVE",
"357 740 OFFCURVE",
"321 740 CURVE SMOOTH",
"239 740 OFFCURVE",
"173 666 OFFCURVE",
"148 540 CURVE SMOOTH",
"144 519 LINE",
"72 519 LINE",
"68 499 LINE",
"139 499 LINE"
);
}
);
width = 292;
},
{
background = {
paths = (
{
closed = 1;
nodes = (
"-24 -213 LINE",
"136 -213 LINE",
"258 361 LINE",
"372 361 LINE",
"398 482 LINE",
"283 482 LINE",
"294 531 LINE SMOOTH",
"304 579 OFFCURVE",
"328 605 OFFCURVE",
"363 605 CURVE SMOOTH",
"383 605 OFFCURVE",
"410 598 OFFCURVE",
"427 589 CURVE",
"482 709 LINE",
"440 729 OFFCURVE",
"398 740 OFFCURVE",
"356 740 CURVE SMOOTH",
"249 740 OFFCURVE",
"160 656 OFFCURVE",
"133 525 CURVE SMOOTH",
"124 482 LINE",
"61 482 LINE",
"35 361 LINE",
"98 361 LINE"
);
}
);
};
layerId = "1781503A-446A-42BE-9797-0213F9F6A36C";
paths = (
{
closed = 1;
nodes = (
"-24 -213 LINE",
"136 -213 LINE",
"258 361 LINE",
"372 361 LINE",
"398 482 LINE",
"283 482 LINE",
"294 531 LINE SMOOTH",
"304 579 OFFCURVE",
"328 605 OFFCURVE",
"363 605 CURVE SMOOTH",
"383 605 OFFCURVE",
"410 598 OFFCURVE",
"427 589 CURVE",
"482 709 LINE",
"440 729 OFFCURVE",
"398 740 OFFCURVE",
"356 740 CURVE SMOOTH",
"249 740 OFFCURVE",
"160 656 OFFCURVE",
"133 525 CURVE SMOOTH",
"124 482 LINE",
"61 482 LINE",
"35 361 LINE",
"98 361 LINE"
);
}
);
width = 376;
}
);
leftKerningGroup = f;
rightKerningGroup = f;
unicode = 0066;
},
{
glyphname = g;
lastChange = "2016-07-06 18:38:26 +0000";
layers = (
{
anchors = (
{
name = top;
position = "{322, 519}";
}
);
background = {
paths = (
{
closed = 1;
nodes = (
"278 -223 OFFCURVE",
"397 -159 OFFCURVE",
"426 -22 CURVE SMOOTH",
"541 519 LINE",
"522 519 LINE",
"496 398 LINE",
"463 469 OFFCURVE",
"411 527 OFFCURVE",
"322 527 CURVE SMOOTH",
"167 527 OFFCURVE",
"30 365 OFFCURVE",
"30 211 CURVE SMOOTH",
"30 97 OFFCURVE",
"99 -10 OFFCURVE",
"216 -10 CURVE SMOOTH",
"291 -10 OFFCURVE",
"378 39 OFFCURVE",
"434 108 CURVE",
"406 -22 LINE SMOOTH",
"380 -141 OFFCURVE",
"278 -203 OFFCURVE",
"170 -203 CURVE SMOOTH",
"90 -203 OFFCURVE",
"21 -171 OFFCURVE",
"-2 -93 CURVE",
"-22 -99 LINE",
"-1 -173 OFFCURVE",
"49 -223 OFFCURVE",
"166 -223 CURVE SMOOTH"
);
},
{
closed = 1;
nodes = (
"117 10 OFFCURVE",
"50 104 OFFCURVE",
"50 213 CURVE SMOOTH",
"50 344 OFFCURVE",
"166 507 OFFCURVE",
"318 507 CURVE SMOOTH",
"402 507 OFFCURVE",
"474 443 OFFCURVE",
"487 356 CURVE",
"447 169 LINE",
"425 95 OFFCURVE",
"314 10 OFFCURVE",
"221 10 CURVE SMOOTH"
);
}
);
};
layerId = UUID0;
paths = (
{
closed = 1;
nodes = (
"278 -223 OFFCURVE",
"397 -159 OFFCURVE",
"426 -22 CURVE SMOOTH",
"541 519 LINE",
"522 519 LINE",
"496 398 LINE",
"463 469 OFFCURVE",
"411 527 OFFCURVE",
"322 527 CURVE SMOOTH",
"167 527 OFFCURVE",
"30 365 OFFCURVE",
"30 211 CURVE SMOOTH",
"30 97 OFFCURVE",
"99 -10 OFFCURVE",
"216 -10 CURVE SMOOTH",
"291 -10 OFFCURVE",
"378 39 OFFCURVE",
"434 108 CURVE",
"406 -22 LINE SMOOTH",
"380 -141 OFFCURVE",
"278 -203 OFFCURVE",
"170 -203 CURVE SMOOTH",
"90 -203 OFFCURVE",
"21 -171 OFFCURVE",
"-2 -93 CURVE",
"-22 -99 LINE",
"-1 -173 OFFCURVE",
"49 -223 OFFCURVE",
"166 -223 CURVE SMOOTH"
);
},
{
closed = 1;
nodes = (
"117 10 OFFCURVE",
"50 104 OFFCURVE",
"50 213 CURVE SMOOTH",
"50 344 OFFCURVE",
"166 507 OFFCURVE",
"318 507 CURVE SMOOTH",
"402 507 OFFCURVE",
"474 443 OFFCURVE",
"487 356 CURVE",
"447 169 LINE",
"425 95 OFFCURVE",
"314 10 OFFCURVE",
"221 10 CURVE SMOOTH"
);
}
);
width = 576;
},
{
anchors = (
{
name = top;
position = "{314, 522}";
}
);
background = {
paths = (
{
closed = 1;
nodes = (
"334 -223 OFFCURVE",
"474 -124 OFFCURVE",
"508 36 CURVE SMOOTH",
"612 525 LINE",
"473 525 LINE",
"454 439 LINE",
"433 499 OFFCURVE",
"383 535 OFFCURVE",
"310 535 CURVE SMOOTH",
"150 535 OFFCURVE",
"12 383 OFFCURVE",
"12 205 CURVE SMOOTH",
"12 89 OFFCURVE",
"75 -2 OFFCURVE",
"183 -2 CURVE SMOOTH",
"248 -2 OFFCURVE",
"317 29 OFFCURVE",
"358 87 CURVE",
"348 36 LINE SMOOTH",
"328 -63 OFFCURVE",
"257 -103 OFFCURVE",
"185 -103 CURVE SMOOTH",
"125 -103 OFFCURVE",
"74 -75 OFFCURVE",
"47 -31 CURVE",
"-57 -118 LINE",
"-14 -185 OFFCURVE",
"53 -223 OFFCURVE",
"160 -223 CURVE SMOOTH"
);
},
{
closed = 1;
nodes = (
"213 125 OFFCURVE",
"179 170 OFFCURVE",
"179 229 CURVE SMOOTH",
"179 313 OFFCURVE",
"245 399 OFFCURVE",
"318 399 CURVE SMOOTH",
"361 399 OFFCURVE",
"398 363 OFFCURVE",
"406 308 CURVE",
"382 198 LINE",
"352 155 OFFCURVE",
"310 125 OFFCURVE",
"267 125 CURVE SMOOTH"
);
}
);
};
layerId = "1781503A-446A-42BE-9797-0213F9F6A36C";
paths = (
{
closed = 1;
nodes = (
"334 -223 OFFCURVE",
"474 -124 OFFCURVE",
"508 36 CURVE SMOOTH",
"612 525 LINE",
"473 525 LINE",
"454 439 LINE",
"433 499 OFFCURVE",
"383 535 OFFCURVE",
"310 535 CURVE SMOOTH",
"150 535 OFFCURVE",
"12 383 OFFCURVE",
"12 205 CURVE SMOOTH",
"12 89 OFFCURVE",
"75 -2 OFFCURVE",
"183 -2 CURVE SMOOTH",
"248 -2 OFFCURVE",
"317 29 OFFCURVE",
"358 87 CURVE",
"348 36 LINE SMOOTH",
"328 -63 OFFCURVE",
"257 -103 OFFCURVE",
"185 -103 CURVE SMOOTH",
"125 -103 OFFCURVE",
"74 -75 OFFCURVE",
"47 -31 CURVE",
"-57 -118 LINE",
"-14 -185 OFFCURVE",
"53 -223 OFFCURVE",
"160 -223 CURVE SMOOTH"
);
},
{
closed = 1;
nodes = (
"213 125 OFFCURVE",
"179 170 OFFCURVE",
"179 229 CURVE SMOOTH",
"179 313 OFFCURVE",
"245 399 OFFCURVE",
"318 399 CURVE SMOOTH",
"361 399 OFFCURVE",
"398 363 OFFCURVE",
"406 308 CURVE",
"382 198 LINE",
"352 155 OFFCURVE",
"310 125 OFFCURVE",
"267 125 CURVE SMOOTH"
);
}
);
width = 618;
}
);
leftKerningGroup = a;
rightKerningGroup = a.alt;
unicode = 0067;
},
{
glyphname = h;
lastChange = "2016-07-06 18:38:26 +0000";
layers = (
{
anchors = (
{
name = top;
position = "{354, 518}";
}
);
background = {
paths = (
{
closed = 1;
nodes = (
"17 0 LINE",
"37 0 LINE",
"107 328 LINE",
"154 429 OFFCURVE",
"260 507 OFFCURVE",
"352 507 CURVE SMOOTH",
"419 507 OFFCURVE",
"454 465 OFFCURVE",
"454 384 CURVE SMOOTH",
"454 357 OFFCURVE",
"449 325 OFFCURVE",
"442 289 CURVE SMOOTH",
"381 0 LINE",
"401 0 LINE",
"462 289 LINE SMOOTH",
"470 326 OFFCURVE",
"474 360 OFFCURVE",
"474 388 CURVE SMOOTH",
"474 480 OFFCURVE",
"434 527 OFFCURVE",
"356 527 CURVE SMOOTH",
"271 527 OFFCURVE",
"178 471 OFFCURVE",
"119 385 CURVE",
"192 730 LINE",
"172 730 LINE"
);
}
);
};
layerId = UUID0;
paths = (
{
closed = 1;
nodes = (
"17 0 LINE",
"37 0 LINE",
"107 328 LINE",
"154 429 OFFCURVE",
"260 507 OFFCURVE",
"352 507 CURVE SMOOTH",
"419 507 OFFCURVE",
"454 465 OFFCURVE",
"454 384 CURVE SMOOTH",
"454 357 OFFCURVE",
"449 325 OFFCURVE",
"442 289 CURVE SMOOTH",
"381 0 LINE",
"401 0 LINE",
"462 289 LINE SMOOTH",
"470 326 OFFCURVE",
"474 360 OFFCURVE",
"474 388 CURVE SMOOTH",
"474 480 OFFCURVE",
"434 527 OFFCURVE",
"356 527 CURVE SMOOTH",
"271 527 OFFCURVE",
"178 471 OFFCURVE",
"119 385 CURVE",
"192 730 LINE",
"172 730 LINE"
);
}
);
width = 540;
},
{
anchors = (
{
name = top;
position = "{405, 521}";
}
);
background = {
paths = (
{
closed = 1;
nodes = (
"-10 0 LINE",
"150 0 LINE",
"214 301 LINE",
"244 357 OFFCURVE",
"301 394 OFFCURVE",
"333 394 CURVE SMOOTH",
"365 394 OFFCURVE",
"385 375 OFFCURVE",
"385 334 CURVE SMOOTH",
"385 322 OFFCURVE",
"383 310 OFFCURVE",
"381 295 CURVE SMOOTH",
"318 0 LINE",
"478 0 LINE",
"549 336 LINE SMOOTH",
"554 362 OFFCURVE",
"558 389 OFFCURVE",
"558 414 CURVE SMOOTH",
"558 479 OFFCURVE",
"531 535 OFFCURVE",
"435 535 CURVE SMOOTH",
"362 535 OFFCURVE",
"292 499 OFFCURVE",
"243 437 CURVE",
"305 730 LINE",
"145 730 LINE"
);
}
);
};
layerId = "1781503A-446A-42BE-9797-0213F9F6A36C";
paths = (
{
closed = 1;
nodes = (
"-10 0 LINE",
"150 0 LINE",
"214 301 LINE",
"244 357 OFFCURVE",
"301 394 OFFCURVE",
"333 394 CURVE SMOOTH",
"365 394 OFFCURVE",
"385 375 OFFCURVE",
"385 334 CURVE SMOOTH",
"385 322 OFFCURVE",
"383 310 OFFCURVE",
"381 295 CURVE SMOOTH",
"318 0 LINE",
"478 0 LINE",
"549 336 LINE SMOOTH",
"554 362 OFFCURVE",
"558 389 OFFCURVE",
"558 414 CURVE SMOOTH",
"558 479 OFFCURVE",
"531 535 OFFCURVE",
"435 535 CURVE SMOOTH",
"362 535 OFFCURVE",
"292 499 OFFCURVE",
"243 437 CURVE",
"305 730 LINE",
"145 730 LINE"
);
}
);
width = 591;
}
);
leftKerningGroup = h;
rightKerningGroup = h;
unicode = 0068;
},
{
glyphname = hbar;
lastChange = "2016-07-06 18:38:26 +0000";
layers = (
{
background = {
paths = (
{
closed = 1;
nodes = (
"82 633 LINE",
"291 633 LINE",
"295 653 LINE",
"86 653 LINE"
);
},
{
closed = 1;
nodes = (
"17 0 LINE",
"37 0 LINE",
"107 328 LINE",
"154 429 OFFCURVE",
"260 507 OFFCURVE",
"352 507 CURVE SMOOTH",
"419 507 OFFCURVE",
"454 465 OFFCURVE",
"454 384 CURVE SMOOTH",
"454 357 OFFCURVE",
"450 325 OFFCURVE",
"442 289 CURVE SMOOTH",
"381 0 LINE",
"401 0 LINE",
"462 289 LINE SMOOTH",
"470 326 OFFCURVE",
"474 360 OFFCURVE",
"474 388 CURVE SMOOTH",
"474 480 OFFCURVE",
"434 527 OFFCURVE",
"356 527 CURVE SMOOTH",
"271 527 OFFCURVE",
"178 471 OFFCURVE",
"119 385 CURVE",
"192 730 LINE",
"172 730 LINE"
);
}
);
};
layerId = UUID0;
paths = (
{
closed = 1;
nodes = (
"82 633 LINE",
"291 633 LINE",
"295 653 LINE",
"86 653 LINE"
);
},
{
closed = 1;
nodes = (
"17 0 LINE",
"37 0 LINE",
"107 328 LINE",
"154 429 OFFCURVE",
"260 507 OFFCURVE",
"352 507 CURVE SMOOTH",
"419 507 OFFCURVE",
"454 465 OFFCURVE",
"454 384 CURVE SMOOTH",
"454 357 OFFCURVE",
"450 325 OFFCURVE",
"442 289 CURVE SMOOTH",
"381 0 LINE",
"401 0 LINE",
"462 289 LINE SMOOTH",
"470 326 OFFCURVE",
"474 360 OFFCURVE",
"474 388 CURVE SMOOTH",
"474 480 OFFCURVE",
"434 527 OFFCURVE",
"356 527 CURVE SMOOTH",
"271 527 OFFCURVE",
"178 471 OFFCURVE",
"119 385 CURVE",
"192 730 LINE",
"172 730 LINE"
);
}
);
width = 540;
},
{
background = {
paths = (
{
closed = 1;
nodes = (
"62 585 LINE",
"366 585 LINE",
"386 679 LINE",
"81 679 LINE"
);
},
{
closed = 1;
nodes = (
"-10 0 LINE",
"150 0 LINE",
"214 301 LINE",
"244 357 OFFCURVE",
"301 394 OFFCURVE",
"333 394 CURVE SMOOTH",
"365 394 OFFCURVE",
"385 375 OFFCURVE",
"385 334 CURVE SMOOTH",
"385 322 OFFCURVE",
"383 310 OFFCURVE",
"381 295 CURVE SMOOTH",
"318 0 LINE",
"478 0 LINE",
"549 336 LINE SMOOTH",
"554 362 OFFCURVE",
"558 389 OFFCURVE",
"558 414 CURVE SMOOTH",
"558 479 OFFCURVE",
"531 535 OFFCURVE",
"435 535 CURVE SMOOTH",
"362 535 OFFCURVE",
"292 499 OFFCURVE",
"243 437 CURVE",
"305 730 LINE",
"145 730 LINE"
);
}
);
};
layerId = "1781503A-446A-42BE-9797-0213F9F6A36C";
paths = (
{
closed = 1;
nodes = (
"62 585 LINE",
"366 585 LINE",
"386 679 LINE",
"81 679 LINE"
);
},
{
closed = 1;
nodes = (
"-10 0 LINE",
"150 0 LINE",
"214 301 LINE",
"244 357 OFFCURVE",
"301 394 OFFCURVE",
"333 394 CURVE SMOOTH",
"365 394 OFFCURVE",
"385 375 OFFCURVE",
"385 334 CURVE SMOOTH",
"385 322 OFFCURVE",
"383 310 OFFCURVE",
"381 295 CURVE SMOOTH",
"318 0 LINE",
"478 0 LINE",
"549 336 LINE SMOOTH",
"554 362 OFFCURVE",
"558 389 OFFCURVE",
"558 414 CURVE SMOOTH",
"558 479 OFFCURVE",
"531 535 OFFCURVE",
"435 535 CURVE SMOOTH",
"362 535 OFFCURVE",
"292 499 OFFCURVE",
"243 437 CURVE",
"305 730 LINE",
"145 730 LINE"
);
}
);
width = 591;
}
);
leftKerningGroup = h;
rightKerningGroup = h;
unicode = 0127;
},
{
glyphname = i;
lastChange = "2016-07-06 18:38:26 +0000";
layers = (
{
anchors = (
{
name = bottom;
position = "{31, 0}";
}
);
background = {
paths = (
{
closed = 1;
nodes = (
"17 0 LINE",
"37 0 LINE",
"147 519 LINE",
"127 519 LINE"
);
},
{
closed = 1;
nodes = (
"156 653 LINE",
"176 653 LINE",
"192 730 LINE",
"172 730 LINE"
);
}
);
};
layerId = UUID0;
paths = (
{
closed = 1;
nodes = (
"17 0 LINE",
"37 0 LINE",
"147 519 LINE",
"127 519 LINE"
);
},
{
closed = 1;
nodes = (
"156 653 LINE",
"176 653 LINE",
"192 730 LINE",
"172 730 LINE"
);
}
);
width = 182;
},
{
background = {
paths = (
{
closed = 1;
nodes = (
"-10 0 LINE",
"150 0 LINE",
"262 525 LINE",
"102 525 LINE"
);
},
{
closed = 1;
nodes = (
"114 585 LINE",
"274 585 LINE",
"305 730 LINE",
"145 730 LINE"
);
}
);
};
layerId = "1781503A-446A-42BE-9797-0213F9F6A36C";
paths = (
{
closed = 1;
nodes = (
"-10 0 LINE",
"150 0 LINE",
"262 525 LINE",
"102 525 LINE"
);
},
{
closed = 1;
nodes = (
"114 585 LINE",
"274 585 LINE",
"305 730 LINE",
"145 730 LINE"
);
}
);
width = 268;
}
);
leftKerningGroup = i;
rightKerningGroup = i;
unicode = 0069;
},
{
glyphname = idotless;
lastChange = "2016-07-18 15:18:55 +0000";
layers = (
{
anchors = (
{
name = bottom;
position = "{36, 0}";
},
{
name = ogonek;
position = "{109, 10}";
},
{
name = top;
position = "{144, 519}";
}
);
background = {
paths = (
{
closed = 1;
nodes = (
"17 0 LINE",
"37 0 LINE",
"147 519 LINE",
"127 519 LINE"
);
}
);
};
layerId = UUID0;
paths = (
{
closed = 1;
nodes = (
"17 0 LINE",
"37 0 LINE",
"147 519 LINE",
"127 519 LINE"
);
}
);
width = 182;
},
{
anchors = (
{
name = top;
position = "{150, 522}";
}
);
background = {
paths = (
{
closed = 1;
nodes = (
"-10 0 LINE",
"150 0 LINE",
"262 525 LINE",
"102 525 LINE"
);
}
);
};
layerId = "1781503A-446A-42BE-9797-0213F9F6A36C";
paths = (
{
closed = 1;
nodes = (
"-10 0 LINE",
"150 0 LINE",
"262 525 LINE",
"102 525 LINE"
);
}
);
width = 268;
}
);
leftKerningGroup = i;
rightKerningGroup = i;
unicode = 0131;
},
{
glyphname = j;
lastChange = "2016-07-06 18:38:26 +0000";
layers = (
{
background = {
paths = (
{
closed = 1;
nodes = (
"-59 -170 OFFCURVE",
"20 -114 OFFCURVE",
"37 -36 CURVE SMOOTH",
"155 519 LINE",
"135 519 LINE",
"17 -36 LINE SMOOTH",
"3 -100 OFFCURVE",
"-63 -150 OFFCURVE",
"-115 -150 CURVE SMOOTH",
"-141 -150 OFFCURVE",
"-170 -145 OFFCURVE",
"-188 -124 CURVE",
"-206 -136 LINE",
"-187 -162 OFFCURVE",
"-155 -170 OFFCURVE",
"-118 -170 CURVE SMOOTH"
);
},
{
closed = 1;
nodes = (
"164 653 LINE",
"184 653 LINE",
"200 730 LINE",
"180 730 LINE"
);
}
);
};
layerId = UUID0;
paths = (
{
closed = 1;
nodes = (
"-59 -170 OFFCURVE",
"20 -114 OFFCURVE",
"37 -36 CURVE SMOOTH",
"155 519 LINE",
"135 519 LINE",
"17 -36 LINE SMOOTH",
"3 -100 OFFCURVE",
"-63 -150 OFFCURVE",
"-115 -150 CURVE SMOOTH",
"-141 -150 OFFCURVE",
"-170 -145 OFFCURVE",
"-188 -124 CURVE",
"-206 -136 LINE",
"-187 -162 OFFCURVE",
"-155 -170 OFFCURVE",
"-118 -170 CURVE SMOOTH"
);
},
{
closed = 1;
nodes = (
"164 653 LINE",
"184 653 LINE",
"200 730 LINE",
"180 730 LINE"
);
}
);
width = 190;
},
{
background = {
paths = (
{
closed = 1;
nodes = (
"33 -202 OFFCURVE",
"130 -118 OFFCURVE",
"156 3 CURVE SMOOTH",
"266 525 LINE",
"106 525 LINE",
"-7 -9 LINE SMOOTH",
"-15 -42 OFFCURVE",
"-39 -64 OFFCURVE",
"-66 -64 CURVE SMOOTH",
"-84 -64 OFFCURVE",
"-101 -57 OFFCURVE",
"-110 -43 CURVE",
"-200 -152 LINE",
"-170 -185 OFFCURVE",
"-125 -202 OFFCURVE",
"-75 -202 CURVE SMOOTH"
);
},
{
closed = 1;
nodes = (
"119 585 LINE",
"279 585 LINE",
"310 730 LINE",
"150 730 LINE"
);
}
);
};
layerId = "1781503A-446A-42BE-9797-0213F9F6A36C";
paths = (
{
closed = 1;
nodes = (
"33 -202 OFFCURVE",
"130 -118 OFFCURVE",
"156 3 CURVE SMOOTH",
"266 525 LINE",
"106 525 LINE",
"-7 -9 LINE SMOOTH",
"-14 -43 OFFCURVE",
"-39 -64 OFFCURVE",
"-66 -64 CURVE SMOOTH",
"-84 -64 OFFCURVE",
"-101 -57 OFFCURVE",
"-110 -43 CURVE",
"-200 -152 LINE",
"-170 -185 OFFCURVE",
"-125 -202 OFFCURVE",
"-75 -202 CURVE SMOOTH"
);
},
{
closed = 1;
nodes = (
"119 585 LINE",
"279 585 LINE",
"310 730 LINE",
"150 730 LINE"
);
}
);
width = 273;
}
);
leftKerningGroup = i;
rightKerningGroup = i;
unicode = 006A;
},
{
glyphname = jdotless;
lastChange = "2016-07-06 18:38:26 +0000";
layers = (
{
anchors = (
{
name = top;
position = "{31, 519}";
}
);
background = {
paths = (
{
closed = 1;
nodes = (
"-67 -170 OFFCURVE",
"12 -114 OFFCURVE",
"29 -36 CURVE SMOOTH",
"147 519 LINE",
"127 519 LINE",
"9 -36 LINE SMOOTH",
"-5 -100 OFFCURVE",
"-71 -150 OFFCURVE",
"-123 -150 CURVE SMOOTH",
"-149 -150 OFFCURVE",
"-178 -145 OFFCURVE",
"-196 -124 CURVE",
"-214 -136 LINE",
"-195 -162 OFFCURVE",
"-163 -170 OFFCURVE",
"-126 -170 CURVE SMOOTH"
);
}
);
};
layerId = UUID0;
paths = (
{
closed = 1;
nodes = (
"-67 -170 OFFCURVE",
"12 -114 OFFCURVE",
"29 -36 CURVE SMOOTH",
"147 519 LINE",
"127 519 LINE",
"9 -36 LINE SMOOTH",
"-5 -100 OFFCURVE",
"-71 -150 OFFCURVE",
"-123 -150 CURVE SMOOTH",
"-149 -150 OFFCURVE",
"-178 -145 OFFCURVE",
"-196 -124 CURVE",
"-214 -136 LINE",
"-195 -162 OFFCURVE",
"-163 -170 OFFCURVE",
"-126 -170 CURVE SMOOTH"
);
}
);
width = 182;
},
{
anchors = (
{
name = top;
position = "{53, 522}";
}
);
background = {
paths = (
{
closed = 1;
nodes = (
"28 -202 OFFCURVE",
"125 -118 OFFCURVE",
"151 3 CURVE SMOOTH",
"262 525 LINE",
"101 525 LINE",
"-12 -9 LINE SMOOTH",
"-19 -42 OFFCURVE",
"-43 -64 OFFCURVE",
"-71 -64 CURVE SMOOTH",
"-89 -64 OFFCURVE",
"-106 -57 OFFCURVE",
"-115 -43 CURVE",
"-205 -152 LINE",
"-175 -185 OFFCURVE",
"-130 -202 OFFCURVE",
"-80 -202 CURVE SMOOTH"
);
}
);
};
layerId = "1781503A-446A-42BE-9797-0213F9F6A36C";
paths = (
{
closed = 1;
nodes = (
"28 -202 OFFCURVE",
"125 -118 OFFCURVE",
"151 3 CURVE SMOOTH",
"262 525 LINE",
"101 525 LINE",
"-12 -9 LINE SMOOTH",
"-19 -42 OFFCURVE",
"-43 -64 OFFCURVE",
"-71 -64 CURVE SMOOTH",
"-89 -64 OFFCURVE",
"-106 -57 OFFCURVE",
"-115 -43 CURVE",
"-205 -152 LINE",
"-175 -185 OFFCURVE",
"-130 -202 OFFCURVE",
"-80 -202 CURVE SMOOTH"
);
}
);
width = 268;
}
);
leftKerningGroup = i;
rightKerningGroup = i;
unicode = 0237;
},
{
glyphname = k;
lastChange = "2016-07-06 18:38:26 +0000";
layers = (
{
anchors = (
{
name = bottom;
position = "{202, 0}";
}
);
background = {
paths = (
{
closed = 1;
nodes = (
"381 0 LINE",
"405 0 LINE",
"285 242 LINE",
"424 267 OFFCURVE",
"511 338 OFFCURVE",
"511 426 CURVE SMOOTH",
"511 492 OFFCURVE",
"464 531 OFFCURVE",
"385 531 CURVE SMOOTH",
"289 531 OFFCURVE",
"188 462 OFFCURVE",
"99 325 CURVE",
"81 281 LINE",
"194 440 OFFCURVE",
"289 512 OFFCURVE",
"382 512 CURVE SMOOTH",
"449 512 OFFCURVE",
"489 479 OFFCURVE",
"489 423 CURVE SMOOTH",
"489 344 OFFCURVE",
"407 284 OFFCURVE",
"257 255 CURVE"
);
},
{
closed = 1;
nodes = (
"17 0 LINE",
"37 0 LINE",
"192 730 LINE",
"172 730 LINE"
);
}
);
};
layerId = UUID0;
paths = (
{
closed = 1;
nodes = (
"381 0 LINE",
"405 0 LINE",
"285 242 LINE",
"424 267 OFFCURVE",
"511 338 OFFCURVE",
"511 426 CURVE SMOOTH",
"511 492 OFFCURVE",
"464 531 OFFCURVE",
"385 531 CURVE SMOOTH",
"289 531 OFFCURVE",
"188 462 OFFCURVE",
"99 325 CURVE",
"81 281 LINE",
"194 440 OFFCURVE",
"289 512 OFFCURVE",
"382 512 CURVE SMOOTH",
"449 512 OFFCURVE",
"489 479 OFFCURVE",
"489 423 CURVE SMOOTH",
"489 344 OFFCURVE",
"407 284 OFFCURVE",
"257 255 CURVE"
);
},
{
closed = 1;
nodes = (
"17 0 LINE",
"37 0 LINE",
"192 730 LINE",
"172 730 LINE"
);
}
);
width = 521;
},
{
anchors = (
{
name = bottom;
position = "{231, 0}";
}
);
background = {
paths = (
{
closed = 1;
nodes = (
"325 0 LINE",
"495 0 LINE",
"406 198 LINE",
"497 247 OFFCURVE",
"548 325 OFFCURVE",
"548 413 CURVE SMOOTH",
"548 487 OFFCURVE",
"509 531 OFFCURVE",
"436 531 CURVE SMOOTH",
"347 531 OFFCURVE",
"271 467 OFFCURVE",
"216 365 CURVE",
"189 206 LINE",
"216 307 OFFCURVE",
"296 395 OFFCURVE",
"360 395 CURVE SMOOTH",
"386 395 OFFCURVE",
"404 379 OFFCURVE",
"404 350 CURVE SMOOTH",
"404 296 OFFCURVE",
"342 247 OFFCURVE",
"237 227 CURVE"
);
},
{
closed = 1;
nodes = (
"-10 0 LINE",
"149 0 LINE",
"304 730 LINE",
"145 730 LINE"
);
}
);
};
layerId = "1781503A-446A-42BE-9797-0213F9F6A36C";
paths = (
{
closed = 1;
nodes = (
"325 0 LINE",
"495 0 LINE",
"406 198 LINE",
"497 247 OFFCURVE",
"548 325 OFFCURVE",
"548 413 CURVE SMOOTH",
"548 487 OFFCURVE",
"509 531 OFFCURVE",
"436 531 CURVE SMOOTH",
"347 531 OFFCURVE",
"271 467 OFFCURVE",
"216 365 CURVE",
"189 206 LINE",
"216 307 OFFCURVE",
"296 395 OFFCURVE",
"360 395 CURVE SMOOTH",
"386 395 OFFCURVE",
"404 379 OFFCURVE",
"404 350 CURVE SMOOTH",
"404 296 OFFCURVE",
"342 247 OFFCURVE",
"237 227 CURVE"
);
},
{
closed = 1;
nodes = (
"-10 0 LINE",
"149 0 LINE",
"304 730 LINE",
"145 730 LINE"
);
}
);
width = 570;
}
);
leftKerningGroup = h;
rightKerningGroup = k;
unicode = 006B;
},
{
glyphname = kgreenlandic;
lastChange = "2016-07-06 18:38:26 +0000";
layers = (
{
background = {
paths = (
{
closed = 1;
nodes = (
"17 0 LINE",
"37 0 LINE",
"73 169 LINE",
"233 297 LINE",
"380 0 LINE",
"404 0 LINE",
"251 311 LINE",
"509 517 LINE",
"482 517 LINE",
"79 196 LINE",
"147 519 LINE",
"127 519 LINE"
);
}
);
};
layerId = UUID0;
paths = (
{
closed = 1;
nodes = (
"17 0 LINE",
"37 0 LINE",
"73 169 LINE",
"233 297 LINE",
"380 0 LINE",
"404 0 LINE",
"251 311 LINE",
"509 517 LINE",
"482 517 LINE",
"79 196 LINE",
"147 519 LINE",
"127 519 LINE"
);
}
);
width = 484;
},
{
background = {
paths = (
{
closed = 1;
nodes = (
"-10 0 LINE",
"150 0 LINE",
"183 153 LINE",
"244 211 LINE",
"324 0 LINE",
"494 0 LINE",
"364 299 LINE",
"589 525 LINE",
"421 525 LINE",
"215 307 LINE",
"262 525 LINE",
"102 525 LINE"
);
}
);
};
layerId = "1781503A-446A-42BE-9797-0213F9F6A36C";
paths = (
{
closed = 1;
nodes = (
"-10 0 LINE",
"150 0 LINE",
"183 153 LINE",
"244 211 LINE",
"324 0 LINE",
"494 0 LINE",
"364 299 LINE",
"589 525 LINE",
"421 525 LINE",
"215 307 LINE",
"262 525 LINE",
"102 525 LINE"
);
}
);
width = 550;
}
);
unicode = 0138;
},
{
glyphname = l;
lastChange = "2016-07-06 18:38:26 +0000";
layers = (
{
anchors = (
{
name = bottom;
position = "{99, 0}";
},
{
name = top;
position = "{142, 519}";
}
);
background = {
paths = (
{
closed = 1;
nodes = (
"114 -5 OFFCURVE",
"147 1 OFFCURVE",
"165 7 CURVE",
"162 23 LINE",
"145 18 OFFCURVE",
"122 14 OFFCURVE",
"108 14 CURVE SMOOTH",
"75 14 OFFCURVE",
"56 31 OFFCURVE",
"56 61 CURVE SMOOTH",
"56 66 OFFCURVE",
"57 71 OFFCURVE",
"58 77 CURVE SMOOTH",
"197 730 LINE",
"177 730 LINE",
"38 77 LINE SMOOTH",
"36 69 OFFCURVE",
"36 62 OFFCURVE",
"36 56 CURVE SMOOTH",
"36 19 OFFCURVE",
"59 -5 OFFCURVE",
"96 -5 CURVE SMOOTH"
);
}
);
};
layerId = UUID0;
paths = (
{
closed = 1;
nodes = (
"114 -5 OFFCURVE",
"147 1 OFFCURVE",
"165 7 CURVE",
"162 23 LINE",
"145 18 OFFCURVE",
"122 14 OFFCURVE",
"108 14 CURVE SMOOTH",
"75 14 OFFCURVE",
"56 31 OFFCURVE",
"56 61 CURVE SMOOTH",
"56 66 OFFCURVE",
"57 71 OFFCURVE",
"58 77 CURVE SMOOTH",
"197 730 LINE",
"177 730 LINE",
"38 77 LINE SMOOTH",
"36 69 OFFCURVE",
"36 62 OFFCURVE",
"36 56 CURVE SMOOTH",
"36 19 OFFCURVE",
"59 -5 OFFCURVE",
"96 -5 CURVE SMOOTH"
);
}
);
width = 224;
},
{
anchors = (
{
name = bottom;
position = "{116, 0}";
},
{
name = top;
position = "{195, 521}";
}
);
background = {
paths = (
{
closed = 1;
nodes = (
"170 -9 OFFCURVE",
"228 3 OFFCURVE",
"271 21 CURVE",
"276 141 LINE",
"259 132 OFFCURVE",
"238 127 OFFCURVE",
"223 127 CURVE SMOOTH",
"198 127 OFFCURVE",
"185 141 OFFCURVE",
"185 166 CURVE SMOOTH",
"185 172 OFFCURVE",
"186 180 OFFCURVE",
"187 187 CURVE SMOOTH",
"303 730 LINE",
"143 730 LINE",
"16 131 LINE SMOOTH",
"12 116 OFFCURVE",
"11 102 OFFCURVE",
"11 89 CURVE SMOOTH",
"11 26 OFFCURVE",
"51 -9 OFFCURVE",
"126 -9 CURVE SMOOTH"
);
}
);
};
layerId = "1781503A-446A-42BE-9797-0213F9F6A36C";
paths = (
{
closed = 1;
nodes = (
"170 -9 OFFCURVE",
"228 3 OFFCURVE",
"271 21 CURVE",
"276 141 LINE",
"259 132 OFFCURVE",
"238 127 OFFCURVE",
"223 127 CURVE SMOOTH",
"198 127 OFFCURVE",
"185 141 OFFCURVE",
"185 166 CURVE SMOOTH",
"185 172 OFFCURVE",
"186 180 OFFCURVE",
"187 187 CURVE SMOOTH",
"303 730 LINE",
"143 730 LINE",
"16 131 LINE SMOOTH",
"13 115 OFFCURVE",
"11 102 OFFCURVE",
"11 89 CURVE SMOOTH",
"11 26 OFFCURVE",
"51 -9 OFFCURVE",
"126 -9 CURVE SMOOTH"
);
}
);
width = 326;
}
);
leftKerningGroup = l;
rightKerningGroup = l;
unicode = 006C;
},
{
glyphname = lslash;
lastChange = "2016-07-06 18:38:26 +0000";
layers = (
{
background = {
paths = (
{
closed = 1;
nodes = (
"32 304 LINE",
"266 504 LINE",
"254 518 LINE",
"21 318 LINE"
);
},
{
closed = 1;
nodes = (
"129 -5 OFFCURVE",
"162 1 OFFCURVE",
"180 7 CURVE",
"177 23 LINE",
"159 18 OFFCURVE",
"137 14 OFFCURVE",
"123 14 CURVE SMOOTH",
"90 14 OFFCURVE",
"71 31 OFFCURVE",
"71 61 CURVE SMOOTH",
"71 66 OFFCURVE",
"72 71 OFFCURVE",
"73 77 CURVE SMOOTH",
"212 730 LINE",
"192 730 LINE",
"53 77 LINE SMOOTH",
"51 69 OFFCURVE",
"51 62 OFFCURVE",
"51 55 CURVE SMOOTH",
"51 18 OFFCURVE",
"73 -5 OFFCURVE",
"111 -5 CURVE SMOOTH"
);
}
);
};
layerId = UUID0;
paths = (
{
closed = 1;
nodes = (
"32 304 LINE",
"266 504 LINE",
"254 518 LINE",
"21 318 LINE"
);
},
{
closed = 1;
nodes = (
"129 -5 OFFCURVE",
"162 1 OFFCURVE",
"180 7 CURVE",
"177 23 LINE",
"159 18 OFFCURVE",
"137 14 OFFCURVE",
"123 14 CURVE SMOOTH",
"90 14 OFFCURVE",
"71 31 OFFCURVE",
"71 61 CURVE SMOOTH",
"71 66 OFFCURVE",
"72 71 OFFCURVE",
"73 77 CURVE SMOOTH",
"212 730 LINE",
"192 730 LINE",
"53 77 LINE SMOOTH",
"51 69 OFFCURVE",
"51 62 OFFCURVE",
"51 55 CURVE SMOOTH",
"51 18 OFFCURVE",
"73 -5 OFFCURVE",
"111 -5 CURVE SMOOTH"
);
}
);
width = 238;
},
{
background = {
paths = (
{
closed = 1;
nodes = (
"26 261 LINE",
"384 440 LINE",
"364 526 LINE",
"7 347 LINE"
);
},
{
closed = 1;
nodes = (
"209 -9 OFFCURVE",
"267 3 OFFCURVE",
"311 21 CURVE",
"316 141 LINE",
"299 132 OFFCURVE",
"277 127 OFFCURVE",
"263 127 CURVE SMOOTH",
"237 127 OFFCURVE",
"224 141 OFFCURVE",
"224 166 CURVE SMOOTH",
"224 173 OFFCURVE",
"226 182 OFFCURVE",
"228 193 CURVE SMOOTH",
"342 730 LINE",
"182 730 LINE",
"55 131 LINE SMOOTH",
"52 116 OFFCURVE",
"50 102 OFFCURVE",
"50 89 CURVE SMOOTH",
"50 26 OFFCURVE",
"91 -9 OFFCURVE",
"166 -9 CURVE SMOOTH"
);
}
);
};
layerId = "1781503A-446A-42BE-9797-0213F9F6A36C";
paths = (
{
closed = 1;
nodes = (
"26 261 LINE",
"384 440 LINE",
"364 526 LINE",
"7 347 LINE"
);
},
{
closed = 1;
nodes = (
"209 -9 OFFCURVE",
"267 3 OFFCURVE",
"311 21 CURVE",
"316 141 LINE",
"299 132 OFFCURVE",
"277 127 OFFCURVE",
"263 127 CURVE SMOOTH",
"237 127 OFFCURVE",
"224 141 OFFCURVE",
"224 166 CURVE SMOOTH",
"224 173 OFFCURVE",
"226 182 OFFCURVE",
"228 193 CURVE SMOOTH",
"342 730 LINE",
"182 730 LINE",
"55 131 LINE SMOOTH",
"52 116 OFFCURVE",
"50 102 OFFCURVE",
"50 89 CURVE SMOOTH",
"50 26 OFFCURVE",
"91 -9 OFFCURVE",
"166 -9 CURVE SMOOTH"
);
}
);
width = 367;
}
);
leftKerningGroup = l;
rightKerningGroup = l;
unicode = 0142;
},
{
glyphname = m;
lastChange = "2016-07-06 18:38:26 +0000";
layers = (
{
background = {
paths = (
{
closed = 1;
nodes = (
"17 0 LINE",
"37 0 LINE",
"107 328 LINE",
"158 435 OFFCURVE",
"247 507 OFFCURVE",
"339 507 CURVE SMOOTH",
"405 507 OFFCURVE",
"436 470 OFFCURVE",
"436 393 CURVE SMOOTH",
"436 365 OFFCURVE",
"432 330 OFFCURVE",
"423 289 CURVE SMOOTH",
"362 0 LINE",
"382 0 LINE",
"451 327 LINE",
"501 434 OFFCURVE",
"591 507 OFFCURVE",
"682 507 CURVE SMOOTH",
"748 507 OFFCURVE",
"780 469 OFFCURVE",
"780 390 CURVE SMOOTH",
"780 362 OFFCURVE",
"776 328 OFFCURVE",
"768 289 CURVE SMOOTH",
"707 0 LINE",
"727 0 LINE",
"788 289 LINE SMOOTH",
"797 330 OFFCURVE",
"801 367 OFFCURVE",
"801 396 CURVE SMOOTH",
"801 484 OFFCURVE",
"764 527 OFFCURVE",
"688 527 CURVE SMOOTH",
"603 527 OFFCURVE",
"507 472 OFFCURVE",
"457 370 CURVE",
"466 469 OFFCURVE",
"421 527 OFFCURVE",
"340 527 CURVE SMOOTH",
"262 527 OFFCURVE",
"181 475 OFFCURVE",
"119 385 CURVE",
"147 519 LINE",
"127 519 LINE"
);
}
);
};
layerId = UUID0;
paths = (
{
closed = 1;
nodes = (
"17 0 LINE",
"37 0 LINE",
"107 328 LINE",
"158 435 OFFCURVE",
"247 507 OFFCURVE",
"339 507 CURVE SMOOTH",
"405 507 OFFCURVE",
"436 470 OFFCURVE",
"436 393 CURVE SMOOTH",
"436 365 OFFCURVE",
"432 330 OFFCURVE",
"423 289 CURVE SMOOTH",
"362 0 LINE",
"382 0 LINE",
"451 327 LINE",
"501 434 OFFCURVE",
"591 507 OFFCURVE",
"682 507 CURVE SMOOTH",
"748 507 OFFCURVE",
"780 469 OFFCURVE",
"780 390 CURVE SMOOTH",
"780 362 OFFCURVE",
"776 328 OFFCURVE",
"768 289 CURVE SMOOTH",
"707 0 LINE",
"727 0 LINE",
"788 289 LINE SMOOTH",
"797 330 OFFCURVE",
"801 367 OFFCURVE",
"801 396 CURVE SMOOTH",
"801 484 OFFCURVE",
"764 527 OFFCURVE",
"688 527 CURVE SMOOTH",
"603 527 OFFCURVE",
"507 472 OFFCURVE",
"457 370 CURVE",
"458 378 OFFCURVE",
"458 386 OFFCURVE",
"458 394 CURVE SMOOTH",
"458 478 OFFCURVE",
"414 527 OFFCURVE",
"340 527 CURVE SMOOTH",
"262 527 OFFCURVE",
"181 475 OFFCURVE",
"119 385 CURVE",
"147 519 LINE",
"127 519 LINE"
);
}
);
width = 866;
},
{
background = {
paths = (
{
closed = 1;
nodes = (
"-10 0 LINE",
"150 0 LINE",
"214 301 LINE",
"242 354 OFFCURVE",
"292 394 OFFCURVE",
"330 394 CURVE SMOOTH",
"357 394 OFFCURVE",
"375 376 OFFCURVE",
"375 337 CURVE SMOOTH",
"375 325 OFFCURVE",
"373 311 OFFCURVE",
"370 295 CURVE SMOOTH",
"307 0 LINE",
"467 0 LINE",
"530 301 LINE",
"558 354 OFFCURVE",
"608 394 OFFCURVE",
"647 394 CURVE SMOOTH",
"673 394 OFFCURVE",
"691 376 OFFCURVE",
"691 337 CURVE SMOOTH",
"691 325 OFFCURVE",
"689 311 OFFCURVE",
"686 295 CURVE SMOOTH",
"623 0 LINE",
"783 0 LINE",
"855 336 LINE SMOOTH",
"863 373 OFFCURVE",
"865 399 OFFCURVE",
"865 415 CURVE SMOOTH",
"865 479 OFFCURVE",
"839 535 OFFCURVE",
"747 535 CURVE SMOOTH",
"672 535 OFFCURVE",
"599 498 OFFCURVE",
"547 433 CURVE",
"543 491 OFFCURVE",
"513 535 OFFCURVE",
"428 535 CURVE SMOOTH",
"352 535 OFFCURVE",
"275 499 OFFCURVE",
"227 437 CURVE",
"246 525 LINE",
"102 525 LINE"
);
}
);
};
layerId = "1781503A-446A-42BE-9797-0213F9F6A36C";
paths = (
{
closed = 1;
nodes = (
"-10 0 LINE",
"150 0 LINE",
"214 301 LINE",
"242 354 OFFCURVE",
"292 394 OFFCURVE",
"330 394 CURVE SMOOTH",
"357 394 OFFCURVE",
"375 376 OFFCURVE",
"375 337 CURVE SMOOTH",
"375 325 OFFCURVE",
"373 311 OFFCURVE",
"370 295 CURVE SMOOTH",
"307 0 LINE",
"467 0 LINE",
"530 301 LINE",
"558 354 OFFCURVE",
"608 394 OFFCURVE",
"647 394 CURVE SMOOTH",
"673 394 OFFCURVE",
"691 376 OFFCURVE",
"691 337 CURVE SMOOTH",
"691 325 OFFCURVE",
"689 311 OFFCURVE",
"686 295 CURVE SMOOTH",
"623 0 LINE",
"783 0 LINE",
"855 336 LINE SMOOTH",
"863 373 OFFCURVE",
"865 399 OFFCURVE",
"865 415 CURVE SMOOTH",
"865 479 OFFCURVE",
"839 535 OFFCURVE",
"747 535 CURVE SMOOTH",
"672 535 OFFCURVE",
"599 498 OFFCURVE",
"547 433 CURVE",
"543 491 OFFCURVE",
"513 535 OFFCURVE",
"428 535 CURVE SMOOTH",
"352 535 OFFCURVE",
"275 499 OFFCURVE",
"227 437 CURVE",
"246 525 LINE",
"102 525 LINE"
);
}
);
width = 897;
}
);
leftKerningGroup = n;
rightKerningGroup = n;
unicode = 006D;
},
{
glyphname = n;
lastChange = "2016-07-06 18:38:26 +0000";
layers = (
{
anchors = (
{
name = bottom;
position = "{217, 0}";
},
{
name = top;
position = "{328, 519}";
}
);
background = {
paths = (
{
closed = 1;
nodes = (
"17 0 LINE",
"37 0 LINE",
"107 328 LINE",
"156 430 OFFCURVE",
"268 507 OFFCURVE",
"362 507 CURVE SMOOTH",
"425 507 OFFCURVE",
"455 472 OFFCURVE",
"455 396 CURVE SMOOTH",
"455 367 OFFCURVE",
"451 331 OFFCURVE",
"442 289 CURVE SMOOTH",
"381 0 LINE",
"401 0 LINE",
"462 289 LINE SMOOTH",
"471 332 OFFCURVE",
"476 369 OFFCURVE",
"476 401 CURVE SMOOTH",
"476 487 OFFCURVE",
"440 527 OFFCURVE",
"366 527 CURVE SMOOTH",
"278 527 OFFCURVE",
"177 469 OFFCURVE",
"119 385 CURVE",
"147 519 LINE",
"127 519 LINE"
);
}
);
};
layerId = UUID0;
paths = (
{
closed = 1;
nodes = (
"17 0 LINE",
"37 0 LINE",
"107 328 LINE",
"156 430 OFFCURVE",
"268 507 OFFCURVE",
"362 507 CURVE SMOOTH",
"425 507 OFFCURVE",
"455 472 OFFCURVE",
"455 396 CURVE SMOOTH",
"455 367 OFFCURVE",
"451 331 OFFCURVE",
"442 289 CURVE SMOOTH",
"381 0 LINE",
"401 0 LINE",
"462 289 LINE SMOOTH",
"471 332 OFFCURVE",
"476 369 OFFCURVE",
"476 401 CURVE SMOOTH",
"476 487 OFFCURVE",
"440 527 OFFCURVE",
"366 527 CURVE SMOOTH",
"278 527 OFFCURVE",
"177 469 OFFCURVE",
"119 385 CURVE",
"147 519 LINE",
"127 519 LINE"
);
}
);
width = 540;
},
{
anchors = (
{
name = bottom;
position = "{238, 0}";
},
{
name = top;
position = "{368, 522}";
}
);
background = {
paths = (
{
closed = 1;
nodes = (
"-10 0 LINE",
"150 0 LINE",
"214 301 LINE",
"243 355 OFFCURVE",
"299 394 OFFCURVE",
"337 394 CURVE SMOOTH",
"366 394 OFFCURVE",
"385 376 OFFCURVE",
"385 335 CURVE SMOOTH",
"385 323 OFFCURVE",
"384 310 OFFCURVE",
"381 295 CURVE SMOOTH",
"318 0 LINE",
"478 0 LINE",
"549 336 LINE SMOOTH",
"554 361 OFFCURVE",
"558 388 OFFCURVE",
"558 414 CURVE SMOOTH",
"558 478 OFFCURVE",
"533 535 OFFCURVE",
"440 535 CURVE SMOOTH",
"353 535 OFFCURVE",
"276 499 OFFCURVE",
"227 437 CURVE",
"246 525 LINE",
"102 525 LINE"
);
}
);
};
layerId = "1781503A-446A-42BE-9797-0213F9F6A36C";
paths = (
{
closed = 1;
nodes = (
"-10 0 LINE",
"150 0 LINE",
"214 301 LINE",
"243 355 OFFCURVE",
"299 394 OFFCURVE",
"337 394 CURVE SMOOTH",
"366 394 OFFCURVE",
"385 376 OFFCURVE",
"385 335 CURVE SMOOTH",
"385 323 OFFCURVE",
"384 310 OFFCURVE",
"381 295 CURVE SMOOTH",
"318 0 LINE",
"478 0 LINE",
"549 336 LINE SMOOTH",
"554 361 OFFCURVE",
"558 388 OFFCURVE",
"558 414 CURVE SMOOTH",
"558 478 OFFCURVE",
"533 535 OFFCURVE",
"440 535 CURVE SMOOTH",
"353 535 OFFCURVE",
"276 499 OFFCURVE",
"227 437 CURVE",
"246 525 LINE",
"102 525 LINE"
);
}
);
width = 591;
}
);
leftKerningGroup = n;
rightKerningGroup = n;
unicode = 006E;
},
{
glyphname = eng;
lastChange = "2016-07-06 18:38:26 +0000";
layers = (
{
background = {
paths = (
{
closed = 1;
nodes = (
"297 -170 OFFCURVE",
"376 -114 OFFCURVE",
"393 -36 CURVE SMOOTH",
"462 289 LINE SMOOTH",
"471 332 OFFCURVE",
"476 369 OFFCURVE",
"476 401 CURVE SMOOTH",
"476 487 OFFCURVE",
"440 527 OFFCURVE",
"366 527 CURVE SMOOTH",
"278 527 OFFCURVE",
"177 469 OFFCURVE",
"119 385 CURVE",
"147 519 LINE",
"127 519 LINE",
"17 0 LINE",
"37 0 LINE",
"107 328 LINE",
"156 430 OFFCURVE",
"268 507 OFFCURVE",
"362 507 CURVE SMOOTH",
"425 507 OFFCURVE",
"455 472 OFFCURVE",
"455 396 CURVE SMOOTH",
"455 367 OFFCURVE",
"451 331 OFFCURVE",
"442 289 CURVE SMOOTH",
"373 -36 LINE SMOOTH",
"359 -100 OFFCURVE",
"293 -150 OFFCURVE",
"241 -150 CURVE SMOOTH",
"214 -150 OFFCURVE",
"186 -145 OFFCURVE",
"168 -124 CURVE",
"150 -136 LINE",
"169 -162 OFFCURVE",
"201 -170 OFFCURVE",
"238 -170 CURVE SMOOTH"
);
}
);
};
layerId = UUID0;
paths = (
{
closed = 1;
nodes = (
"297 -170 OFFCURVE",
"376 -114 OFFCURVE",
"393 -36 CURVE SMOOTH",
"462 289 LINE SMOOTH",
"471 332 OFFCURVE",
"476 369 OFFCURVE",
"476 401 CURVE SMOOTH",
"476 487 OFFCURVE",
"440 527 OFFCURVE",
"366 527 CURVE SMOOTH",
"278 527 OFFCURVE",
"177 469 OFFCURVE",
"119 385 CURVE",
"147 519 LINE",
"127 519 LINE",
"17 0 LINE",
"37 0 LINE",
"107 328 LINE",
"156 430 OFFCURVE",
"268 507 OFFCURVE",
"362 507 CURVE SMOOTH",
"425 507 OFFCURVE",
"455 472 OFFCURVE",
"455 396 CURVE SMOOTH",
"455 367 OFFCURVE",
"451 331 OFFCURVE",
"442 289 CURVE SMOOTH",
"373 -36 LINE SMOOTH",
"359 -100 OFFCURVE",
"293 -150 OFFCURVE",
"241 -150 CURVE SMOOTH",
"214 -150 OFFCURVE",
"186 -145 OFFCURVE",
"168 -124 CURVE",
"150 -136 LINE",
"169 -162 OFFCURVE",
"201 -170 OFFCURVE",
"238 -170 CURVE SMOOTH"
);
}
);
width = 540;
},
{
background = {
paths = (
{
closed = 1;
nodes = (
"353 -202 OFFCURVE",
"451 -118 OFFCURVE",
"477 3 CURVE SMOOTH",
"548 336 LINE SMOOTH",
"554 362 OFFCURVE",
"558 390 OFFCURVE",
"558 416 CURVE SMOOTH",
"558 479 OFFCURVE",
"533 535 OFFCURVE",
"440 535 CURVE SMOOTH",
"353 535 OFFCURVE",
"276 499 OFFCURVE",
"227 437 CURVE",
"246 525 LINE",
"102 525 LINE",
"-10 0 LINE",
"150 0 LINE",
"214 301 LINE",
"243 355 OFFCURVE",
"299 394 OFFCURVE",
"337 394 CURVE SMOOTH",
"366 394 OFFCURVE",
"385 376 OFFCURVE",
"385 335 CURVE SMOOTH",
"385 323 OFFCURVE",
"384 310 OFFCURVE",
"381 295 CURVE SMOOTH",
"316 -9 LINE SMOOTH",
"308 -42 OFFCURVE",
"283 -64 OFFCURVE",
"256 -64 CURVE SMOOTH",
"238 -64 OFFCURVE",
"221 -57 OFFCURVE",
"212 -43 CURVE",
"122 -152 LINE",
"152 -185 OFFCURVE",
"196 -202 OFFCURVE",
"247 -202 CURVE SMOOTH"
);
}
);
};
layerId = "1781503A-446A-42BE-9797-0213F9F6A36C";
paths = (
{
closed = 1;
nodes = (
"353 -202 OFFCURVE",
"451 -118 OFFCURVE",
"477 3 CURVE SMOOTH",
"548 336 LINE SMOOTH",
"554 362 OFFCURVE",
"558 390 OFFCURVE",
"558 416 CURVE SMOOTH",
"558 479 OFFCURVE",
"533 535 OFFCURVE",
"440 535 CURVE SMOOTH",
"353 535 OFFCURVE",
"276 499 OFFCURVE",
"227 437 CURVE",
"246 525 LINE",
"102 525 LINE",
"-10 0 LINE",
"150 0 LINE",
"214 301 LINE",
"243 355 OFFCURVE",
"299 394 OFFCURVE",
"337 394 CURVE SMOOTH",
"366 394 OFFCURVE",
"385 376 OFFCURVE",
"385 335 CURVE SMOOTH",
"385 323 OFFCURVE",
"384 310 OFFCURVE",
"381 295 CURVE SMOOTH",
"316 -9 LINE SMOOTH",
"309 -43 OFFCURVE",
"283 -64 OFFCURVE",
"256 -64 CURVE SMOOTH",
"238 -64 OFFCURVE",
"221 -57 OFFCURVE",
"212 -43 CURVE",
"122 -152 LINE",
"152 -185 OFFCURVE",
"196 -202 OFFCURVE",
"247 -202 CURVE SMOOTH"
);
}
);
width = 590;
}
);
leftKerningGroup = n;
rightKerningGroup = n;
unicode = 014B;
},
{
color = 7;
glyphname = o;
lastChange = "2016-07-18 15:53:17 +0000";
layers = (
{
anchors = (
{
name = bottom;
position = "{216, 0}";
},
{
name = top;
position = "{326, 519}";
}
);
background = {
paths = (
{
closed = 1;
nodes = (
"363 -10 OFFCURVE",
"513 142 OFFCURVE",
"513 308 CURVE SMOOTH",
"513 429 OFFCURVE",
"438 527 OFFCURVE",
"329 527 CURVE SMOOTH",
"183 527 OFFCURVE",
"30 376 OFFCURVE",
"30 207 CURVE SMOOTH",
"30 88 OFFCURVE",
"103 -10 OFFCURVE",
"215 -10 CURVE SMOOTH"
);
},
{
closed = 1;
nodes = (
"118 10 OFFCURVE",
"50 99 OFFCURVE",
"50 209 CURVE SMOOTH",
"50 365 OFFCURVE",
"192 507 OFFCURVE",
"325 507 CURVE SMOOTH",
"424 507 OFFCURVE",
"493 416 OFFCURVE",
"493 305 CURVE SMOOTH",
"493 150 OFFCURVE",
"352 10 OFFCURVE",
"218 10 CURVE SMOOTH"
);
}
);
};
layerId = UUID0;
paths = (
{
closed = 1;
nodes = (
"383 -10 OFFCURVE",
"513 142 OFFCURVE",
"513 308 CURVE SMOOTH",
"513 429 OFFCURVE",
"458 527 OFFCURVE",
"329 527 CURVE SMOOTH",
"163 527 OFFCURVE",
"30 376 OFFCURVE",
"30 207 CURVE SMOOTH",
"30 88 OFFCURVE",
"86 -10 OFFCURVE",
"215 -10 CURVE SMOOTH"
);
},
{
closed = 1;
nodes = (
"101 10 OFFCURVE",
"50 99 OFFCURVE",
"50 209 CURVE SMOOTH",
"50 365 OFFCURVE",
"172 507 OFFCURVE",
"325 507 CURVE SMOOTH",
"444 507 OFFCURVE",
"493 416 OFFCURVE",
"493 305 CURVE SMOOTH",
"493 150 OFFCURVE",
"362 10 OFFCURVE",
"218 10 CURVE SMOOTH"
);
}
);
width = 561;
},
{
anchors = (
{
name = bottom;
position = "{236, 0}";
},
{
name = top;
position = "{343, 522}";
}
);
background = {
paths = (
{
closed = 1;
nodes = (
"429 -10 OFFCURVE",
"563 152 OFFCURVE",
"563 316 CURVE SMOOTH",
"563 435 OFFCURVE",
"490 535 OFFCURVE",
"345 535 CURVE SMOOTH",
"145 535 OFFCURVE",
"11 374 OFFCURVE",
"11 209 CURVE SMOOTH",
"11 90 OFFCURVE",
"83 -10 OFFCURVE",
"229 -10 CURVE SMOOTH"
);
},
{
closed = 1;
nodes = (
"209 125 OFFCURVE",
"178 166 OFFCURVE",
"178 228 CURVE SMOOTH",
"178 324 OFFCURVE",
"244 399 OFFCURVE",
"316 399 CURVE SMOOTH",
"365 399 OFFCURVE",
"396 358 OFFCURVE",
"396 296 CURVE SMOOTH",
"396 200 OFFCURVE",
"330 125 OFFCURVE",
"258 125 CURVE SMOOTH"
);
}
);
};
layerId = "1781503A-446A-42BE-9797-0213F9F6A36C";
paths = (
{
closed = 1;
nodes = (
"429 -10 OFFCURVE",
"563 152 OFFCURVE",
"563 316 CURVE SMOOTH",
"563 435 OFFCURVE",
"490 535 OFFCURVE",
"345 535 CURVE SMOOTH",
"145 535 OFFCURVE",
"11 374 OFFCURVE",
"11 209 CURVE SMOOTH",
"11 90 OFFCURVE",
"83 -10 OFFCURVE",
"229 -10 CURVE SMOOTH"
);
},
{
closed = 1;
nodes = (
"209 125 OFFCURVE",
"178 166 OFFCURVE",
"178 228 CURVE SMOOTH",
"178 324 OFFCURVE",
"244 399 OFFCURVE",
"316 399 CURVE SMOOTH",
"365 399 OFFCURVE",
"396 358 OFFCURVE",
"396 296 CURVE SMOOTH",
"396 200 OFFCURVE",
"330 125 OFFCURVE",
"258 125 CURVE SMOOTH"
);
}
);
width = 591;
}
);
leftKerningGroup = o;
rightKerningGroup = o;
unicode = 006F;
},
{
glyphname = oslash;
lastChange = "2016-07-06 18:38:26 +0000";
layers = (
{
background = {
paths = (
{
closed = 1;
nodes = (
"363 -10 OFFCURVE",
"513 142 OFFCURVE",
"513 308 CURVE SMOOTH",
"513 429 OFFCURVE",
"438 527 OFFCURVE",
"329 527 CURVE SMOOTH",
"183 527 OFFCURVE",
"30 376 OFFCURVE",
"30 207 CURVE SMOOTH",
"30 88 OFFCURVE",
"103 -10 OFFCURVE",
"215 -10 CURVE SMOOTH"
);
},
{
closed = 1;
nodes = (
"118 10 OFFCURVE",
"50 99 OFFCURVE",
"50 209 CURVE SMOOTH",
"50 365 OFFCURVE",
"191 507 OFFCURVE",
"325 507 CURVE SMOOTH",
"424 507 OFFCURVE",
"493 416 OFFCURVE",
"493 305 CURVE SMOOTH",
"493 150 OFFCURVE",
"352 10 OFFCURVE",
"218 10 CURVE SMOOTH"
);
},
{
closed = 1;
nodes = (
"55 0 LINE",
"79 0 LINE",
"109 38 LINE",
"95 51 LINE"
);
},
{
closed = 1;
nodes = (
"109 38 LINE",
"450 466 LINE",
"435 479 LINE",
"96 51 LINE"
);
},
{
closed = 1;
nodes = (
"450 466 LINE",
"492 519 LINE",
"467 519 LINE",
"435 479 LINE"
);
}
);
};
layerId = UUID0;
paths = (
{
closed = 1;
nodes = (
"363 -10 OFFCURVE",
"513 142 OFFCURVE",
"513 308 CURVE SMOOTH",
"513 429 OFFCURVE",
"438 527 OFFCURVE",
"329 527 CURVE SMOOTH",
"183 527 OFFCURVE",
"30 376 OFFCURVE",
"30 207 CURVE SMOOTH",
"30 88 OFFCURVE",
"103 -10 OFFCURVE",
"215 -10 CURVE SMOOTH"
);
},
{
closed = 1;
nodes = (
"118 10 OFFCURVE",
"50 99 OFFCURVE",
"50 209 CURVE SMOOTH",
"50 365 OFFCURVE",
"191 507 OFFCURVE",
"325 507 CURVE SMOOTH",
"424 507 OFFCURVE",
"493 416 OFFCURVE",
"493 305 CURVE SMOOTH",
"493 150 OFFCURVE",
"352 10 OFFCURVE",
"218 10 CURVE SMOOTH"
);
},
{
closed = 1;
nodes = (
"55 0 LINE",
"79 0 LINE",
"109 38 LINE",
"95 51 LINE"
);
},
{
closed = 1;
nodes = (
"109 38 LINE",
"450 466 LINE",
"435 479 LINE",
"96 51 LINE"
);
},
{
closed = 1;
nodes = (
"450 466 LINE",
"492 519 LINE",
"467 519 LINE",
"435 479 LINE"
);
}
);
width = 561;
},
{
background = {
paths = (
{
closed = 1;
nodes = (
"429 -10 OFFCURVE",
"563 152 OFFCURVE",
"563 316 CURVE SMOOTH",
"563 435 OFFCURVE",
"491 535 OFFCURVE",
"345 535 CURVE SMOOTH",
"146 535 OFFCURVE",
"11 374 OFFCURVE",
"11 209 CURVE SMOOTH",
"11 90 OFFCURVE",
"84 -10 OFFCURVE",
"229 -10 CURVE SMOOTH"
);
},
{
closed = 1;
nodes = (
"209 125 OFFCURVE",
"178 166 OFFCURVE",
"178 228 CURVE SMOOTH",
"178 324 OFFCURVE",
"244 399 OFFCURVE",
"316 399 CURVE SMOOTH",
"365 399 OFFCURVE",
"397 358 OFFCURVE",
"397 296 CURVE SMOOTH",
"397 200 OFFCURVE",
"330 125 OFFCURVE",
"258 125 CURVE SMOOTH"
);
},
{
closed = 1;
nodes = (
"-33 -5 LINE",
"53 -5 LINE",
"157 92 LINE",
"122 139 LINE"
);
},
{
closed = 1;
nodes = (
"168 106 LINE",
"453 396 LINE",
"411 429 LINE",
"136 148 LINE"
);
},
{
closed = 1;
nodes = (
"468 406 LINE",
"601 530 LINE",
"514 530 LINE",
"421 443 LINE"
);
}
);
};
layerId = "1781503A-446A-42BE-9797-0213F9F6A36C";
paths = (
{
closed = 1;
nodes = (
"429 -10 OFFCURVE",
"563 152 OFFCURVE",
"563 316 CURVE SMOOTH",
"563 435 OFFCURVE",
"491 535 OFFCURVE",
"345 535 CURVE SMOOTH",
"146 535 OFFCURVE",
"11 374 OFFCURVE",
"11 209 CURVE SMOOTH",
"11 90 OFFCURVE",
"84 -10 OFFCURVE",
"229 -10 CURVE SMOOTH"
);
},
{
closed = 1;
nodes = (
"209 125 OFFCURVE",
"178 166 OFFCURVE",
"178 228 CURVE SMOOTH",
"178 324 OFFCURVE",
"244 399 OFFCURVE",
"316 399 CURVE SMOOTH",
"365 399 OFFCURVE",
"397 358 OFFCURVE",
"397 296 CURVE SMOOTH",
"397 200 OFFCURVE",
"330 125 OFFCURVE",
"258 125 CURVE SMOOTH"
);
},
{
closed = 1;
nodes = (
"-33 -5 LINE",
"53 -5 LINE",
"157 92 LINE",
"122 139 LINE"
);
},
{
closed = 1;
nodes = (
"168 106 LINE",
"453 396 LINE",
"411 429 LINE",
"136 148 LINE"
);
},
{
closed = 1;
nodes = (
"468 406 LINE",
"601 530 LINE",
"514 530 LINE",
"421 443 LINE"
);
}
);
width = 591;
}
);
leftKerningGroup = o;
rightKerningGroup = o;
unicode = 00F8;
},
{
glyphname = oe;
lastChange = "2016-07-06 18:38:26 +0000";
layers = (
{
background = {
paths = (
{
closed = 1;
nodes = (
"318 -10 OFFCURVE",
"426 68 OFFCURVE",
"481 185 CURVE",
"488 72 OFFCURVE",
"570 -10 OFFCURVE",
"676 -10 CURVE SMOOTH",
"761 -10 OFFCURVE",
"856 42 OFFCURVE",
"900 114 CURVE",
"882 119 LINE",
"843 55 OFFCURVE",
"761 10 OFFCURVE",
"682 10 CURVE SMOOTH",
"575 10 OFFCURVE",
"502 95 OFFCURVE",
"502 208 CURVE SMOOTH",
"502 221 OFFCURVE",
"503 234 OFFCURVE",
"505 248 CURVE",
"955 248 LINE",
"958 255 OFFCURVE",
"961 264 OFFCURVE",
"961 305 CURVE SMOOTH",
"961 442 OFFCURVE",
"894 527 OFFCURVE",
"778 527 CURVE SMOOTH",
"666 527 OFFCURVE",
"563 452 OFFCURVE",
"511 332 CURVE",
"508 449 OFFCURVE",
"435 527 OFFCURVE",
"331 527 CURVE SMOOTH",
"180 527 OFFCURVE",
"30 377 OFFCURVE",
"30 204 CURVE SMOOTH",
"30 84 OFFCURVE",
"103 -10 OFFCURVE",
"213 -10 CURVE SMOOTH"
);
},
{
closed = 1;
nodes = (
"117 10 OFFCURVE",
"50 96 OFFCURVE",
"50 207 CURVE SMOOTH",
"50 366 OFFCURVE",
"190 507 OFFCURVE",
"326 507 CURVE SMOOTH",
"426 507 OFFCURVE",
"493 419 OFFCURVE",
"493 307 CURVE SMOOTH",
"493 148 OFFCURVE",
"355 10 OFFCURVE",
"218 10 CURVE SMOOTH"
);
},
{
closed = 1;
nodes = (
"509 268 LINE",
"545 405 OFFCURVE",
"657 507 OFFCURVE",
"774 507 CURVE SMOOTH",
"876 507 OFFCURVE",
"943 429 OFFCURVE",
"943 316 CURVE SMOOTH",
"943 300 OFFCURVE",
"941 284 OFFCURVE",
"939 268 CURVE"
);
}
);
};
layerId = UUID0;
paths = (
{
closed = 1;
nodes = (
"318 -10 OFFCURVE",
"426 68 OFFCURVE",
"481 185 CURVE",
"488 72 OFFCURVE",
"570 -10 OFFCURVE",
"676 -10 CURVE SMOOTH",
"761 -10 OFFCURVE",
"856 42 OFFCURVE",
"900 114 CURVE",
"882 119 LINE",
"843 55 OFFCURVE",
"761 10 OFFCURVE",
"682 10 CURVE SMOOTH",
"575 10 OFFCURVE",
"502 95 OFFCURVE",
"502 208 CURVE SMOOTH",
"502 221 OFFCURVE",
"503 234 OFFCURVE",
"505 248 CURVE",
"955 248 LINE",
"958 255 OFFCURVE",
"961 264 OFFCURVE",
"961 305 CURVE SMOOTH",
"961 442 OFFCURVE",
"894 527 OFFCURVE",
"778 527 CURVE SMOOTH",
"666 527 OFFCURVE",
"563 452 OFFCURVE",
"511 332 CURVE",
"508 449 OFFCURVE",
"435 527 OFFCURVE",
"331 527 CURVE SMOOTH",
"180 527 OFFCURVE",
"30 377 OFFCURVE",
"30 204 CURVE SMOOTH",
"30 84 OFFCURVE",
"103 -10 OFFCURVE",
"213 -10 CURVE SMOOTH"
);
},
{
closed = 1;
nodes = (
"117 10 OFFCURVE",
"50 96 OFFCURVE",
"50 207 CURVE SMOOTH",
"50 366 OFFCURVE",
"190 507 OFFCURVE",
"326 507 CURVE SMOOTH",
"426 507 OFFCURVE",
"493 419 OFFCURVE",
"493 307 CURVE SMOOTH",
"493 148 OFFCURVE",
"355 10 OFFCURVE",
"218 10 CURVE SMOOTH"
);
},
{
closed = 1;
nodes = (
"509 268 LINE",
"545 405 OFFCURVE",
"657 507 OFFCURVE",
"774 507 CURVE SMOOTH",
"876 507 OFFCURVE",
"943 429 OFFCURVE",
"943 316 CURVE SMOOTH",
"943 300 OFFCURVE",
"941 284 OFFCURVE",
"939 268 CURVE"
);
}
);
width = 1000;
},
{
background = {
paths = (
{
closed = 1;
nodes = (
"299 -10 OFFCURVE",
"357 20 OFFCURVE",
"437 90 CURVE",
"488 22 OFFCURVE",
"535 -10 OFFCURVE",
"607 -10 CURVE SMOOTH",
"714 -10 OFFCURVE",
"817 44 OFFCURVE",
"877 130 CURVE",
"753 168 LINE",
"732 130 OFFCURVE",
"682 102 OFFCURVE",
"636 102 CURVE SMOOTH",
"585 102 OFFCURVE",
"550 140 OFFCURVE",
"550 193 CURVE SMOOTH",
"550 199 OFFCURVE",
"551 205 OFFCURVE",
"552 213 CURVE",
"915 213 LINE",
"924 233 OFFCURVE",
"937 265 OFFCURVE",
"937 315 CURVE SMOOTH",
"937 444 OFFCURVE",
"855 535 OFFCURVE",
"722 535 CURVE SMOOTH",
"644 535 OFFCURVE",
"579 501 OFFCURVE",
"509 429 CURVE",
"476 498 OFFCURVE",
"422 535 OFFCURVE",
"342 535 CURVE SMOOTH",
"164 535 OFFCURVE",
"11 391 OFFCURVE",
"11 208 CURVE SMOOTH",
"11 81 OFFCURVE",
"94 -10 OFFCURVE",
"228 -10 CURVE SMOOTH"
);
},
{
closed = 1;
nodes = (
"208 125 OFFCURVE",
"178 167 OFFCURVE",
"178 227 CURVE SMOOTH",
"178 322 OFFCURVE",
"242 399 OFFCURVE",
"316 399 CURVE SMOOTH",
"366 399 OFFCURVE",
"396 357 OFFCURVE",
"396 297 CURVE SMOOTH",
"396 202 OFFCURVE",
"333 125 OFFCURVE",
"258 125 CURVE SMOOTH"
);
},
{
closed = 1;
nodes = (
"568 310 LINE",
"586 375 OFFCURVE",
"637 420 OFFCURVE",
"693 420 CURVE SMOOTH",
"743 420 OFFCURVE",
"775 384 OFFCURVE",
"775 328 CURVE SMOOTH",
"775 323 OFFCURVE",
"774 317 OFFCURVE",
"773 310 CURVE"
);
}
);
};
layerId = "1781503A-446A-42BE-9797-0213F9F6A36C";
paths = (
{
closed = 1;
nodes = (
"299 -10 OFFCURVE",
"357 20 OFFCURVE",
"437 90 CURVE",
"488 22 OFFCURVE",
"535 -10 OFFCURVE",
"607 -10 CURVE SMOOTH",
"714 -10 OFFCURVE",
"817 44 OFFCURVE",
"877 130 CURVE",
"753 168 LINE",
"732 130 OFFCURVE",
"682 102 OFFCURVE",
"636 102 CURVE SMOOTH",
"585 102 OFFCURVE",
"550 140 OFFCURVE",
"550 193 CURVE SMOOTH",
"550 199 OFFCURVE",
"551 205 OFFCURVE",
"552 213 CURVE",
"915 213 LINE",
"924 233 OFFCURVE",
"937 265 OFFCURVE",
"937 315 CURVE SMOOTH",
"937 444 OFFCURVE",
"855 535 OFFCURVE",
"722 535 CURVE SMOOTH",
"644 535 OFFCURVE",
"579 501 OFFCURVE",
"509 429 CURVE",
"476 498 OFFCURVE",
"422 535 OFFCURVE",
"342 535 CURVE SMOOTH",
"164 535 OFFCURVE",
"11 391 OFFCURVE",
"11 208 CURVE SMOOTH",
"11 81 OFFCURVE",
"94 -10 OFFCURVE",
"228 -10 CURVE SMOOTH"
);
},
{
closed = 1;
nodes = (
"208 125 OFFCURVE",
"178 167 OFFCURVE",
"178 227 CURVE SMOOTH",
"178 322 OFFCURVE",
"242 399 OFFCURVE",
"316 399 CURVE SMOOTH",
"366 399 OFFCURVE",
"396 357 OFFCURVE",
"396 297 CURVE SMOOTH",
"396 202 OFFCURVE",
"333 125 OFFCURVE",
"258 125 CURVE SMOOTH"
);
},
{
closed = 1;
nodes = (
"568 310 LINE",
"586 375 OFFCURVE",
"637 420 OFFCURVE",
"693 420 CURVE SMOOTH",
"743 420 OFFCURVE",
"775 384 OFFCURVE",
"775 328 CURVE SMOOTH",
"775 323 OFFCURVE",
"774 317 OFFCURVE",
"773 310 CURVE"
);
}
);
width = 956;
}
);
leftKerningGroup = o;
rightKerningGroup = e;
unicode = 0153;
},
{
glyphname = p;
lastChange = "2016-07-06 18:38:26 +0000";
layers = (
{
background = {
paths = (
{
closed = 1;
nodes = (
"-28 -213 LINE",
"-8 -213 LINE",
"63 119 LINE",
"90 49 OFFCURVE",
"149 -10 OFFCURVE",
"236 -10 CURVE SMOOTH",
"396 -10 OFFCURVE",
"528 149 OFFCURVE",
"528 306 CURVE SMOOTH",
"528 419 OFFCURVE",
"460 527 OFFCURVE",
"342 527 CURVE SMOOTH",
"267 527 OFFCURVE",
"180 478 OFFCURVE",
"124 409 CURVE",
"147 519 LINE",
"128 519 LINE"
);
},
{
closed = 1;
nodes = (
"153 10 OFFCURVE",
"89 77 OFFCURVE",
"71 161 CURVE",
"111 348 LINE",
"134 431 OFFCURVE",
"261 507 OFFCURVE",
"337 507 CURVE SMOOTH",
"441 507 OFFCURVE",
"508 412 OFFCURVE",
"508 304 CURVE SMOOTH",
"508 166 OFFCURVE",
"387 10 OFFCURVE",
"240 10 CURVE SMOOTH"
);
}
);
};
layerId = UUID0;
paths = (
{
closed = 1;
nodes = (
"-28 -213 LINE",
"-8 -213 LINE",
"63 119 LINE",
"90 49 OFFCURVE",
"149 -10 OFFCURVE",
"236 -10 CURVE SMOOTH",
"396 -10 OFFCURVE",
"528 149 OFFCURVE",
"528 306 CURVE SMOOTH",
"528 419 OFFCURVE",
"460 527 OFFCURVE",
"342 527 CURVE SMOOTH",
"267 527 OFFCURVE",
"180 478 OFFCURVE",
"124 409 CURVE",
"147 519 LINE",
"128 519 LINE"
);
},
{
closed = 1;
nodes = (
"153 10 OFFCURVE",
"89 77 OFFCURVE",
"71 161 CURVE",
"111 348 LINE",
"134 431 OFFCURVE",
"261 507 OFFCURVE",
"337 507 CURVE SMOOTH",
"441 507 OFFCURVE",
"508 412 OFFCURVE",
"508 304 CURVE SMOOTH",
"508 166 OFFCURVE",
"387 10 OFFCURVE",
"240 10 CURVE SMOOTH"
);
}
);
width = 577;
},
{
background = {
paths = (
{
closed = 1;
nodes = (
"-56 -213 LINE",
"104 -213 LINE",
"168 85 LINE",
"185 26 OFFCURVE",
"235 -10 OFFCURVE",
"309 -10 CURVE SMOOTH",
"457 -10 OFFCURVE",
"590 145 OFFCURVE",
"590 321 CURVE SMOOTH",
"590 442 OFFCURVE",
"521 535 OFFCURVE",
"408 535 CURVE SMOOTH",
"333 535 OFFCURVE",
"271 499 OFFCURVE",
"222 440 CURVE",
"241 525 LINE",
"101 525 LINE"
);
},
{
closed = 1;
nodes = (
"239 125 OFFCURVE",
"205 166 OFFCURVE",
"196 219 CURVE",
"219 327 LINE",
"250 371 OFFCURVE",
"294 399 OFFCURVE",
"333 399 CURVE SMOOTH",
"389 399 OFFCURVE",
"423 355 OFFCURVE",
"423 295 CURVE SMOOTH",
"423 209 OFFCURVE",
"355 125 OFFCURVE",
"283 125 CURVE SMOOTH"
);
}
);
};
layerId = "1781503A-446A-42BE-9797-0213F9F6A36C";
paths = (
{
closed = 1;
nodes = (
"-56 -213 LINE",
"104 -213 LINE",
"168 85 LINE",
"185 26 OFFCURVE",
"235 -10 OFFCURVE",
"309 -10 CURVE SMOOTH",
"457 -10 OFFCURVE",
"590 145 OFFCURVE",
"590 321 CURVE SMOOTH",
"590 442 OFFCURVE",
"521 535 OFFCURVE",
"408 535 CURVE SMOOTH",
"333 535 OFFCURVE",
"271 499 OFFCURVE",
"222 440 CURVE",
"241 525 LINE",
"101 525 LINE"
);
},
{
closed = 1;
nodes = (
"239 125 OFFCURVE",
"205 166 OFFCURVE",
"196 219 CURVE",
"219 327 LINE",
"250 371 OFFCURVE",
"294 399 OFFCURVE",
"333 399 CURVE SMOOTH",
"389 399 OFFCURVE",
"423 355 OFFCURVE",
"423 295 CURVE SMOOTH",
"423 209 OFFCURVE",
"355 125 OFFCURVE",
"283 125 CURVE SMOOTH"
);
}
);
width = 618;
}
);
leftKerningGroup = n;
rightKerningGroup = b;
unicode = 0070;
},
{
glyphname = thorn;
lastChange = "2016-07-06 18:38:26 +0000";
layers = (
{
background = {
paths = (
{
closed = 1;
nodes = (
"-28 -213 LINE",
"-8 -213 LINE",
"60 108 LINE",
"88 39 OFFCURVE",
"146 -10 OFFCURVE",
"236 -10 CURVE SMOOTH",
"407 -10 OFFCURVE",
"529 168 OFFCURVE",
"529 321 CURVE SMOOTH",
"529 427 OFFCURVE",
"470 527 OFFCURVE",
"351 527 CURVE SMOOTH",
"264 527 OFFCURVE",
"188 473 OFFCURVE",
"122 398 CURVE",
"188 710 LINE",
"168 710 LINE"
);
},
{
closed = 1;
nodes = (
"156 10 OFFCURVE",
"71 73 OFFCURVE",
"71 154 CURVE SMOOTH",
"71 156 OFFCURVE",
"71 161 OFFCURVE",
"73 169 CURVE SMOOTH",
"113 356 LINE",
"170 439 OFFCURVE",
"254 507 OFFCURVE",
"347 507 CURVE SMOOTH",
"450 507 OFFCURVE",
"508 426 OFFCURVE",
"508 316 CURVE SMOOTH",
"508 148 OFFCURVE",
"373 10 OFFCURVE",
"243 10 CURVE SMOOTH"
);
}
);
};
layerId = UUID0;
paths = (
{
closed = 1;
nodes = (
"-28 -213 LINE",
"-8 -213 LINE",
"60 108 LINE",
"88 39 OFFCURVE",
"146 -10 OFFCURVE",
"236 -10 CURVE SMOOTH",
"407 -10 OFFCURVE",
"529 168 OFFCURVE",
"529 321 CURVE SMOOTH",
"529 427 OFFCURVE",
"470 527 OFFCURVE",
"351 527 CURVE SMOOTH",
"264 527 OFFCURVE",
"188 473 OFFCURVE",
"122 398 CURVE",
"188 710 LINE",
"168 710 LINE"
);
},
{
closed = 1;
nodes = (
"156 10 OFFCURVE",
"71 73 OFFCURVE",
"71 154 CURVE SMOOTH",
"71 156 OFFCURVE",
"71 161 OFFCURVE",
"73 169 CURVE SMOOTH",
"113 356 LINE",
"170 439 OFFCURVE",
"254 507 OFFCURVE",
"347 507 CURVE SMOOTH",
"450 507 OFFCURVE",
"508 426 OFFCURVE",
"508 316 CURVE SMOOTH",
"508 148 OFFCURVE",
"373 10 OFFCURVE",
"243 10 CURVE SMOOTH"
);
}
);
width = 576;
},
{
background = {
paths = (
{
closed = 1;
nodes = (
"-56 -213 LINE",
"109 -213 LINE",
"135 -85 OFFCURVE",
"155 8 OFFCURVE",
"155 8 CURVE",
"162 -8 OFFCURVE",
"181 -27 OFFCURVE",
"236 -27 CURVE SMOOTH",
"420 -27 OFFCURVE",
"550 166 OFFCURVE",
"550 322 CURVE SMOOTH",
"550 434 OFFCURVE",
"484 541 OFFCURVE",
"355 541 CURVE SMOOTH",
"309 541 OFFCURVE",
"278 525 OFFCURVE",
"261 503 CURVE",
"261 503 OFFCURVE",
"277 579 OFFCURVE",
"305 710 CURVE",
"140 710 LINE"
);
},
{
closed = 1;
nodes = (
"213 116 OFFCURVE",
"190 148 OFFCURVE",
"190 169 CURVE SMOOTH",
"190 173 OFFCURVE",
"191 174 OFFCURVE",
"191 177 CURVE SMOOTH",
"224 332 LINE",
"251 370 OFFCURVE",
"279 398 OFFCURVE",
"316 398 CURVE SMOOTH",
"362 398 OFFCURVE",
"385 356 OFFCURVE",
"385 295 CURVE SMOOTH",
"385 205 OFFCURVE",
"337 116 OFFCURVE",
"260 116 CURVE SMOOTH"
);
}
);
};
layerId = "1781503A-446A-42BE-9797-0213F9F6A36C";
paths = (
{
closed = 1;
nodes = (
"-56 -213 LINE",
"109 -213 LINE",
"135 -85 OFFCURVE",
"155 8 OFFCURVE",
"155 8 CURVE",
"162 -8 OFFCURVE",
"181 -27 OFFCURVE",
"236 -27 CURVE SMOOTH",
"420 -27 OFFCURVE",
"550 166 OFFCURVE",
"550 322 CURVE SMOOTH",
"550 434 OFFCURVE",
"484 541 OFFCURVE",
"355 541 CURVE SMOOTH",
"309 541 OFFCURVE",
"278 525 OFFCURVE",
"261 503 CURVE",
"261 503 OFFCURVE",
"277 579 OFFCURVE",
"305 710 CURVE",
"140 710 LINE"
);
},
{
closed = 1;
nodes = (
"213 116 OFFCURVE",
"190 148 OFFCURVE",
"190 169 CURVE SMOOTH",
"190 173 OFFCURVE",
"191 174 OFFCURVE",
"191 177 CURVE SMOOTH",
"224 332 LINE",
"251 370 OFFCURVE",
"279 398 OFFCURVE",
"316 398 CURVE SMOOTH",
"362 398 OFFCURVE",
"385 356 OFFCURVE",
"385 295 CURVE SMOOTH",
"385 205 OFFCURVE",
"337 116 OFFCURVE",
"260 116 CURVE SMOOTH"
);
}
);
width = 576;
}
);
leftKerningGroup = h;
rightKerningGroup = b;
unicode = 00FE;
},
{
glyphname = q;
lastChange = "2016-07-06 18:38:26 +0000";
layers = (
{
background = {
paths = (
{
closed = 1;
nodes = (
"285 -10 OFFCURVE",
"363 35 OFFCURVE",
"436 119 CURVE",
"374 -173 LINE SMOOTH",
"373 -176 OFFCURVE",
"373 -179 OFFCURVE",
"373 -182 CURVE SMOOTH",
"373 -192 OFFCURVE",
"376 -201 OFFCURVE",
"382 -207 CURVE SMOOTH",
"387 -211 OFFCURVE",
"393 -213 OFFCURVE",
"401 -213 CURVE",
"405 -193 LINE",
"397 -193 OFFCURVE",
"393 -188 OFFCURVE",
"393 -180 CURVE SMOOTH",
"393 -178 OFFCURVE",
"393 -176 OFFCURVE",
"394 -173 CURVE SMOOTH",
"541 519 LINE",
"521 519 LINE",
"498 409 LINE",
"473 475 OFFCURVE",
"408 527 OFFCURVE",
"331 527 CURVE SMOOTH",
"180 527 OFFCURVE",
"29 371 OFFCURVE",
"29 205 CURVE SMOOTH",
"29 93 OFFCURVE",
"91 -10 OFFCURVE",
"208 -10 CURVE SMOOTH"
);
},
{
closed = 1;
nodes = (
"110 10 OFFCURVE",
"49 101 OFFCURVE",
"49 208 CURVE SMOOTH",
"49 353 OFFCURVE",
"181 507 OFFCURVE",
"327 507 CURVE SMOOTH",
"419 507 OFFCURVE",
"475 439 OFFCURVE",
"488 358 CURVE",
"445 161 LINE",
"391 82 OFFCURVE",
"306 10 OFFCURVE",
"212 10 CURVE SMOOTH"
);
}
);
};
layerId = UUID0;
paths = (
{
closed = 1;
nodes = (
"285 -10 OFFCURVE",
"363 35 OFFCURVE",
"436 119 CURVE",
"374 -173 LINE SMOOTH",
"373 -176 OFFCURVE",
"373 -179 OFFCURVE",
"373 -182 CURVE SMOOTH",
"373 -192 OFFCURVE",
"376 -201 OFFCURVE",
"382 -207 CURVE SMOOTH",
"387 -211 OFFCURVE",
"393 -213 OFFCURVE",
"401 -213 CURVE",
"405 -193 LINE",
"397 -193 OFFCURVE",
"393 -188 OFFCURVE",
"393 -180 CURVE SMOOTH",
"393 -178 OFFCURVE",
"393 -176 OFFCURVE",
"394 -173 CURVE SMOOTH",
"541 519 LINE",
"521 519 LINE",
"498 409 LINE",
"473 475 OFFCURVE",
"408 527 OFFCURVE",
"331 527 CURVE SMOOTH",
"180 527 OFFCURVE",
"29 371 OFFCURVE",
"29 205 CURVE SMOOTH",
"29 93 OFFCURVE",
"91 -10 OFFCURVE",
"208 -10 CURVE SMOOTH"
);
},
{
closed = 1;
nodes = (
"110 10 OFFCURVE",
"49 101 OFFCURVE",
"49 208 CURVE SMOOTH",
"49 353 OFFCURVE",
"181 507 OFFCURVE",
"327 507 CURVE SMOOTH",
"419 507 OFFCURVE",
"475 439 OFFCURVE",
"488 358 CURVE",
"445 161 LINE",
"391 82 OFFCURVE",
"306 10 OFFCURVE",
"212 10 CURVE SMOOTH"
);
}
);
width = 576;
},
{
background = {
paths = (
{
closed = 1;
nodes = (
"249 -10 OFFCURVE",
"313 23 OFFCURVE",
"358 85 CURVE",
"317 -110 LINE SMOOTH",
"315 -117 OFFCURVE",
"314 -124 OFFCURVE",
"314 -132 CURVE SMOOTH",
"314 -182 OFFCURVE",
"354 -213 OFFCURVE",
"409 -213 CURVE SMOOTH",
"433 -213 OFFCURVE",
"468 -210 OFFCURVE",
"497 -205 CURVE",
"526 -69 LINE",
"502 -68 OFFCURVE",
"492 -61 OFFCURVE",
"492 -43 CURVE SMOOTH",
"492 -38 OFFCURVE",
"493 -32 OFFCURVE",
"495 -25 CURVE SMOOTH",
"612 525 LINE",
"472 525 LINE",
"454 439 LINE",
"431 497 OFFCURVE",
"385 535 OFFCURVE",
"309 535 CURVE SMOOTH",
"154 535 OFFCURVE",
"11 385 OFFCURVE",
"11 201 CURVE SMOOTH",
"11 81 OFFCURVE",
"73 -10 OFFCURVE",
"176 -10 CURVE SMOOTH"
);
},
{
closed = 1;
nodes = (
"211 125 OFFCURVE",
"178 169 OFFCURVE",
"178 229 CURVE SMOOTH",
"178 316 OFFCURVE",
"247 399 OFFCURVE",
"319 399 CURVE SMOOTH",
"363 399 OFFCURVE",
"400 359 OFFCURVE",
"406 307 CURVE",
"382 196 LINE",
"347 153 OFFCURVE",
"308 125 OFFCURVE",
"267 125 CURVE SMOOTH"
);
}
);
};
layerId = "1781503A-446A-42BE-9797-0213F9F6A36C";
paths = (
{
closed = 1;
nodes = (
"249 -10 OFFCURVE",
"313 23 OFFCURVE",
"358 85 CURVE",
"317 -110 LINE SMOOTH",
"315 -117 OFFCURVE",
"314 -124 OFFCURVE",
"314 -132 CURVE SMOOTH",
"314 -182 OFFCURVE",
"354 -213 OFFCURVE",
"409 -213 CURVE SMOOTH",
"433 -213 OFFCURVE",
"468 -210 OFFCURVE",
"497 -205 CURVE",
"526 -69 LINE",
"502 -68 OFFCURVE",
"492 -61 OFFCURVE",
"492 -43 CURVE SMOOTH",
"492 -38 OFFCURVE",
"493 -32 OFFCURVE",
"495 -25 CURVE SMOOTH",
"612 525 LINE",
"472 525 LINE",
"454 439 LINE",
"431 497 OFFCURVE",
"385 535 OFFCURVE",
"309 535 CURVE SMOOTH",
"154 535 OFFCURVE",
"11 385 OFFCURVE",
"11 201 CURVE SMOOTH",
"11 81 OFFCURVE",
"73 -10 OFFCURVE",
"176 -10 CURVE SMOOTH"
);
},
{
closed = 1;
nodes = (
"211 125 OFFCURVE",
"178 169 OFFCURVE",
"178 229 CURVE SMOOTH",
"178 316 OFFCURVE",
"247 399 OFFCURVE",
"319 399 CURVE SMOOTH",
"363 399 OFFCURVE",
"400 359 OFFCURVE",
"406 307 CURVE",
"382 196 LINE",
"347 153 OFFCURVE",
"308 125 OFFCURVE",
"267 125 CURVE SMOOTH"
);
}
);
width = 618;
}
);
leftKerningGroup = a;
rightKerningGroup = a.alt;
unicode = 0071;
},
{
glyphname = r;
lastChange = "2016-07-06 18:38:26 +0000";
layers = (
{
anchors = (
{
name = bottom;
position = "{31, 0}";
},
{
name = top;
position = "{221, 519}";
}
);
background = {
paths = (
{
closed = 1;
nodes = (
"17 0 LINE",
"37 0 LINE",
"107 328 LINE",
"155 431 OFFCURVE",
"241 495 OFFCURVE",
"335 499 CURVE",
"339 519 LINE",
"333 519 OFFCURVE",
"326 519 OFFCURVE",
"320 518 CURVE SMOOTH",
"248 511 OFFCURVE",
"173 466 OFFCURVE",
"119 385 CURVE",
"147 519 LINE",
"127 519 LINE"
);
}
);
};
layerId = UUID0;
paths = (
{
closed = 1;
nodes = (
"17 0 LINE",
"37 0 LINE",
"107 328 LINE",
"155 431 OFFCURVE",
"241 495 OFFCURVE",
"335 499 CURVE",
"339 519 LINE",
"333 519 OFFCURVE",
"326 519 OFFCURVE",
"320 518 CURVE SMOOTH",
"248 511 OFFCURVE",
"173 466 OFFCURVE",
"119 385 CURVE",
"147 519 LINE",
"127 519 LINE"
);
}
);
width = 317;
},
{
anchors = (
{
name = bottom;
position = "{72, 0}";
},
{
name = top;
position = "{204, 522}";
}
);
background = {
paths = (
{
closed = 1;
nodes = (
"-10 0 LINE",
"150 0 LINE",
"217 315 LINE",
"255 363 OFFCURVE",
"323 387 OFFCURVE",
"395 388 CURVE",
"425 531 LINE",
"421 532 OFFCURVE",
"416 532 OFFCURVE",
"402 532 CURVE SMOOTH",
"342 532 OFFCURVE",
"276 489 OFFCURVE",
"226 419 CURVE",
"249 525 LINE",
"102 525 LINE"
);
}
);
};
layerId = "1781503A-446A-42BE-9797-0213F9F6A36C";
paths = (
{
closed = 1;
nodes = (
"-10 0 LINE",
"150 0 LINE",
"217 315 LINE",
"255 363 OFFCURVE",
"323 387 OFFCURVE",
"395 388 CURVE",
"425 531 LINE",
"421 532 OFFCURVE",
"416 532 OFFCURVE",
"402 532 CURVE SMOOTH",
"342 532 OFFCURVE",
"276 489 OFFCURVE",
"226 419 CURVE",
"249 525 LINE",
"102 525 LINE"
);
}
);
width = 392;
}
);
leftKerningGroup = n;
rightKerningGroup = r;
unicode = 0072;
},
{
glyphname = s;
lastChange = "2016-07-06 18:38:26 +0000";
layers = (
{
anchors = (
{
name = bottom;
position = "{172, 0}";
},
{
name = top;
position = "{278, 519}";
}
);
background = {
paths = (
{
closed = 1;
nodes = (
"284 -10 OFFCURVE",
"377 61 OFFCURVE",
"377 162 CURVE SMOOTH",
"377 232 OFFCURVE",
"312 251 OFFCURVE",
"213 277 CURVE SMOOTH",
"134 298 OFFCURVE",
"93 311 OFFCURVE",
"93 362 CURVE SMOOTH",
"93 461 OFFCURVE",
"180 507 OFFCURVE",
"273 507 CURVE SMOOTH",
"336 507 OFFCURVE",
"392 485 OFFCURVE",
"407 444 CURVE",
"426 452 LINE",
"413 495 OFFCURVE",
"361 527 OFFCURVE",
"281 527 CURVE SMOOTH",
"174 527 OFFCURVE",
"72 472 OFFCURVE",
"72 356 CURVE SMOOTH",
"72 294 OFFCURVE",
"121 279 OFFCURVE",
"208 257 CURVE SMOOTH",
"301 233 OFFCURVE",
"356 214 OFFCURVE",
"356 155 CURVE SMOOTH",
"356 67 OFFCURVE",
"272 10 OFFCURVE",
"163 10 CURVE SMOOTH",
"93 10 OFFCURVE",
"45 35 OFFCURVE",
"5 87 CURVE",
"-12 74 LINE",
"25 17 OFFCURVE",
"84 -10 OFFCURVE",
"159 -10 CURVE SMOOTH"
);
}
);
};
layerId = UUID0;
paths = (
{
closed = 1;
nodes = (
"284 -10 OFFCURVE",
"377 61 OFFCURVE",
"377 162 CURVE SMOOTH",
"377 232 OFFCURVE",
"312 251 OFFCURVE",
"213 277 CURVE SMOOTH",
"134 298 OFFCURVE",
"93 311 OFFCURVE",
"93 362 CURVE SMOOTH",
"93 461 OFFCURVE",
"180 507 OFFCURVE",
"273 507 CURVE SMOOTH",
"336 507 OFFCURVE",
"392 485 OFFCURVE",
"407 444 CURVE",
"426 452 LINE",
"413 495 OFFCURVE",
"361 527 OFFCURVE",
"281 527 CURVE SMOOTH",
"174 527 OFFCURVE",
"72 472 OFFCURVE",
"72 356 CURVE SMOOTH",
"72 294 OFFCURVE",
"121 279 OFFCURVE",
"208 257 CURVE SMOOTH",
"301 233 OFFCURVE",
"356 214 OFFCURVE",
"356 155 CURVE SMOOTH",
"356 67 OFFCURVE",
"272 10 OFFCURVE",
"163 10 CURVE SMOOTH",
"93 10 OFFCURVE",
"45 35 OFFCURVE",
"5 87 CURVE",
"-12 74 LINE",
"25 17 OFFCURVE",
"84 -10 OFFCURVE",
"159 -10 CURVE SMOOTH"
);
}
);
width = 450;
},
{
anchors = (
{
name = bottom;
position = "{184, 0}";
},
{
name = top;
position = "{289, 522}";
}
);
background = {
paths = (
{
closed = 1;
nodes = (
"333 -10 OFFCURVE",
"433 72 OFFCURVE",
"433 190 CURVE SMOOTH",
"433 256 OFFCURVE",
"385 290 OFFCURVE",
"271 323 CURVE SMOOTH",
"217 338 OFFCURVE",
"198 349 OFFCURVE",
"198 372 CURVE SMOOTH",
"198 406 OFFCURVE",
"225 424 OFFCURVE",
"261 424 CURVE SMOOTH",
"301 424 OFFCURVE",
"339 406 OFFCURVE",
"388 365 CURVE",
"470 461 LINE",
"419 516 OFFCURVE",
"359 535 OFFCURVE",
"285 535 CURVE SMOOTH",
"153 535 OFFCURVE",
"42 448 OFFCURVE",
"42 331 CURVE SMOOTH",
"42 270 OFFCURVE",
"89 241 OFFCURVE",
"198 206 CURVE SMOOTH",
"252 190 OFFCURVE",
"272 176 OFFCURVE",
"272 153 CURVE SMOOTH",
"272 123 OFFCURVE",
"250 103 OFFCURVE",
"208 103 CURVE SMOOTH",
"156 103 OFFCURVE",
"102 128 OFFCURVE",
"51 172 CURVE",
"-26 74 LINE",
"20 20 OFFCURVE",
"103 -10 OFFCURVE",
"187 -10 CURVE SMOOTH"
);
}
);
};
layerId = "1781503A-446A-42BE-9797-0213F9F6A36C";
paths = (
{
closed = 1;
nodes = (
"333 -10 OFFCURVE",
"433 72 OFFCURVE",
"433 190 CURVE SMOOTH",
"433 256 OFFCURVE",
"385 290 OFFCURVE",
"271 323 CURVE SMOOTH",
"219 338 OFFCURVE",
"198 349 OFFCURVE",
"198 372 CURVE SMOOTH",
"198 406 OFFCURVE",
"225 424 OFFCURVE",
"261 424 CURVE SMOOTH",
"301 424 OFFCURVE",
"339 406 OFFCURVE",
"388 365 CURVE",
"470 461 LINE",
"419 516 OFFCURVE",
"359 535 OFFCURVE",
"285 535 CURVE SMOOTH",
"153 535 OFFCURVE",
"42 448 OFFCURVE",
"42 331 CURVE SMOOTH",
"42 270 OFFCURVE",
"88 241 OFFCURVE",
"198 206 CURVE SMOOTH",
"252 189 OFFCURVE",
"272 176 OFFCURVE",
"272 153 CURVE SMOOTH",
"272 123 OFFCURVE",
"250 103 OFFCURVE",
"208 103 CURVE SMOOTH",
"156 103 OFFCURVE",
"102 128 OFFCURVE",
"51 172 CURVE",
"-26 74 LINE",
"20 20 OFFCURVE",
"103 -10 OFFCURVE",
"187 -10 CURVE SMOOTH"
);
}
);
width = 482;
}
);
leftKerningGroup = s;
rightKerningGroup = s;
unicode = 0073;
},
{
glyphname = germandbls;
lastChange = "2016-07-06 18:38:26 +0000";
layers = (
{
background = {
paths = (
{
closed = 1;
nodes = (
"155 -6 LINE",
"351 1 OFFCURVE",
"462 95 OFFCURVE",
"462 245 CURVE SMOOTH",
"462 326 OFFCURVE",
"418 385 OFFCURVE",
"335 404 CURVE",
"411 419 OFFCURVE",
"485 500 OFFCURVE",
"485 583 CURVE SMOOTH",
"485 658 OFFCURVE",
"429 714 OFFCURVE",
"344 714 CURVE SMOOTH",
"240 714 OFFCURVE",
"151 632 OFFCURVE",
"125 509 CURVE SMOOTH",
"17 0 LINE",
"37 0 LINE",
"145 509 LINE SMOOTH",
"169 621 OFFCURVE",
"245 694 OFFCURVE",
"339 694 CURVE SMOOTH",
"414 694 OFFCURVE",
"464 644 OFFCURVE",
"464 576 CURVE SMOOTH",
"464 486 OFFCURVE",
"380 413 OFFCURVE",
"285 413 CURVE SMOOTH",
"270 413 LINE",
"266 393 LINE",
"282 393 LINE SMOOTH",
"381 393 OFFCURVE",
"441 332 OFFCURVE",
"441 240 CURVE SMOOTH",
"441 102 OFFCURVE",
"336 16 OFFCURVE",
"159 13 CURVE"
);
}
);
};
layerId = UUID0;
paths = (
{
closed = 1;
nodes = (
"155 -6 LINE",
"351 1 OFFCURVE",
"462 95 OFFCURVE",
"462 245 CURVE SMOOTH",
"462 326 OFFCURVE",
"418 385 OFFCURVE",
"335 404 CURVE",
"411 419 OFFCURVE",
"485 500 OFFCURVE",
"485 583 CURVE SMOOTH",
"485 658 OFFCURVE",
"429 714 OFFCURVE",
"344 714 CURVE SMOOTH",
"240 714 OFFCURVE",
"151 632 OFFCURVE",
"125 509 CURVE SMOOTH",
"17 0 LINE",
"37 0 LINE",
"145 509 LINE SMOOTH",
"169 621 OFFCURVE",
"245 694 OFFCURVE",
"339 694 CURVE SMOOTH",
"414 694 OFFCURVE",
"464 644 OFFCURVE",
"464 576 CURVE SMOOTH",
"464 486 OFFCURVE",
"380 413 OFFCURVE",
"285 413 CURVE SMOOTH",
"270 413 LINE",
"266 393 LINE",
"282 393 LINE SMOOTH",
"381 393 OFFCURVE",
"441 332 OFFCURVE",
"441 240 CURVE SMOOTH",
"441 102 OFFCURVE",
"336 16 OFFCURVE",
"159 13 CURVE"
);
}
);
width = 523;
},
{
background = {
paths = (
{
closed = 1;
nodes = (
"178 -6 LINE",
"330 -4 OFFCURVE",
"502 61 OFFCURVE",
"502 255 CURVE SMOOTH",
"502 327 OFFCURVE",
"470 382 OFFCURVE",
"415 403 CURVE",
"466 424 OFFCURVE",
"523 499 OFFCURVE",
"523 579 CURVE SMOOTH",
"523 663 OFFCURVE",
"459 714 OFFCURVE",
"363 714 CURVE SMOOTH",
"238 714 OFFCURVE",
"125 634 OFFCURVE",
"102 525 CURVE SMOOTH",
"-10 0 LINE",
"142 0 LINE",
"248 497 LINE SMOOTH",
"258 545 OFFCURVE",
"280 579 OFFCURVE",
"319 579 CURVE SMOOTH",
"344 579 OFFCURVE",
"363 563 OFFCURVE",
"363 533 CURVE SMOOTH",
"363 501 OFFCURVE",
"343 462 OFFCURVE",
"298 462 CURVE SMOOTH",
"279 462 LINE",
"248 319 LINE",
"269 319 LINE SMOOTH",
"300 319 OFFCURVE",
"335 295 OFFCURVE",
"335 249 CURVE SMOOTH",
"335 178 OFFCURVE",
"277 141 OFFCURVE",
"209 141 CURVE"
);
}
);
};
layerId = "1781503A-446A-42BE-9797-0213F9F6A36C";
paths = (
{
closed = 1;
nodes = (
"178 -6 LINE",
"330 -4 OFFCURVE",
"502 61 OFFCURVE",
"502 255 CURVE SMOOTH",
"502 327 OFFCURVE",
"470 382 OFFCURVE",
"415 403 CURVE",
"466 424 OFFCURVE",
"523 499 OFFCURVE",
"523 579 CURVE SMOOTH",
"523 663 OFFCURVE",
"459 714 OFFCURVE",
"363 714 CURVE SMOOTH",
"238 714 OFFCURVE",
"125 634 OFFCURVE",
"102 525 CURVE SMOOTH",
"-10 0 LINE",
"142 0 LINE",
"248 497 LINE SMOOTH",
"258 545 OFFCURVE",
"280 579 OFFCURVE",
"319 579 CURVE SMOOTH",
"344 579 OFFCURVE",
"363 563 OFFCURVE",
"363 533 CURVE SMOOTH",
"363 501 OFFCURVE",
"343 462 OFFCURVE",
"298 462 CURVE SMOOTH",
"279 462 LINE",
"248 319 LINE",
"269 319 LINE SMOOTH",
"300 319 OFFCURVE",
"335 295 OFFCURVE",
"335 249 CURVE SMOOTH",
"335 178 OFFCURVE",
"277 141 OFFCURVE",
"209 141 CURVE"
);
}
);
width = 542;
}
);
leftKerningGroup = h;
unicode = 00DF;
},
{
glyphname = schwa;
lastChange = "2016-07-06 18:38:26 +0000";
layers = (
{
anchors = (
{
name = bottom;
position = "{220, 0}";
},
{
name = top;
position = "{216, 519}";
}
);
background = {
paths = (
{
closed = 1;
nodes = (
"352 -10 OFFCURVE",
"499 137 OFFCURVE",
"499 306 CURVE SMOOTH",
"499 429 OFFCURVE",
"424 527 OFFCURVE",
"313 527 CURVE SMOOTH",
"227 527 OFFCURVE",
"132 474 OFFCURVE",
"91 403 CURVE",
"108 398 LINE",
"149 462 OFFCURVE",
"232 507 OFFCURVE",
"308 507 CURVE SMOOTH",
"410 507 OFFCURVE",
"479 424 OFFCURVE",
"479 311 CURVE SMOOTH",
"479 297 OFFCURVE",
"478 283 OFFCURVE",
"476 269 CURVE",
"25 269 LINE",
"17 247 OFFCURVE",
"16 217 OFFCURVE",
"16 195 CURVE SMOOTH",
"16 77 OFFCURVE",
"91 -10 OFFCURVE",
"203 -10 CURVE SMOOTH"
);
},
{
closed = 1;
nodes = (
"104 10 OFFCURVE",
"38 87 OFFCURVE",
"38 201 CURVE SMOOTH",
"38 216 OFFCURVE",
"39 232 OFFCURVE",
"42 249 CURVE",
"471 249 LINE",
"436 112 OFFCURVE",
"323 10 OFFCURVE",
"207 10 CURVE SMOOTH"
);
}
);
};
layerId = UUID0;
paths = (
{
closed = 1;
nodes = (
"352 -10 OFFCURVE",
"499 137 OFFCURVE",
"499 306 CURVE SMOOTH",
"499 429 OFFCURVE",
"424 527 OFFCURVE",
"313 527 CURVE SMOOTH",
"227 527 OFFCURVE",
"132 474 OFFCURVE",
"91 403 CURVE",
"108 398 LINE",
"149 462 OFFCURVE",
"232 507 OFFCURVE",
"308 507 CURVE SMOOTH",
"410 507 OFFCURVE",
"479 424 OFFCURVE",
"479 311 CURVE SMOOTH",
"479 297 OFFCURVE",
"478 283 OFFCURVE",
"476 269 CURVE",
"25 269 LINE",
"17 247 OFFCURVE",
"16 217 OFFCURVE",
"16 195 CURVE SMOOTH",
"16 77 OFFCURVE",
"91 -10 OFFCURVE",
"203 -10 CURVE SMOOTH"
);
},
{
closed = 1;
nodes = (
"104 10 OFFCURVE",
"38 87 OFFCURVE",
"38 201 CURVE SMOOTH",
"38 216 OFFCURVE",
"39 232 OFFCURVE",
"42 249 CURVE",
"471 249 LINE",
"436 112 OFFCURVE",
"323 10 OFFCURVE",
"207 10 CURVE SMOOTH"
);
}
);
width = 548;
},
{
background = {
paths = (
{
closed = 1;
nodes = (
"424 -10 OFFCURVE",
"557 151 OFFCURVE",
"557 317 CURVE SMOOTH",
"557 436 OFFCURVE",
"483 535 OFFCURVE",
"338 535 CURVE SMOOTH",
"220 535 OFFCURVE",
"122 476 OFFCURVE",
"66 395 CURVE",
"194 356 LINE",
"215 394 OFFCURVE",
"264 419 OFFCURVE",
"308 419 CURVE SMOOTH",
"353 419 OFFCURVE",
"391 389 OFFCURVE",
"391 333 CURVE SMOOTH",
"391 326 OFFCURVE",
"391 319 OFFCURVE",
"390 312 CURVE",
"26 312 LINE",
"13 278 OFFCURVE",
"4 234 OFFCURVE",
"4 197 CURVE SMOOTH",
"4 81 OFFCURVE",
"76 -10 OFFCURVE",
"223 -10 CURVE SMOOTH"
);
},
{
closed = 1;
nodes = (
"200 105 OFFCURVE",
"170 139 OFFCURVE",
"170 194 CURVE SMOOTH",
"170 201 OFFCURVE",
"170 208 OFFCURVE",
"171 214 CURVE",
"372 214 LINE",
"352 148 OFFCURVE",
"304 105 OFFCURVE",
"249 105 CURVE SMOOTH"
);
}
);
};
layerId = "1781503A-446A-42BE-9797-0213F9F6A36C";
paths = (
{
closed = 1;
nodes = (
"424 -10 OFFCURVE",
"557 151 OFFCURVE",
"557 317 CURVE SMOOTH",
"557 436 OFFCURVE",
"483 535 OFFCURVE",
"338 535 CURVE SMOOTH",
"220 535 OFFCURVE",
"122 476 OFFCURVE",
"66 395 CURVE",
"194 356 LINE",
"215 394 OFFCURVE",
"264 419 OFFCURVE",
"308 419 CURVE SMOOTH",
"353 419 OFFCURVE",
"391 389 OFFCURVE",
"391 333 CURVE SMOOTH",
"391 326 OFFCURVE",
"391 319 OFFCURVE",
"390 312 CURVE",
"26 312 LINE",
"13 278 OFFCURVE",
"4 234 OFFCURVE",
"4 197 CURVE SMOOTH",
"4 81 OFFCURVE",
"76 -10 OFFCURVE",
"223 -10 CURVE SMOOTH"
);
},
{
closed = 1;
nodes = (
"200 105 OFFCURVE",
"170 139 OFFCURVE",
"170 194 CURVE SMOOTH",
"170 201 OFFCURVE",
"170 208 OFFCURVE",
"171 214 CURVE",
"372 214 LINE",
"352 148 OFFCURVE",
"304 105 OFFCURVE",
"249 105 CURVE SMOOTH"
);
}
);
width = 584;
}
);
rightKerningGroup = o;
unicode = 0259;
},
{
glyphname = t;
lastChange = "2016-07-06 18:38:26 +0000";
layers = (
{
anchors = (
{
name = bottom;
position = "{130, 0}";
},
{
name = top;
position = "{256, 519}";
}
);
background = {
paths = (
{
closed = 1;
nodes = (
"171 -5 OFFCURVE",
"215 23 OFFCURVE",
"216 24 CURVE",
"209 40 LINE",
"206 38 OFFCURVE",
"167 15 OFFCURVE",
"124 15 CURVE SMOOTH",
"94 15 OFFCURVE",
"69 33 OFFCURVE",
"69 66 CURVE SMOOTH",
"69 75 OFFCURVE",
"72 89 OFFCURVE",
"80 126 CURVE SMOOTH",
"160 499 LINE",
"279 499 LINE",
"283 519 LINE",
"165 519 LINE",
"203 700 LINE",
"183 700 LINE",
"145 519 LINE",
"73 519 LINE",
"69 499 LINE",
"140 499 LINE",
"50 75 LINE SMOOTH",
"49 69 OFFCURVE",
"48 63 OFFCURVE",
"48 58 CURVE SMOOTH",
"48 20 OFFCURVE",
"78 -5 OFFCURVE",
"119 -5 CURVE SMOOTH"
);
}
);
};
layerId = UUID0;
paths = (
{
closed = 1;
nodes = (
"171 -5 OFFCURVE",
"215 23 OFFCURVE",
"216 24 CURVE",
"209 40 LINE",
"206 38 OFFCURVE",
"167 15 OFFCURVE",
"124 15 CURVE SMOOTH",
"94 15 OFFCURVE",
"69 33 OFFCURVE",
"69 66 CURVE SMOOTH",
"69 75 OFFCURVE",
"72 89 OFFCURVE",
"80 126 CURVE SMOOTH",
"160 499 LINE",
"279 499 LINE",
"283 519 LINE",
"165 519 LINE",
"203 700 LINE",
"183 700 LINE",
"145 519 LINE",
"73 519 LINE",
"69 499 LINE",
"140 499 LINE",
"50 75 LINE SMOOTH",
"49 69 OFFCURVE",
"48 63 OFFCURVE",
"48 58 CURVE SMOOTH",
"48 20 OFFCURVE",
"78 -5 OFFCURVE",
"119 -5 CURVE SMOOTH"
);
}
);
width = 281;
},
{
anchors = (
{
name = bottom;
position = "{153, 0}";
},
{
name = top;
position = "{226, 522}";
}
);
background = {
paths = (
{
closed = 1;
nodes = (
"218 -10 OFFCURVE",
"279 7 OFFCURVE",
"327 28 CURVE",
"325 155 LINE",
"303 146 OFFCURVE",
"275 136 OFFCURVE",
"254 136 CURVE SMOOTH",
"234 136 OFFCURVE",
"220 145 OFFCURVE",
"220 168 CURVE SMOOTH",
"220 173 OFFCURVE",
"221 179 OFFCURVE",
"222 185 CURVE SMOOTH",
"268 404 LINE",
"369 404 LINE",
"395 525 LINE",
"294 525 LINE",
"330 692 LINE",
"170 692 LINE",
"134 525 LINE",
"72 525 LINE",
"45 404 LINE",
"108 404 LINE",
"50 130 LINE SMOOTH",
"47 115 OFFCURVE",
"46 102 OFFCURVE",
"46 89 CURVE SMOOTH",
"46 17 OFFCURVE",
"96 -10 OFFCURVE",
"163 -10 CURVE SMOOTH"
);
}
);
};
layerId = "1781503A-446A-42BE-9797-0213F9F6A36C";
paths = (
{
closed = 1;
nodes = (
"218 -10 OFFCURVE",
"279 7 OFFCURVE",
"327 28 CURVE",
"327 155 LINE",
"305 146 OFFCURVE",
"275 136 OFFCURVE",
"254 136 CURVE SMOOTH",
"234 136 OFFCURVE",
"220 145 OFFCURVE",
"220 168 CURVE SMOOTH",
"220 173 OFFCURVE",
"221 179 OFFCURVE",
"222 185 CURVE SMOOTH",
"268 404 LINE",
"369 404 LINE",
"395 525 LINE",
"294 525 LINE",
"330 692 LINE",
"170 692 LINE",
"134 525 LINE",
"72 525 LINE",
"45 404 LINE",
"108 404 LINE",
"50 130 LINE SMOOTH",
"47 115 OFFCURVE",
"46 102 OFFCURVE",
"46 89 CURVE SMOOTH",
"46 17 OFFCURVE",
"96 -10 OFFCURVE",
"163 -10 CURVE SMOOTH"
);
}
);
width = 392;
}
);
leftKerningGroup = t;
rightKerningGroup = t;
unicode = 0074;
},
{
glyphname = tbar;
lastChange = "2016-07-06 18:38:26 +0000";
layers = (
{
background = {
paths = (
{
closed = 1;
nodes = (
"36 339 LINE",
"246 339 LINE",
"250 359 LINE",
"40 359 LINE"
);
},
{
closed = 1;
nodes = (
"172 -5 OFFCURVE",
"215 22 OFFCURVE",
"217 24 CURVE",
"210 40 LINE",
"207 38 OFFCURVE",
"168 15 OFFCURVE",
"125 15 CURVE SMOOTH",
"94 15 OFFCURVE",
"70 32 OFFCURVE",
"70 65 CURVE SMOOTH",
"70 76 OFFCURVE",
"74 92 OFFCURVE",
"79 116 CURVE SMOOTH",
"161 499 LINE",
"280 499 LINE",
"284 519 LINE",
"165 519 LINE",
"204 700 LINE",
"184 700 LINE",
"145 519 LINE",
"74 519 LINE",
"70 499 LINE",
"141 499 LINE",
"51 75 LINE SMOOTH",
"50 69 OFFCURVE",
"49 63 OFFCURVE",
"49 58 CURVE SMOOTH",
"49 20 OFFCURVE",
"79 -5 OFFCURVE",
"120 -5 CURVE SMOOTH"
);
}
);
};
layerId = UUID0;
paths = (
{
closed = 1;
nodes = (
"36 339 LINE",
"246 339 LINE",
"250 359 LINE",
"40 359 LINE"
);
},
{
closed = 1;
nodes = (
"172 -5 OFFCURVE",
"215 22 OFFCURVE",
"217 24 CURVE",
"210 40 LINE",
"207 38 OFFCURVE",
"168 15 OFFCURVE",
"125 15 CURVE SMOOTH",
"94 15 OFFCURVE",
"70 32 OFFCURVE",
"70 65 CURVE SMOOTH",
"70 76 OFFCURVE",
"74 92 OFFCURVE",
"79 116 CURVE SMOOTH",
"161 499 LINE",
"280 499 LINE",
"284 519 LINE",
"165 519 LINE",
"204 700 LINE",
"184 700 LINE",
"145 519 LINE",
"74 519 LINE",
"70 499 LINE",
"141 499 LINE",
"51 75 LINE SMOOTH",
"50 69 OFFCURVE",
"49 63 OFFCURVE",
"49 58 CURVE SMOOTH",
"49 20 OFFCURVE",
"79 -5 OFFCURVE",
"120 -5 CURVE SMOOTH"
);
}
);
width = 283;
},
{
background = {
paths = (
{
closed = 1;
nodes = (
"14 247 LINE",
"338 247 LINE",
"357 340 LINE",
"33 340 LINE"
);
},
{
closed = 1;
nodes = (
"219 -10 OFFCURVE",
"281 7 OFFCURVE",
"329 28 CURVE",
"326 155 LINE",
"304 146 OFFCURVE",
"277 136 OFFCURVE",
"256 136 CURVE SMOOTH",
"235 136 OFFCURVE",
"222 146 OFFCURVE",
"222 169 CURVE SMOOTH",
"222 175 OFFCURVE",
"222 181 OFFCURVE",
"224 190 CURVE SMOOTH",
"270 404 LINE",
"371 404 LINE",
"396 525 LINE",
"296 525 LINE",
"332 692 LINE",
"172 692 LINE",
"136 525 LINE",
"73 525 LINE",
"47 404 LINE",
"110 404 LINE",
"52 130 LINE SMOOTH",
"48 115 OFFCURVE",
"47 102 OFFCURVE",
"47 89 CURVE SMOOTH",
"47 17 OFFCURVE",
"98 -10 OFFCURVE",
"164 -10 CURVE SMOOTH"
);
}
);
};
layerId = "1781503A-446A-42BE-9797-0213F9F6A36C";
paths = (
{
closed = 1;
nodes = (
"14 247 LINE",
"338 247 LINE",
"357 340 LINE",
"33 340 LINE"
);
},
{
closed = 1;
nodes = (
"219 -10 OFFCURVE",
"281 7 OFFCURVE",
"329 28 CURVE",
"329 155 LINE",
"307 146 OFFCURVE",
"277 136 OFFCURVE",
"256 136 CURVE SMOOTH",
"235 136 OFFCURVE",
"222 146 OFFCURVE",
"222 169 CURVE SMOOTH",
"222 175 OFFCURVE",
"222 181 OFFCURVE",
"224 190 CURVE SMOOTH",
"270 404 LINE",
"371 404 LINE",
"396 525 LINE",
"296 525 LINE",
"332 692 LINE",
"172 692 LINE",
"136 525 LINE",
"73 525 LINE",
"47 404 LINE",
"110 404 LINE",
"52 130 LINE SMOOTH",
"49 114 OFFCURVE",
"47 102 OFFCURVE",
"47 89 CURVE SMOOTH",
"47 17 OFFCURVE",
"98 -10 OFFCURVE",
"164 -10 CURVE SMOOTH"
);
}
);
width = 394;
}
);
leftKerningGroup = t;
rightKerningGroup = t;
unicode = 0167;
},
{
glyphname = u;
lastChange = "2016-07-06 18:38:26 +0000";
layers = (
{
anchors = (
{
name = bottom;
position = "{410, 11}";
},
{
name = top;
position = "{311, 519}";
}
);
background = {
paths = (
{
closed = 1;
nodes = (
"256 -10 OFFCURVE",
"351 45 OFFCURVE",
"412 132 CURVE",
"392 36 OFFCURVE",
"392 33 OFFCURVE",
"392 29 CURVE SMOOTH",
"392 16 OFFCURVE",
"397 6 OFFCURVE",
"407 2 CURVE SMOOTH",
"410 1 OFFCURVE",
"414 0 OFFCURVE",
"419 0 CURVE",
"424 20 LINE",
"416 20 OFFCURVE",
"411 25 OFFCURVE",
"411 34 CURVE SMOOTH",
"411 36 OFFCURVE",
"415 52 OFFCURVE",
"418 67 CURVE SMOOTH",
"514 519 LINE",
"494 519 LINE",
"424 189 LINE",
"373 85 OFFCURVE",
"267 10 OFFCURVE",
"172 10 CURVE SMOOTH",
"102 10 OFFCURVE",
"67 49 OFFCURVE",
"67 131 CURVE SMOOTH",
"67 158 OFFCURVE",
"71 191 OFFCURVE",
"79 228 CURVE SMOOTH",
"141 519 LINE",
"121 519 LINE",
"59 228 LINE SMOOTH",
"51 191 OFFCURVE",
"47 158 OFFCURVE",
"47 129 CURVE SMOOTH",
"47 37 OFFCURVE",
"88 -10 OFFCURVE",
"167 -10 CURVE SMOOTH"
);
}
);
};
layerId = UUID0;
paths = (
{
closed = 1;
nodes = (
"256 -10 OFFCURVE",
"351 45 OFFCURVE",
"412 132 CURVE",
"392 36 OFFCURVE",
"392 33 OFFCURVE",
"392 29 CURVE SMOOTH",
"392 16 OFFCURVE",
"397 6 OFFCURVE",
"407 2 CURVE SMOOTH",
"410 1 OFFCURVE",
"414 0 OFFCURVE",
"419 0 CURVE",
"424 20 LINE",
"416 20 OFFCURVE",
"411 25 OFFCURVE",
"411 34 CURVE SMOOTH",
"411 36 OFFCURVE",
"415 52 OFFCURVE",
"418 67 CURVE SMOOTH",
"514 519 LINE",
"494 519 LINE",
"424 189 LINE",
"373 85 OFFCURVE",
"267 10 OFFCURVE",
"172 10 CURVE SMOOTH",
"102 10 OFFCURVE",
"67 49 OFFCURVE",
"67 131 CURVE SMOOTH",
"67 158 OFFCURVE",
"71 191 OFFCURVE",
"79 228 CURVE SMOOTH",
"141 519 LINE",
"121 519 LINE",
"59 228 LINE SMOOTH",
"51 191 OFFCURVE",
"47 158 OFFCURVE",
"47 129 CURVE SMOOTH",
"47 37 OFFCURVE",
"88 -10 OFFCURVE",
"167 -10 CURVE SMOOTH"
);
}
);
width = 551;
},
{
anchors = (
{
name = bottom;
position = "{448, 7}";
},
{
name = top;
position = "{336, 522}";
}
);
background = {
paths = (
{
closed = 1;
nodes = (
"222 -10 OFFCURVE",
"297 22 OFFCURVE",
"357 91 CURVE",
"354 73 OFFCURVE",
"352 64 OFFCURVE",
"352 56 CURVE SMOOTH",
"352 11 OFFCURVE",
"387 -8 OFFCURVE",
"438 -8 CURVE SMOOTH",
"455 -8 OFFCURVE",
"477 -6 OFFCURVE",
"506 0 CURVE",
"535 135 LINE",
"517 136 OFFCURVE",
"509 143 OFFCURVE",
"509 159 CURVE SMOOTH",
"509 165 OFFCURVE",
"510 171 OFFCURVE",
"512 180 CURVE SMOOTH",
"585 525 LINE",
"425 525 LINE",
"356 201 LINE",
"315 146 OFFCURVE",
"273 125 OFFCURVE",
"237 125 CURVE SMOOTH",
"205 125 OFFCURVE",
"187 145 OFFCURVE",
"187 185 CURVE SMOOTH",
"187 196 OFFCURVE",
"189 209 OFFCURVE",
"192 224 CURVE SMOOTH",
"256 525 LINE",
"97 525 LINE",
"25 189 LINE SMOOTH",
"19 162 OFFCURVE",
"16 138 OFFCURVE",
"16 116 CURVE SMOOTH",
"16 34 OFFCURVE",
"58 -10 OFFCURVE",
"139 -10 CURVE SMOOTH"
);
}
);
};
layerId = "1781503A-446A-42BE-9797-0213F9F6A36C";
paths = (
{
closed = 1;
nodes = (
"222 -10 OFFCURVE",
"297 22 OFFCURVE",
"357 91 CURVE",
"354 73 OFFCURVE",
"352 64 OFFCURVE",
"352 56 CURVE SMOOTH",
"352 11 OFFCURVE",
"387 -8 OFFCURVE",
"438 -8 CURVE SMOOTH",
"455 -8 OFFCURVE",
"477 -6 OFFCURVE",
"506 0 CURVE",
"535 135 LINE",
"517 136 OFFCURVE",
"509 143 OFFCURVE",
"509 159 CURVE SMOOTH",
"509 165 OFFCURVE",
"510 171 OFFCURVE",
"512 180 CURVE SMOOTH",
"585 525 LINE",
"425 525 LINE",
"356 201 LINE",
"315 146 OFFCURVE",
"273 125 OFFCURVE",
"237 125 CURVE SMOOTH",
"205 125 OFFCURVE",
"187 145 OFFCURVE",
"187 185 CURVE SMOOTH",
"187 196 OFFCURVE",
"189 209 OFFCURVE",
"192 224 CURVE SMOOTH",
"256 525 LINE",
"97 525 LINE",
"25 189 LINE SMOOTH",
"19 162 OFFCURVE",
"16 138 OFFCURVE",
"16 116 CURVE SMOOTH",
"16 34 OFFCURVE",
"58 -10 OFFCURVE",
"139 -10 CURVE SMOOTH"
);
}
);
width = 606;
}
);
leftKerningGroup = u;
rightKerningGroup = u;
unicode = 0075;
},
{
glyphname = v;
lastChange = "2016-07-06 18:38:26 +0000";
layers = (
{
background = {
paths = (
{
closed = 1;
nodes = (
"147 0 LINE",
"165 0 LINE",
"310 164 OFFCURVE",
"397 345 OFFCURVE",
"451 519 CURVE",
"431 519 LINE",
"384 371 OFFCURVE",
"295 176 OFFCURVE",
"163 28 CURVE",
"85 519 LINE",
"64 519 LINE"
);
}
);
};
layerId = UUID0;
paths = (
{
closed = 1;
nodes = (
"147 0 LINE",
"165 0 LINE",
"310 164 OFFCURVE",
"397 345 OFFCURVE",
"451 519 CURVE",
"431 519 LINE",
"384 371 OFFCURVE",
"295 176 OFFCURVE",
"163 28 CURVE",
"85 519 LINE",
"64 519 LINE"
);
}
);
width = 451;
},
{
background = {
paths = (
{
closed = 1;
nodes = (
"109 0 LINE",
"275 0 LINE",
"410 174 OFFCURVE",
"510 351 OFFCURVE",
"558 525 CURVE",
"413 525 LINE",
"366 377 OFFCURVE",
"319 276 OFFCURVE",
"230 128 CURVE",
"213 525 LINE",
"47 525 LINE"
);
}
);
};
layerId = "1781503A-446A-42BE-9797-0213F9F6A36C";
paths = (
{
closed = 1;
nodes = (
"109 0 LINE",
"275 0 LINE",
"410 174 OFFCURVE",
"510 351 OFFCURVE",
"558 525 CURVE",
"413 525 LINE",
"366 377 OFFCURVE",
"319 276 OFFCURVE",
"230 128 CURVE",
"213 525 LINE",
"47 525 LINE"
);
}
);
width = 536;
}
);
unicode = 0076;
},
{
glyphname = w;
lastChange = "2016-07-06 18:38:26 +0000";
layers = (
{
anchors = (
{
name = top;
position = "{411, 519}";
}
);
background = {
paths = (
{
closed = 1;
nodes = (
"154 0 LINE",
"172 0 LINE",
"252 87 OFFCURVE",
"315 180 OFFCURVE",
"365 273 CURVE",
"414 0 LINE",
"432 0 LINE",
"582 164 OFFCURVE",
"672 345 OFFCURVE",
"728 519 CURVE",
"708 519 LINE",
"659 371 OFFCURVE",
"567 176 OFFCURVE",
"430 28 CURVE",
"380 303 LINE",
"416 375 OFFCURVE",
"445 448 OFFCURVE",
"468 519 CURVE",
"448 519 LINE",
"429 463 OFFCURVE",
"405 401 OFFCURVE",
"374 337 CURVE",
"342 519 LINE",
"321 519 LINE",
"359 306 LINE",
"310 210 OFFCURVE",
"247 111 OFFCURVE",
"170 28 CURVE",
"82 519 LINE",
"61 519 LINE"
);
}
);
};
layerId = UUID0;
paths = (
{
closed = 1;
nodes = (
"154 0 LINE",
"172 0 LINE",
"252 87 OFFCURVE",
"315 180 OFFCURVE",
"365 273 CURVE",
"414 0 LINE",
"432 0 LINE",
"582 164 OFFCURVE",
"672 345 OFFCURVE",
"728 519 CURVE",
"708 519 LINE",
"659 371 OFFCURVE",
"567 176 OFFCURVE",
"430 28 CURVE",
"380 303 LINE",
"416 375 OFFCURVE",
"445 448 OFFCURVE",
"468 519 CURVE",
"448 519 LINE",
"429 463 OFFCURVE",
"405 401 OFFCURVE",
"374 337 CURVE",
"342 519 LINE",
"321 519 LINE",
"359 306 LINE",
"310 210 OFFCURVE",
"247 111 OFFCURVE",
"170 28 CURVE",
"82 519 LINE",
"61 519 LINE"
);
}
);
width = 723;
},
{
anchors = (
{
name = top;
position = "{446, 522}";
}
);
background = {
paths = (
{
closed = 1;
nodes = (
"136 0 LINE",
"274 0 LINE",
"285 14 OFFCURVE",
"370 170 OFFCURVE",
"380 184 CURVE",
"405 0 LINE",
"510 0 LINE",
"663 174 OFFCURVE",
"778 351 OFFCURVE",
"843 525 CURVE",
"698 525 LINE",
"641 382 OFFCURVE",
"608 323 OFFCURVE",
"501 181 CURVE",
"484 274 LINE",
"539 355 OFFCURVE",
"576 430 OFFCURVE",
"612 525 CURVE",
"489 525 LINE",
"484 508 OFFCURVE",
"425 383 OFFCURVE",
"417 366 CURVE",
"399 525 LINE",
"266 525 LINE",
"314 273 LINE",
"304 257 OFFCURVE",
"256 161 OFFCURVE",
"243 145 CURVE",
"192 525 LINE",
"38 525 LINE"
);
}
);
};
layerId = "1781503A-446A-42BE-9797-0213F9F6A36C";
paths = (
{
closed = 1;
nodes = (
"136 0 LINE",
"274 0 LINE",
"285 14 OFFCURVE",
"370 170 OFFCURVE",
"380 184 CURVE",
"405 0 LINE",
"510 0 LINE",
"663 174 OFFCURVE",
"778 351 OFFCURVE",
"843 525 CURVE",
"698 525 LINE",
"641 382 OFFCURVE",
"608 323 OFFCURVE",
"501 181 CURVE",
"484 274 LINE",
"539 355 OFFCURVE",
"576 430 OFFCURVE",
"612 525 CURVE",
"489 525 LINE",
"484 508 OFFCURVE",
"426 383 OFFCURVE",
"417 366 CURVE",
"399 525 LINE",
"266 525 LINE",
"314 273 LINE",
"304 257 OFFCURVE",
"256 161 OFFCURVE",
"243 145 CURVE",
"192 525 LINE",
"38 525 LINE"
);
}
);
width = 802;
}
);
leftKerningGroup = w;
rightKerningGroup = w;
unicode = 0077;
},
{
glyphname = x;
lastChange = "2016-07-06 18:38:26 +0000";
layers = (
{
background = {
paths = (
{
closed = 1;
nodes = (
"-44 0 LINE",
"-18 0 LINE",
"206 234 LINE",
"216 244 LINE",
"221 232 LINE",
"347 0 LINE",
"373 0 LINE",
"232 258 LINE",
"485 519 LINE",
"459 519 LINE",
"230 281 LINE",
"222 273 LINE",
"217 285 LINE",
"90 519 LINE",
"64 519 LINE",
"206 258 LINE"
);
}
);
};
layerId = UUID0;
paths = (
{
closed = 1;
nodes = (
"-44 0 LINE",
"-18 0 LINE",
"216 244 LINE",
"221 232 LINE",
"347 0 LINE",
"373 0 LINE",
"232 258 LINE",
"485 519 LINE",
"459 519 LINE",
"222 273 LINE",
"217 285 LINE",
"90 519 LINE",
"64 519 LINE",
"206 258 LINE"
);
}
);
width = 456;
},
{
background = {
paths = (
{
closed = 1;
nodes = (
"-64 0 LINE",
"100 0 LINE",
"220 147 LINE",
"232 166 LINE",
"237 147 LINE",
"295 0 LINE",
"458 0 LINE",
"339 262 LINE",
"566 525 LINE",
"405 525 LINE",
"285 377 LINE",
"273 358 LINE",
"268 377 LINE",
"214 525 LINE",
"52 525 LINE",
"166 262 LINE"
);
}
);
};
layerId = "1781503A-446A-42BE-9797-0213F9F6A36C";
paths = (
{
closed = 1;
nodes = (
"-64 0 LINE",
"100 0 LINE",
"220 147 LINE",
"232 166 LINE",
"237 147 LINE",
"295 0 LINE",
"458 0 LINE",
"339 262 LINE",
"566 525 LINE",
"405 525 LINE",
"285 377 LINE",
"273 358 LINE",
"268 377 LINE",
"214 525 LINE",
"52 525 LINE",
"166 262 LINE"
);
}
);
width = 522;
}
);
unicode = 0078;
},
{
glyphname = y;
lastChange = "2016-07-06 18:38:26 +0000";
layers = (
{
anchors = (
{
name = top;
position = "{273, 519}";
}
);
background = {
paths = (
{
closed = 1;
nodes = (
"-35 -224 LINE",
"48 -211 OFFCURVE",
"82 -176 OFFCURVE",
"177 -26 CURVE SMOOTH",
"259 103 LINE SMOOTH",
"393 314 OFFCURVE",
"430 390 OFFCURVE",
"466 519 CURVE",
"445 519 LINE",
"410 398 OFFCURVE",
"370 317 OFFCURVE",
"244 117 CURVE SMOOTH",
"186 25 LINE",
"74 519 LINE",
"52 519 LINE",
"171 0 LINE",
"130 -63 LINE SMOOTH",
"69 -157 OFFCURVE",
"44 -191 OFFCURVE",
"-37 -207 CURVE"
);
}
);
};
layerId = UUID0;
paths = (
{
closed = 1;
nodes = (
"-35 -224 LINE",
"48 -211 OFFCURVE",
"82 -176 OFFCURVE",
"177 -26 CURVE SMOOTH",
"259 103 LINE SMOOTH",
"393 314 OFFCURVE",
"430 390 OFFCURVE",
"466 519 CURVE",
"445 519 LINE",
"410 398 OFFCURVE",
"370 317 OFFCURVE",
"244 117 CURVE SMOOTH",
"186 25 LINE",
"74 519 LINE",
"52 519 LINE",
"171 0 LINE",
"130 -63 LINE SMOOTH",
"69 -157 OFFCURVE",
"44 -191 OFFCURVE",
"-37 -207 CURVE"
);
}
);
width = 460;
},
{
anchors = (
{
name = top;
position = "{316, 522}";
}
);
background = {
paths = (
{
closed = 1;
nodes = (
"-31 -231 LINE",
"96 -230 OFFCURVE",
"178 -178 OFFCURVE",
"272 -26 CURVE SMOOTH",
"352 103 LINE SMOOTH",
"484 316 OFFCURVE",
"522 396 OFFCURVE",
"558 525 CURVE",
"404 525 LINE",
"378 404 OFFCURVE",
"338 302 OFFCURVE",
"271 193 CURVE SMOOTH",
"237 137 LINE",
"208 525 LINE",
"45 525 LINE",
"123 -11 LINE",
"94 -48 LINE SMOOTH",
"57 -96 OFFCURVE",
"29 -107 OFFCURVE",
"-50 -111 CURVE"
);
}
);
};
layerId = "1781503A-446A-42BE-9797-0213F9F6A36C";
paths = (
{
closed = 1;
nodes = (
"-31 -231 LINE",
"96 -230 OFFCURVE",
"178 -178 OFFCURVE",
"272 -26 CURVE SMOOTH",
"352 103 LINE SMOOTH",
"484 316 OFFCURVE",
"522 396 OFFCURVE",
"558 525 CURVE",
"404 525 LINE",
"378 404 OFFCURVE",
"338 302 OFFCURVE",
"271 193 CURVE SMOOTH",
"237 137 LINE",
"208 525 LINE",
"45 525 LINE",
"123 -11 LINE",
"94 -48 LINE SMOOTH",
"57 -96 OFFCURVE",
"29 -107 OFFCURVE",
"-50 -111 CURVE"
);
}
);
width = 531;
}
);
leftKerningGroup = y;
rightKerningGroup = y;
unicode = 0079;
},
{
glyphname = z;
lastChange = "2016-07-06 18:38:26 +0000";
layers = (
{
anchors = (
{
name = top;
position = "{279, 519}";
}
);
background = {
paths = (
{
closed = 1;
nodes = (
"-36 0 LINE",
"360 0 LINE",
"365 20 LINE",
"-6 20 LINE",
"470 499 LINE",
"474 519 LINE",
"79 519 LINE",
"75 499 LINE",
"445 499 LINE",
"-32 20 LINE"
);
}
);
};
layerId = UUID0;
paths = (
{
closed = 1;
nodes = (
"-36 0 LINE",
"360 0 LINE",
"365 20 LINE",
"-6 20 LINE",
"470 499 LINE",
"474 519 LINE",
"79 519 LINE",
"75 499 LINE",
"445 499 LINE",
"-32 20 LINE"
);
}
);
width = 457;
},
{
anchors = (
{
name = top;
position = "{281, 522}";
}
);
background = {
paths = (
{
closed = 1;
nodes = (
"-40 0 LINE",
"381 0 LINE",
"405 111 LINE",
"153 111 LINE",
"465 429 LINE",
"486 525 LINE",
"85 525 LINE",
"61 414 LINE",
"293 414 LINE",
"-19 96 LINE"
);
}
);
};
layerId = "1781503A-446A-42BE-9797-0213F9F6A36C";
paths = (
{
closed = 1;
nodes = (
"-40 0 LINE",
"381 0 LINE",
"405 111 LINE",
"153 111 LINE",
"465 429 LINE",
"486 525 LINE",
"85 525 LINE",
"61 414 LINE",
"293 414 LINE",
"-19 96 LINE"
);
}
);
width = 471;
}
);
leftKerningGroup = z;
rightKerningGroup = z;
unicode = 007A;
},
{
glyphname = a.alt;
lastChange = "2016-07-06 18:38:26 +0000";
layers = (
{
background = {
paths = (
{
closed = 1;
nodes = (
"300 -10 OFFCURVE",
"384 44 OFFCURVE",
"441 119 CURVE",
"415 0 LINE",
"435 0 LINE",
"545 517 LINE",
"525 517 LINE",
"500 397 LINE",
"476 471 OFFCURVE",
"417 527 OFFCURVE",
"328 527 CURVE SMOOTH",
"181 527 OFFCURVE",
"30 374 OFFCURVE",
"30 208 CURVE SMOOTH",
"30 95 OFFCURVE",
"97 -10 OFFCURVE",
"214 -10 CURVE SMOOTH"
);
},
{
closed = 1;
nodes = (
"113 10 OFFCURVE",
"50 103 OFFCURVE",
"50 210 CURVE SMOOTH",
"50 347 OFFCURVE",
"177 507 OFFCURVE",
"324 507 CURVE SMOOTH",
"415 507 OFFCURVE",
"477 439 OFFCURVE",
"490 351 CURVE",
"451 167 LINE",
"402 82 OFFCURVE",
"315 10 OFFCURVE",
"219 10 CURVE SMOOTH"
);
}
);
};
layerId = UUID0;
paths = (
{
closed = 1;
nodes = (
"300 -10 OFFCURVE",
"384 44 OFFCURVE",
"441 119 CURVE",
"415 0 LINE",
"435 0 LINE",
"545 517 LINE",
"525 517 LINE",
"500 397 LINE",
"476 471 OFFCURVE",
"417 527 OFFCURVE",
"328 527 CURVE SMOOTH",
"181 527 OFFCURVE",
"30 374 OFFCURVE",
"30 208 CURVE SMOOTH",
"30 95 OFFCURVE",
"97 -10 OFFCURVE",
"214 -10 CURVE SMOOTH"
);
},
{
closed = 1;
nodes = (
"113 10 OFFCURVE",
"50 103 OFFCURVE",
"50 210 CURVE SMOOTH",
"50 347 OFFCURVE",
"177 507 OFFCURVE",
"324 507 CURVE SMOOTH",
"415 507 OFFCURVE",
"477 439 OFFCURVE",
"490 351 CURVE",
"451 167 LINE",
"402 82 OFFCURVE",
"315 10 OFFCURVE",
"219 10 CURVE SMOOTH"
);
}
);
width = 580;
},
{
background = {
paths = (
{
closed = 1;
nodes = (
"265 -10 OFFCURVE",
"317 21 OFFCURVE",
"359 78 CURVE",
"342 0 LINE",
"501 0 LINE",
"611 518 LINE",
"451 518 LINE",
"434 439 LINE",
"417 497 OFFCURVE",
"366 535 OFFCURVE",
"297 535 CURVE SMOOTH",
"148 535 OFFCURVE",
"11 382 OFFCURVE",
"11 204 CURVE SMOOTH",
"11 80 OFFCURVE",
"82 -10 OFFCURVE",
"197 -10 CURVE SMOOTH"
);
},
{
closed = 1;
nodes = (
"213 125 OFFCURVE",
"180 170 OFFCURVE",
"180 230 CURVE SMOOTH",
"180 314 OFFCURVE",
"248 399 OFFCURVE",
"319 399 CURVE SMOOTH",
"364 399 OFFCURVE",
"399 362 OFFCURVE",
"407 307 CURVE",
"384 198 LINE",
"350 153 OFFCURVE",
"312 125 OFFCURVE",
"268 125 CURVE SMOOTH"
);
}
);
};
layerId = "1781503A-446A-42BE-9797-0213F9F6A36C";
paths = (
{
closed = 1;
nodes = (
"265 -10 OFFCURVE",
"317 21 OFFCURVE",
"359 78 CURVE",
"342 0 LINE",
"501 0 LINE",
"611 518 LINE",
"451 518 LINE",
"434 439 LINE",
"417 497 OFFCURVE",
"366 535 OFFCURVE",
"297 535 CURVE SMOOTH",
"148 535 OFFCURVE",
"11 382 OFFCURVE",
"11 204 CURVE SMOOTH",
"11 80 OFFCURVE",
"82 -10 OFFCURVE",
"197 -10 CURVE SMOOTH"
);
},
{
closed = 1;
nodes = (
"213 125 OFFCURVE",
"180 170 OFFCURVE",
"180 230 CURVE SMOOTH",
"180 314 OFFCURVE",
"248 399 OFFCURVE",
"319 399 CURVE SMOOTH",
"364 399 OFFCURVE",
"399 362 OFFCURVE",
"407 307 CURVE",
"384 198 LINE",
"350 153 OFFCURVE",
"312 125 OFFCURVE",
"268 125 CURVE SMOOTH"
);
}
);
width = 620;
}
);
leftKerningGroup = a;
rightKerningGroup = a.alt;
},
